<svg width="40" height="28" viewBox="0 0 40 28" fill="none" xmlns="http://www.w3.org/2000/svg">
<rect x="0.5" y="0.5" width="39" height="26.8261" rx="2" fill="#1F72CD" stroke="#D9D9D9"/>
<path fill-rule="evenodd" clip-rule="evenodd" d="M7.2075 9.77459L3.47827 18.3931H7.94268L8.49613 17.0189H9.76121L10.3147 18.3931H15.2287V17.3443L15.6666 18.3931H18.2085L18.6464 17.3221V18.3931H28.8663L30.109 17.0546L31.2726 18.3931L36.5218 18.4042L32.7807 14.1079L36.5218 9.77459H31.354L30.1443 11.0883L29.0174 9.77459H17.8994L16.9447 11.9991L15.9677 9.77459H11.5126V10.7877L11.017 9.77459H7.2075ZM22.4688 10.9984H28.3376L30.1326 13.0233L31.9854 10.9984H33.7804L31.0531 14.1067L33.7804 17.1791H31.904L30.109 15.1307L28.2467 17.1791H22.4688V10.9984ZM23.9182 13.4078V12.2789V12.2778H27.5801L29.1779 14.0833L27.5093 15.8986H23.9182V14.6662H27.1198V13.4078H23.9182ZM8.07128 10.9984H10.2474L12.721 16.8427V10.9984H15.1049L17.0155 15.1887L18.7763 10.9984H21.1483V17.1828H19.705L19.6932 12.3368L17.589 17.1828H16.2979L14.1819 12.3368V17.1828H11.2128L10.6498 15.7963H7.60869L7.04695 17.1815H5.45609L8.07128 10.9984ZM8.12799 14.5146L9.12993 12.0448L10.1307 14.5146H8.12799Z" fill="white"/>
</svg>
