<svg width="1393" height="1109" viewBox="0 0 1393 1109" fill="none" xmlns="http://www.w3.org/2000/svg">
<path d="M1023.46 370.46H653.46V862H1023.46V370.46Z" fill="url(#paint0_linear_0_1)"/>
<path d="M836 633C788 632.5 739 611 716 588C728 623 784 676.61 836 677V633Z" fill="url(#paint1_linear_0_1)"/>
<path d="M831 684C879 683.5 928 662 951 639C939 674 883 727.61 831 728C831 707.39 831 684 831 684Z" fill="url(#paint2_linear_0_1)"/>
<path d="M845 537H827V790H845V537Z" fill="#080808"/>
<path d="M836 828C856.987 828 874 810.987 874 790C874 769.013 856.987 752 836 752C815.013 752 798 769.013 798 790C798 810.987 815.013 828 836 828Z" fill="url(#paint3_linear_0_1)"/>
<path d="M842.59 425.17L854.75 417.38C858.95 414.69 864.56 416.19 866.85 420.62L873.48 433.45C875 436.39 878.09 438.18 881.4 438.02L895.82 437.35C900.81 437.12 904.91 441.22 904.68 446.21L904.01 460.63C903.86 463.94 905.64 467.03 908.58 468.55L921.41 475.18C925.84 477.47 927.35 483.08 924.65 487.28L916.86 499.44C915.07 502.23 915.07 505.8 916.86 508.59L924.65 520.75C927.34 524.95 925.84 530.56 921.41 532.85L908.58 539.48C905.64 541 903.85 544.09 904.01 547.4L904.68 561.82C904.91 566.81 900.81 570.91 895.82 570.68L881.4 570.01C878.09 569.86 875 571.64 873.48 574.58L866.85 587.41C864.56 591.84 858.95 593.35 854.75 590.65L842.59 582.86C839.8 581.07 836.23 581.07 833.44 582.86L821.28 590.65C817.08 593.34 811.47 591.84 809.18 587.41L802.55 574.58C801.03 571.64 797.94 569.85 794.63 570.01L780.21 570.68C775.22 570.91 771.12 566.81 771.35 561.82L772.02 547.4C772.17 544.09 770.39 541 767.45 539.48L754.62 532.85C750.19 530.56 748.68 524.95 751.38 520.75L759.17 508.59C760.96 505.8 760.96 502.23 759.17 499.44L751.38 487.28C748.69 483.08 750.19 477.47 754.62 475.18L767.45 468.55C770.39 467.03 772.18 463.94 772.02 460.63L771.35 446.21C771.12 441.22 775.22 437.12 780.21 437.35L794.63 438.02C797.94 438.17 801.03 436.39 802.55 433.45L809.18 420.62C811.47 416.19 817.08 414.68 821.28 417.38L833.44 425.17C836.23 426.96 839.8 426.96 842.59 425.17Z" fill="url(#paint4_linear_0_1)"/>
<path d="M838.02 567.26C872.947 567.26 901.26 538.947 901.26 504.02C901.26 469.094 872.947 440.78 838.02 440.78C803.094 440.78 774.78 469.094 774.78 504.02C774.78 538.947 803.094 567.26 838.02 567.26Z" fill="url(#paint5_linear_0_1)"/>
<path d="M838.02 560.97C869.473 560.97 894.97 535.473 894.97 504.02C894.97 472.567 869.473 447.07 838.02 447.07C806.568 447.07 781.07 472.567 781.07 504.02C781.07 535.473 806.568 560.97 838.02 560.97Z" fill="url(#paint6_linear_0_1)"/>
<path d="M838.02 536.72C856.08 536.72 870.72 522.08 870.72 504.02C870.72 485.96 856.08 471.32 838.02 471.32C819.961 471.32 805.32 485.96 805.32 504.02C805.32 522.08 819.961 536.72 838.02 536.72Z" fill="#080808"/>
<path d="M815.05 501.53C823.582 501.53 830.5 494.613 830.5 486.08C830.5 477.547 823.582 470.63 815.05 470.63C806.517 470.63 799.6 477.547 799.6 486.08C799.6 494.613 806.517 501.53 815.05 501.53Z" fill="white"/>
<path d="M790.33 429.23C803.088 429.23 813.431 418.888 813.431 406.13C813.431 393.372 803.088 383.03 790.33 383.03C777.573 383.03 767.23 393.372 767.23 406.13C767.23 418.888 777.573 429.23 790.33 429.23Z" fill="url(#paint7_linear_0_1)"/>
<path d="M790.33 418.08C796.93 418.08 802.28 412.73 802.28 406.13C802.28 399.53 796.93 394.18 790.33 394.18C783.73 394.18 778.38 399.53 778.38 406.13C778.38 412.73 783.73 418.08 790.33 418.08Z" fill="#080808"/>
<path d="M654 492H284V862H654V492Z" fill="#0F19EF"/>
<path d="M481 577.89C481 571.594 475.896 566.49 469.6 566.49C463.304 566.49 458.2 571.594 458.2 577.89V772.42C458.2 778.716 463.304 783.82 469.6 783.82C475.896 783.82 481 778.716 481 772.42V577.89Z" fill="url(#paint8_linear_0_1)"/>
<path d="M473.74 601.48L508.2 582.53C512.53 580.15 517.97 581.9 520.09 586.36L529.07 605.22C530.24 607.68 532.5 609.43 535.18 609.96L554.05 613.65C558.49 614.52 561.49 618.67 560.92 623.16L558.01 646.12C557.7 648.54 558.44 650.98 560.04 652.83L574.52 669.51C577.32 672.74 577.32 677.54 574.52 680.77L560.04 697.45C558.44 699.3 557.7 701.74 558.01 704.16L560.92 727.12C561.49 731.6 558.48 735.76 554.05 736.63L535.18 740.32C532.51 740.84 530.24 742.6 529.07 745.06L520.09 763.92C517.97 768.38 512.53 770.13 508.2 767.75L473.74 748.8C471.16 747.38 468.04 747.38 465.47 748.8L431.01 767.75C426.68 770.13 421.24 768.38 419.12 763.92L410.14 745.06C408.97 742.6 406.71 740.85 404.03 740.32L385.16 736.63C380.72 735.76 377.72 731.61 378.29 727.12L381.2 704.16C381.51 701.74 380.77 699.3 379.17 697.45L364.69 680.77C361.89 677.54 361.89 672.74 364.69 669.51L379.17 652.83C380.77 650.98 381.51 648.54 381.2 646.12L378.29 623.16C377.72 618.68 380.73 614.52 385.16 613.65L404.03 609.96C406.7 609.44 408.97 607.68 410.14 605.22L419.12 586.36C421.24 581.9 426.68 580.15 431.01 582.53L465.47 601.48C468.05 602.9 471.17 602.9 473.74 601.48Z" fill="#080808"/>
<path d="M512.35 772.83C510.24 772.83 508.15 772.31 506.28 771.28L471.82 752.33C470.44 751.57 468.78 751.57 467.4 752.33L432.94 771.28C429.91 772.94 426.3 773.29 423.01 772.23C419.73 771.17 416.99 768.78 415.51 765.66L406.53 746.8C405.91 745.49 404.69 744.55 403.27 744.27L384.4 740.58C377.92 739.31 373.5 733.19 374.33 726.64L377.24 703.68C377.4 702.39 377.01 701.08 376.15 700.1L361.67 683.41C357.59 678.71 357.59 671.61 361.67 666.91L376.15 650.23C377 649.25 377.4 647.94 377.24 646.65L374.33 623.69C373.5 617.14 377.92 611.02 384.4 609.75L403.27 606.06C404.69 605.78 405.91 604.84 406.53 603.53L415.51 584.67C416.99 581.55 419.73 579.16 423.01 578.1C426.3 577.04 429.91 577.39 432.94 579.05L467.4 598C468.78 598.76 470.44 598.76 471.82 598L506.28 579.05C509.3 577.39 512.92 577.04 516.21 578.1C519.5 579.16 522.23 581.55 523.71 584.67L532.69 603.53C533.31 604.84 534.53 605.78 535.95 606.06L554.82 609.75C561.3 611.02 565.72 617.14 564.89 623.69L561.98 646.65C561.82 647.94 562.21 649.25 563.07 650.23L577.55 666.91C581.63 671.61 581.63 678.71 577.55 683.41L563.07 700.1C562.22 701.08 561.82 702.39 561.98 703.68L564.89 726.64C565.72 733.19 561.3 739.31 554.82 740.58L535.95 744.27C534.53 744.55 533.31 745.49 532.69 746.8L523.71 765.66C522.23 768.78 519.49 771.17 516.21 772.23C514.96 772.63 513.65 772.83 512.36 772.83H512.35ZM469.6 743.76C471.68 743.76 473.77 744.28 475.66 745.32L510.12 764.27C511.24 764.88 512.52 765.01 513.74 764.61C514.95 764.22 515.93 763.37 516.47 762.22L525.45 743.36C527.16 739.78 530.5 737.18 534.4 736.42L553.27 732.73C555.63 732.27 557.24 730.04 556.94 727.65L554.03 704.69C553.58 701.14 554.67 697.56 557.01 694.85L571.49 678.16C572.98 676.45 572.98 673.86 571.49 672.15L557.01 655.47C554.67 652.77 553.58 649.18 554.03 645.63L556.94 622.67C557.24 620.28 555.63 618.05 553.27 617.59L534.4 613.9C530.5 613.14 527.16 610.54 525.45 606.96L516.47 588.1C515.92 586.95 514.95 586.1 513.74 585.71C512.53 585.32 511.24 585.44 510.12 586.06L475.66 605.01C471.86 607.1 467.33 607.1 463.53 605.01L429.07 586.06C427.95 585.44 426.67 585.32 425.45 585.71C424.24 586.1 423.26 586.95 422.72 588.1L413.74 606.96C412.03 610.54 408.69 613.14 404.79 613.9L385.92 617.59C383.56 618.05 381.95 620.28 382.25 622.67L385.16 645.63C385.61 649.18 384.52 652.76 382.18 655.46L367.7 672.15C366.21 673.86 366.21 676.45 367.7 678.16L382.18 694.85C384.52 697.55 385.61 701.14 385.16 704.68L382.25 727.64C381.95 730.03 383.56 732.26 385.92 732.72L404.79 736.41C408.69 737.17 412.03 739.77 413.74 743.35L422.72 762.21C423.27 763.36 424.24 764.21 425.45 764.6C426.67 764.99 427.95 764.87 429.07 764.25L463.53 745.3C465.43 744.26 467.51 743.73 469.59 743.73L469.6 743.76Z" fill="url(#paint9_linear_0_1)"/>
<path d="M472.58 625.73L497.43 613.02C500.55 611.42 504.47 612.6 506 615.59L512.48 628.24C513.32 629.89 514.96 631.07 516.88 631.42L530.49 633.9C533.69 634.48 535.86 637.27 535.44 640.28L533.34 655.68C533.12 657.31 533.65 658.94 534.81 660.18L545.25 671.37C547.27 673.54 547.27 676.76 545.25 678.92L534.81 690.11C533.65 691.35 533.12 692.99 533.34 694.61L535.44 710.01C535.85 713.02 533.68 715.81 530.49 716.39L516.88 718.87C514.95 719.22 513.32 720.4 512.48 722.05L506 734.7C504.47 737.69 500.55 738.87 497.43 737.27L472.58 724.56C470.72 723.61 468.47 723.61 466.61 724.56L441.76 737.27C438.64 738.87 434.72 737.69 433.19 734.7L426.71 722.05C425.87 720.4 424.23 719.22 422.31 718.87L408.7 716.39C405.5 715.81 403.33 713.02 403.75 710.01L405.85 694.61C406.07 692.98 405.54 691.35 404.38 690.11L393.94 678.92C391.92 676.75 391.92 673.53 393.94 671.37L404.38 660.18C405.54 658.94 406.07 657.3 405.85 655.68L403.75 640.28C403.34 637.27 405.51 634.48 408.7 633.9L422.31 631.42C424.24 631.07 425.87 629.89 426.71 628.24L433.19 615.59C434.72 612.6 438.64 611.42 441.76 613.02L466.61 625.73C468.47 626.68 470.72 626.68 472.58 625.73Z" fill="url(#paint10_linear_0_1)"/>
<path d="M312.5 686.5V688.5H336.5V686.5H312.5Z" fill="white"/>
<path d="M605.5 686.5V688.5H629.5V686.5H605.5Z" fill="white"/>
<path d="M470.5 525.5H468.5V549.5H470.5V525.5Z" fill="white"/>
<path d="M386.37 540.608L384.638 541.608L396.638 562.393L398.37 561.393L386.37 540.608Z" fill="white"/>
<path d="M332.611 591.636L331.611 593.368L352.396 605.368L353.396 603.636L332.611 591.636Z" fill="white"/>
<path d="M384.63 815.391L386.362 816.391L398.362 795.607L396.63 794.607L384.63 815.391Z" fill="white"/>
<path d="M332.019 759.212L333.079 760.908L353.428 748.183L352.367 746.487L332.019 759.212Z" fill="white"/>
<path d="M561.612 816.386L563.344 815.386L551.344 794.601L549.612 795.601L561.612 816.386Z" fill="white"/>
<path d="M615.369 765.363L616.369 763.631L595.585 751.631L594.585 753.363L615.369 765.363Z" fill="white"/>
<path d="M563.338 541.604L561.605 540.604L549.605 561.388L551.338 562.388L563.338 541.604Z" fill="white"/>
<path d="M615.941 597.798L614.881 596.103L594.532 608.828L595.593 610.523L615.941 597.798Z" fill="white"/>
<path d="M470.5 801.5H468.5V825.5H470.5V801.5Z" fill="white"/>
<path d="M469.6 707.85C487.66 707.85 502.3 693.21 502.3 675.15C502.3 657.09 487.66 642.45 469.6 642.45C451.541 642.45 436.9 657.09 436.9 675.15C436.9 693.21 451.541 707.85 469.6 707.85Z" fill="#080808"/>
<path d="M446.84 672.33C455.372 672.33 462.29 665.413 462.29 656.88C462.29 648.347 455.372 641.43 446.84 641.43C438.307 641.43 431.39 648.347 431.39 656.88C431.39 665.413 438.307 672.33 446.84 672.33Z" fill="white"/>
<path d="M1023 0H653V370H1023V0Z" fill="#080808"/>
<path d="M963.06 158.43L942.51 137.88V108.81C942.51 90.9401 928.02 76.46 910.16 76.46H881.09L860.54 55.9099C847.9 43.2699 827.42 43.2699 814.78 55.9099L794.23 76.46H765.16C747.29 76.46 732.81 90.9501 732.81 108.81V137.88L712.26 158.43C699.62 171.07 699.62 191.55 712.26 204.19L732.81 224.74V253.81C732.81 271.68 747.3 286.16 765.16 286.16H794.23L814.78 306.71C827.42 319.35 847.9 319.35 860.54 306.71L881.09 286.16H910.16C928.03 286.16 942.51 271.67 942.51 253.81V224.74L963.06 204.19C975.7 191.55 975.7 171.07 963.06 158.43Z" fill="url(#paint11_linear_0_1)"/>
<path d="M943.71 161.79L926.17 144.25V119.45C926.17 104.2 913.81 91.8501 898.57 91.8501H873.77L856.23 74.3101C845.45 63.5301 827.97 63.5301 817.19 74.3101L799.65 91.8501H774.85C759.6 91.8501 747.25 104.21 747.25 119.45V144.25L729.71 161.79C718.93 172.57 718.93 190.05 729.71 200.83L747.25 218.37V243.17C747.25 258.42 759.61 270.77 774.85 270.77H799.65L817.19 288.31C827.97 299.09 845.45 299.09 856.23 288.31L873.77 270.77H898.57C913.82 270.77 926.17 258.41 926.17 243.17V218.37L943.71 200.83C954.49 190.05 954.49 172.57 943.71 161.79Z" fill="url(#paint12_linear_0_1)"/>
<path d="M836.21 248C871.943 248 900.91 219.033 900.91 183.3C900.91 147.567 871.943 118.6 836.21 118.6C800.477 118.6 771.51 147.567 771.51 183.3C771.51 219.033 800.477 248 836.21 248Z" fill="url(#paint13_linear_0_1)"/>
<path d="M835.71 222C856.807 222 873.91 204.897 873.91 183.8C873.91 162.703 856.807 145.6 835.71 145.6C814.612 145.6 797.51 162.703 797.51 183.8C797.51 204.897 814.612 222 835.71 222Z" fill="#080808"/>
<path d="M838.78 347.3C838.23 347.3 837.79 346.86 837.78 346.31C837.78 345.76 838.21 345.3 838.77 345.3C839.29 345.3 839.83 345.73 839.83 346.28C839.83 346.83 839.45 347.29 838.89 347.29H838.79C838.79 347.29 838.79 347.29 838.78 347.29V347.3ZM830.8 347.21C830.8 347.21 830.78 347.21 830.77 347.21H830.66C830.11 347.19 829.68 346.72 829.7 346.17C829.72 345.62 830.2 345.2 830.74 345.21C831.29 345.23 831.77 345.7 831.75 346.25C831.73 346.79 831.33 347.21 830.8 347.21ZM846.85 347C846.33 347 845.89 346.6 845.85 346.07C845.81 345.52 846.22 345.04 846.77 345H846.88C847.42 344.96 847.9 345.39 847.94 345.94C847.97 346.49 847.55 346.96 847 347L846.94 346L846.91 347C846.91 347 846.86 347 846.84 347H846.85ZM822.73 346.73C822.73 346.73 822.67 346.73 822.64 346.73L822.73 345.73L822.56 346.72C822.01 346.68 821.6 346.2 821.64 345.65C821.68 345.1 822.15 344.69 822.71 344.73H822.82C823.37 344.78 823.78 345.26 823.73 345.81C823.68 346.33 823.25 346.72 822.73 346.72V346.73ZM854.89 346.3C854.38 346.3 853.95 345.92 853.9 345.4C853.84 344.85 854.24 344.36 854.79 344.3C855.34 344.24 855.88 344.62 855.94 345.17C856 345.72 855.65 346.21 855.11 346.27H855C855 346.27 854.93 346.29 854.9 346.29L854.89 346.3ZM814.69 345.86C814.69 345.86 814.6 345.86 814.56 345.86L814.46 345.85C813.91 345.78 813.53 345.27 813.6 344.73C813.67 344.18 814.17 343.8 814.72 343.87C815.27 343.94 815.7 344.45 815.63 345C815.56 345.5 815.17 345.87 814.69 345.87V345.86ZM862.89 345.21C862.41 345.21 861.99 344.86 861.9 344.37C861.81 343.83 862.18 343.31 862.72 343.22L862.82 343.2C863.38 343.11 863.88 343.48 863.97 344.03C864.06 344.58 863.69 345.09 863.14 345.18L862.98 344.19L863.05 345.19C862.99 345.19 862.94 345.2 862.88 345.2L862.89 345.21ZM806.71 344.6C806.65 344.6 806.6 344.6 806.54 344.58L806.43 344.56C805.89 344.45 805.53 343.93 805.64 343.39C805.75 342.85 806.27 342.49 806.81 342.6C807.35 342.7 807.75 343.23 807.65 343.77C807.56 344.25 807.18 344.6 806.71 344.6ZM870.83 343.72C870.37 343.72 869.96 343.4 869.85 342.94C869.73 342.4 870.07 341.87 870.61 341.75C870.61 341.75 870.71 341.73 870.72 341.73C871.26 341.61 871.79 341.96 871.91 342.5C872.02 343.04 871.68 343.57 871.14 343.69L870.93 342.71L871.05 343.71C870.98 343.73 870.9 343.73 870.83 343.73V343.72ZM798.81 342.95C798.73 342.95 798.65 342.95 798.57 342.92L798.81 341.95L798.49 342.9C797.95 342.78 797.61 342.24 797.73 341.71C797.85 341.17 798.39 340.83 798.92 340.95L799.03 340.98C799.57 341.11 799.9 341.65 799.77 342.19C799.66 342.65 799.25 342.95 798.8 342.95H798.81ZM878.69 341.84C878.24 341.84 877.84 341.54 877.72 341.09C877.58 340.56 877.9 340.01 878.44 339.87C878.97 339.72 879.56 340.03 879.71 340.56C879.86 341.09 879.58 341.63 879.05 341.78L878.94 341.81C878.86 341.83 878.77 341.84 878.69 341.84ZM791 340.91C790.91 340.91 790.81 340.9 790.72 340.87L791 339.91L790.64 340.85C790.11 340.7 789.79 340.15 789.94 339.62C790.09 339.09 790.64 338.78 791.17 338.92L791.28 338.95C791.81 339.11 792.11 339.66 791.96 340.19C791.83 340.63 791.43 340.91 791 340.91ZM886.45 339.57C886.02 339.57 885.62 339.29 885.49 338.86C885.33 338.33 885.63 337.77 886.16 337.61C886.68 337.45 887.29 337.73 887.45 338.25C887.62 338.77 887.38 339.31 886.86 339.49C886.86 339.49 886.75 339.52 886.74 339.53C886.64 339.56 886.55 339.57 886.45 339.57ZM783.3 338.49C783.19 338.49 783.08 338.47 782.97 338.44L783.3 337.49L782.88 338.41C782.36 338.23 782.08 337.67 782.25 337.14C782.43 336.62 782.99 336.34 783.52 336.51L783.62 336.54C784.14 336.72 784.42 337.29 784.24 337.81C784.1 338.22 783.71 338.49 783.29 338.49H783.3ZM894.07 336.92C893.67 336.92 893.29 336.68 893.14 336.28C892.94 335.76 893.2 335.19 893.71 334.99L893.81 334.95C894.33 334.76 894.9 335.02 895.1 335.54C895.29 336.06 895.03 336.63 894.52 336.83L894.17 335.89L894.44 336.86C894.32 336.91 894.2 336.93 894.08 336.93L894.07 336.92ZM775.71 335.68C775.6 335.68 775.48 335.66 775.36 335.61L775.25 335.57C774.74 335.36 774.5 334.77 774.71 334.26C774.92 333.75 775.51 333.51 776.02 333.72C776.53 333.92 776.83 334.52 776.63 335.03C776.47 335.43 776.11 335.68 775.72 335.68H775.71ZM901.55 333.9C901.16 333.9 900.8 333.68 900.63 333.3C900.41 332.79 900.64 332.2 901.15 331.98C901.66 331.76 902.29 331.98 902.51 332.48C902.73 332.99 902.54 333.56 902.04 333.78L901.95 333.82C901.82 333.88 901.68 333.9 901.55 333.9ZM768.26 332.5C768.13 332.5 768 332.47 767.87 332.41L767.77 332.37C767.27 332.14 767.05 331.55 767.28 331.04C767.51 330.54 768.11 330.32 768.61 330.55C769.11 330.78 769.38 331.39 769.15 331.89C768.98 332.26 768.63 332.49 768.26 332.49V332.5ZM908.87 330.51C908.5 330.51 908.14 330.3 907.97 329.95C907.73 329.45 907.94 328.85 908.43 328.61C908.92 328.37 909.56 328.55 909.81 329.05C910.05 329.54 909.9 330.12 909.4 330.36L909.3 330.41C909.16 330.48 909.01 330.51 908.87 330.51ZM760.99 328.95C760.85 328.95 760.7 328.92 760.56 328.85L760.45 328.79C759.96 328.53 759.78 327.92 760.04 327.44C760.3 326.95 760.9 326.77 761.39 327.03C761.88 327.28 762.11 327.9 761.86 328.39C761.68 328.74 761.34 328.95 760.98 328.95H760.99ZM916.02 326.76C915.67 326.76 915.33 326.58 915.15 326.25C914.88 325.77 915.04 325.16 915.53 324.89C915.53 324.89 915.62 324.84 915.63 324.83C916.11 324.56 916.72 324.74 916.99 325.22C917.26 325.7 917.08 326.31 916.6 326.58L916.12 325.7L916.53 326.62C916.37 326.71 916.2 326.75 916.04 326.75L916.02 326.76ZM753.89 325.04C753.73 325.04 753.57 325 753.42 324.91C753.42 324.91 753.33 324.86 753.32 324.85C752.84 324.57 752.69 323.95 752.97 323.48C753.25 323.01 753.87 322.85 754.34 323.13C754.81 323.41 755.01 324.05 754.74 324.52C754.55 324.84 754.23 325.03 753.89 325.03V325.04ZM922.97 322.66C922.64 322.66 922.31 322.49 922.12 322.19C921.83 321.72 921.97 321.1 922.44 320.81C922.91 320.52 923.57 320.64 923.86 321.11C924.15 321.58 924.05 322.17 923.58 322.46L923.5 322.51C923.34 322.61 923.15 322.66 922.97 322.66ZM747 320.79C746.83 320.79 746.65 320.74 746.49 320.64L746.4 320.58C745.94 320.28 745.81 319.66 746.11 319.2C746.41 318.74 747.03 318.61 747.49 318.91C747.95 319.21 748.13 319.86 747.82 320.32C747.62 320.62 747.31 320.79 746.99 320.79H747ZM929.72 318.23C929.4 318.23 929.09 318.08 928.89 317.79C928.58 317.33 928.7 316.71 929.16 316.4C929.61 316.09 930.27 316.18 930.59 316.63C930.9 317.08 930.83 317.67 930.38 317.99L930.29 318.05C930.12 318.17 929.92 318.22 929.73 318.22L929.72 318.23ZM740.37 316.22C740.17 316.22 739.96 316.16 739.78 316.03L739.71 315.98C739.26 315.66 739.16 315.03 739.48 314.58C739.8 314.13 740.43 314.03 740.88 314.35L740.97 314.41C741.42 314.73 741.52 315.36 741.19 315.81C740.99 316.08 740.69 316.22 740.38 316.22H740.37ZM936.24 313.47C935.94 313.47 935.65 313.34 935.45 313.08C935.11 312.64 935.19 312.02 935.62 311.68C935.62 311.68 935.71 311.62 935.71 311.61C936.15 311.28 936.78 311.36 937.11 311.8C937.44 312.24 937.36 312.87 936.92 313.2L936.32 312.4L936.86 313.25C936.68 313.39 936.46 313.46 936.25 313.46L936.24 313.47ZM733.94 311.32C733.72 311.32 733.5 311.25 733.31 311.1L733.25 311.05C732.81 310.71 732.74 310.08 733.07 309.65C733.41 309.21 734.04 309.14 734.47 309.47L734.56 309.55C734.99 309.9 735.05 310.53 734.71 310.96C734.51 311.2 734.22 311.33 733.93 311.33L733.94 311.32ZM942.52 308.39C942.24 308.39 941.95 308.27 941.76 308.04C941.4 307.62 941.46 306.99 941.88 306.63C942.3 306.27 942.97 306.29 943.33 306.71C943.69 307.13 943.67 307.73 943.25 308.09L943.17 308.15C942.98 308.31 942.75 308.39 942.53 308.39H942.52ZM727.71 306.1C727.49 306.1 727.28 306.02 727.1 305.86L727.02 305.79C726.61 305.42 726.58 304.79 726.95 304.38C727.32 303.97 727.95 303.94 728.36 304.31C728.77 304.68 728.84 305.34 728.47 305.75C728.26 305.98 727.99 306.1 727.71 306.1ZM948.54 303.01C948.28 303.01 948.01 302.91 947.82 302.7C947.44 302.3 947.45 301.67 947.85 301.29L947.93 301.22C948.33 300.84 948.97 300.86 949.34 301.26C949.72 301.66 949.7 302.3 949.3 302.67L948.62 301.94L949.24 302.73C949.05 302.92 948.8 303.01 948.55 303.01H948.54ZM721.84 300.61C721.59 300.61 721.33 300.51 721.14 300.32L721.84 299.61L721.07 300.25C720.68 299.86 720.67 299.23 721.06 298.84C721.45 298.45 722.08 298.44 722.47 298.83L722.54 298.9C722.93 299.29 722.94 299.92 722.55 300.31C722.35 300.51 722.09 300.61 721.84 300.61ZM954.29 297.34C954.04 297.34 953.8 297.25 953.61 297.07C953.21 296.69 953.19 296.06 953.57 295.66C953.57 295.66 953.65 295.58 953.65 295.57C954.04 295.18 954.67 295.17 955.07 295.56C955.46 295.95 955.47 296.58 955.08 296.97L954.37 296.27L955.03 297.03C954.83 297.24 954.57 297.35 954.3 297.35L954.29 297.34ZM716.2 294.82C715.93 294.82 715.66 294.71 715.46 294.5L716.2 293.82L715.4 294.43C715.02 294.03 715.04 293.39 715.44 293.02C715.84 292.64 716.48 292.66 716.85 293.06C716.85 293.06 716.92 293.14 716.93 293.14C717.3 293.55 717.28 294.18 716.87 294.55C716.68 294.73 716.43 294.81 716.19 294.81L716.2 294.82ZM959.76 291.39C959.52 291.39 959.29 291.31 959.1 291.14C958.69 290.77 958.65 290.14 959.01 289.73C959.37 289.32 960.04 289.24 960.45 289.6C960.86 289.96 960.94 290.55 960.58 290.97L960.51 291.05C960.31 291.27 960.04 291.39 959.76 291.39ZM710.8 288.74C710.54 288.74 710.28 288.63 710.09 288.41L710.02 288.33C709.67 287.9 709.73 287.27 710.15 286.92C710.58 286.57 711.21 286.63 711.56 287.05C711.91 287.47 711.89 288.14 711.46 288.49C711.26 288.66 711.03 288.74 710.8 288.74ZM964.93 285.15C964.72 285.15 964.51 285.08 964.33 284.95C963.9 284.61 963.8 284 964.14 283.57C964.48 283.13 965.14 283.02 965.57 283.36C966.01 283.7 966.12 284.29 965.78 284.72L965.75 284.76C965.55 285.02 965.24 285.16 964.93 285.16V285.15ZM705.76 282.43C705.48 282.43 705.21 282.31 705.02 282.06C705.02 282.06 704.96 281.98 704.95 281.97C704.62 281.53 704.71 280.9 705.15 280.57C705.59 280.24 706.22 280.33 706.55 280.77C706.88 281.21 706.82 281.88 706.38 282.21C706.19 282.35 705.97 282.43 705.75 282.43H705.76ZM969.78 278.71C969.58 278.71 969.39 278.65 969.21 278.53C968.76 278.22 968.64 277.59 968.96 277.14C968.96 277.14 969.02 277.05 969.03 277.05C969.35 276.6 969.98 276.5 970.42 276.82C970.87 277.14 970.97 277.77 970.65 278.22L969.84 277.64L970.6 278.29C970.41 278.57 970.09 278.72 969.78 278.72V278.71ZM701.09 275.9C700.77 275.9 700.45 275.75 700.26 275.46L701.09 274.9L700.21 275.39C699.89 274.94 700.01 274.31 700.46 274C700.91 273.69 701.54 273.8 701.85 274.25L701.91 274.34C702.22 274.8 702.1 275.42 701.64 275.73C701.47 275.85 701.27 275.9 701.08 275.9H701.09ZM974.31 272.01C974.12 272.01 973.93 271.96 973.76 271.85C973.3 271.55 973.17 270.93 973.47 270.47C973.77 270.01 974.41 269.84 974.88 270.14C975.34 270.44 975.5 271.01 975.21 271.47C975.21 271.47 975.15 271.56 975.15 271.57C974.96 271.86 974.64 272.02 974.31 272.02V272.01ZM696.64 269.1C696.33 269.1 696.03 268.95 695.85 268.66C695.85 268.66 695.79 268.57 695.79 268.56C695.5 268.09 695.66 267.47 696.13 267.19C696.6 266.9 697.22 267.06 697.5 267.53C697.78 268 697.66 268.65 697.19 268.94C697.02 269.05 696.82 269.1 696.64 269.1ZM978.5 265.09C978.33 265.09 978.16 265.05 978.01 264.96C977.53 264.69 977.36 264.08 977.63 263.6L977.68 263.51C977.95 263.03 978.57 262.87 979.05 263.14C979.53 263.42 979.69 264.03 979.42 264.51L979.37 264.59C979.19 264.91 978.85 265.1 978.5 265.1V265.09ZM692.58 262.12C692.25 262.12 691.93 261.95 691.76 261.63L691.71 261.54C691.45 261.05 691.63 260.45 692.11 260.18C692.59 259.92 693.2 260.1 693.47 260.58C693.73 261.06 693.58 261.71 693.09 261.98C692.93 262.07 692.75 262.11 692.58 262.11V262.12ZM982.34 257.97C982.18 257.97 982.02 257.93 981.88 257.86C981.39 257.6 981.2 257 981.46 256.51C981.7 256.01 982.32 255.78 982.82 256.02C983.32 256.26 983.54 256.83 983.29 257.33L983.23 257.44C983.05 257.78 982.7 257.98 982.34 257.98V257.97ZM688.88 254.95C688.53 254.95 688.2 254.77 688.04 254.43L687.99 254.33C687.75 253.83 687.97 253.23 688.46 253C688.96 252.76 689.56 252.97 689.79 253.47C690.03 253.97 689.84 254.6 689.34 254.84C689.19 254.91 689.03 254.95 688.87 254.95H688.88ZM985.82 250.67C985.68 250.67 985.55 250.64 985.41 250.58C984.91 250.36 984.68 249.77 984.9 249.26L984.94 249.16C985.17 248.66 985.76 248.43 986.26 248.66C986.76 248.89 986.99 249.48 986.76 249.98L986.72 250.07C986.55 250.44 986.19 250.66 985.8 250.66L985.82 250.67ZM685.54 247.61C685.17 247.61 684.83 247.41 684.67 247.05C684.67 247.05 684.63 246.95 684.62 246.94C684.41 246.43 684.65 245.84 685.16 245.63C685.67 245.42 686.25 245.66 686.47 246.17C686.68 246.68 686.47 247.3 685.96 247.52C685.82 247.58 685.68 247.61 685.54 247.61ZM988.93 243.2C988.8 243.2 988.67 243.18 988.55 243.12C988.04 242.91 987.8 242.32 988.01 241.81C988.2 241.29 988.79 241 989.31 241.19C989.83 241.38 990.1 241.93 989.91 242.45L989.86 242.57C989.7 242.96 989.33 243.19 988.94 243.19L988.93 243.2ZM682.61 240.16C682.2 240.16 681.82 239.91 681.67 239.5L682.61 239.16L681.64 239.42C681.44 238.9 681.7 238.33 682.22 238.13C682.73 237.93 683.31 238.19 683.51 238.71C683.51 238.71 683.55 238.81 683.55 238.82C683.74 239.34 683.47 239.91 682.95 240.1C682.84 240.14 682.72 240.16 682.61 240.16ZM991.65 235.6C991.55 235.6 991.45 235.58 991.35 235.55C990.82 235.38 990.53 234.82 990.69 234.3C990.69 234.3 990.73 234.19 990.73 234.18C990.91 233.66 991.48 233.38 992 233.55C992.52 233.73 992.8 234.29 992.63 234.82L991.68 234.5L992.6 234.89C992.47 235.32 992.07 235.59 991.65 235.59V235.6ZM680.01 232.53C679.58 232.53 679.19 232.25 679.05 231.82L680.01 231.53L679.03 231.74C678.86 231.21 679.15 230.65 679.67 230.48C680.2 230.31 680.76 230.6 680.93 231.12C680.93 231.12 680.96 231.22 680.96 231.23C681.12 231.76 680.83 232.32 680.3 232.48C680.2 232.51 680.1 232.52 680.01 232.52V232.53ZM993.99 227.87C993.9 227.87 993.81 227.86 993.72 227.83C993.19 227.68 992.88 227.13 993.02 226.6C993.17 226.07 993.73 225.71 994.26 225.85C994.79 226 995.12 226.5 994.97 227.03L994.94 227.13C994.82 227.57 994.41 227.86 993.98 227.86L993.99 227.87ZM677.75 224.72C677.32 224.72 676.93 224.46 676.82 224.01L676.8 223.91C676.66 223.37 676.98 222.83 677.52 222.69C678.05 222.55 678.6 222.87 678.74 223.41C678.88 223.95 678.57 224.54 678.03 224.68C677.94 224.7 677.85 224.72 677.76 224.72H677.75ZM995.94 220.03C995.86 220.03 995.78 220.03 995.7 220C995.16 219.87 994.83 219.33 994.96 218.79C995.09 218.26 995.64 217.88 996.16 218C996.69 218.12 997.04 218.6 996.93 219.13C996.93 219.14 996.9 219.25 996.9 219.26C996.79 219.72 996.38 220.02 995.93 220.02L995.94 220.03ZM675.93 216.85C675.48 216.85 675.08 216.56 674.98 216.1C674.98 216.1 674.96 216 674.96 215.99C674.85 215.45 675.21 214.92 675.75 214.82C676.29 214.71 676.82 215.07 676.92 215.61C677.03 216.15 676.69 216.72 676.15 216.83C676.08 216.85 676 216.85 675.93 216.85ZM997.5 212.11C997.5 212.11 997.4 212.11 997.35 212.1C996.8 212.02 996.43 211.51 996.51 210.96C996.51 210.96 996.53 210.84 996.53 210.83C996.63 210.29 997.14 209.92 997.69 210.02C998.23 210.12 998.6 210.64 998.5 211.18L997.52 211L998.49 211.25C998.42 211.75 997.99 212.1 997.5 212.1V212.11ZM674.53 208.95C674.04 208.95 673.62 208.59 673.54 208.1L674.53 207.95L673.53 208.01C673.44 207.46 673.81 206.95 674.36 206.86C674.91 206.77 675.42 207.14 675.51 207.69L675.53 207.8C675.61 208.35 675.23 208.86 674.69 208.94C674.64 208.94 674.59 208.95 674.54 208.95H674.53ZM998.66 204.12C998.66 204.12 998.58 204.12 998.54 204.12C997.99 204.05 997.6 203.56 997.66 203.01C997.73 202.46 998.22 202.02 998.78 202.09C999.33 202.15 999.73 202.6 999.66 203.15L999.65 203.25C999.59 203.76 999.16 204.13 998.66 204.13V204.12ZM673.5 200.94C672.99 200.94 672.56 200.56 672.51 200.04L673.5 199.94H672.5C672.44 199.4 672.84 198.9 673.39 198.85C673.93 198.8 674.43 199.19 674.49 199.74L674.5 199.84C674.56 200.39 674.16 200.88 673.61 200.94C673.58 200.94 673.54 200.94 673.51 200.94H673.5ZM999.43 196.08C999.43 196.08 999.37 196.08 999.34 196.08C998.79 196.03 998.38 195.55 998.43 195C998.48 194.46 998.97 194.02 999.5 194.04C1000.04 194.08 1000.46 194.5 1000.43 195.05C1000.43 195.05 1000.43 195.17 1000.43 195.18C1000.38 195.7 999.95 196.09 999.43 196.09V196.08ZM672.86 192.84C672.34 192.84 671.9 192.48 671.87 191.95V191.84C671.85 191.29 672.27 190.82 672.83 190.8C673.36 190.77 673.85 191.2 673.87 191.76C673.89 192.31 673.47 192.82 672.93 192.85C672.91 192.85 672.89 192.85 672.87 192.85L672.86 192.84ZM999.81 188.01C999.26 188.01 998.81 187.56 998.81 187.01C998.81 187.01 998.81 186.89 998.81 186.88C998.83 186.34 999.27 185.91 999.81 185.91C999.82 185.91 999.83 185.91 999.84 185.91C1000.39 185.93 1000.83 186.39 1000.81 186.94L999.81 186.91L1000.81 187.01C1000.81 187.56 1000.36 188.01 999.81 188.01ZM672.64 184.81C672.09 184.81 671.64 184.36 671.64 183.81H672.64L671.64 183.73C671.64 183.18 672.07 182.72 672.63 182.72C673.17 182.75 673.64 183.15 673.64 183.71V183.82C673.64 184.37 673.19 184.82 672.64 184.82V184.81ZM999.79 179.93C999.25 179.93 998.81 179.5 998.79 178.96C998.77 178.41 999.21 177.9 999.76 177.88C1000.3 177.84 1000.77 178.25 1000.79 178.8V178.9C1000.81 179.45 1000.37 179.91 999.82 179.93C999.82 179.93 999.8 179.93 999.79 179.93ZM672.81 176.68C672.81 176.68 672.78 176.68 672.77 176.68C672.22 176.66 671.79 176.24 671.81 175.69V175.59C671.84 175.04 672.31 174.62 672.86 174.63C673.41 174.65 673.84 175.12 673.82 175.67C673.8 176.21 673.35 176.68 672.82 176.68H672.81ZM999.38 171.86C998.85 171.86 998.41 171.45 998.38 170.92C998.35 170.37 998.76 169.85 999.3 169.81C999.86 169.76 1000.32 170.12 1000.37 170.67C1000.37 170.67 1000.37 170.79 1000.37 170.8C1000.4 171.35 999.98 171.82 999.43 171.86C999.41 171.86 999.39 171.86 999.37 171.86H999.38ZM673.37 168.62C673.37 168.62 673.31 168.62 673.28 168.62C672.73 168.57 672.33 168.13 672.38 167.59C672.38 167.59 672.39 167.48 672.39 167.47C672.45 166.92 672.94 166.53 673.49 166.58C674.04 166.64 674.44 167.13 674.38 167.68C674.33 168.2 673.88 168.63 673.37 168.63V168.62ZM998.56 163.82C998.07 163.82 997.65 163.46 997.57 162.97C997.57 162.96 997.55 162.85 997.55 162.84C997.49 162.29 997.88 161.79 998.43 161.73C998.98 161.66 999.48 162.06 999.54 162.61L998.55 162.73L999.55 162.68C999.63 163.23 999.26 163.74 998.71 163.82C998.66 163.82 998.61 163.83 998.56 163.83V163.82ZM674.33 160.65C674.33 160.65 674.23 160.65 674.18 160.64C673.63 160.56 673.26 160.05 673.34 159.5L674.33 159.65L673.35 159.42C673.42 158.87 673.93 158.49 674.47 158.56C675.02 158.63 675.4 159.13 675.33 159.68L675.31 159.79C675.24 160.29 674.81 160.64 674.32 160.64L674.33 160.65ZM997.34 155.84C996.86 155.84 996.44 155.5 996.36 155.02C996.26 154.48 996.62 153.91 997.16 153.81C997.7 153.71 998.21 154.02 998.31 154.57L998.33 154.67C998.43 155.21 998.07 155.73 997.52 155.83C997.46 155.84 997.4 155.85 997.34 155.85V155.84ZM675.67 152.64C675.61 152.64 675.55 152.64 675.5 152.62C674.96 152.52 674.59 152.04 674.7 151.5L674.72 151.4C674.83 150.86 675.35 150.5 675.89 150.61C676.43 150.72 676.79 151.24 676.68 151.78C676.59 152.26 676.15 152.64 675.67 152.64ZM995.72 147.93C995.26 147.93 994.84 147.61 994.74 147.13C994.63 146.6 994.95 146.02 995.49 145.9C996.02 145.78 996.54 146.06 996.67 146.59C996.67 146.6 996.7 146.71 996.7 146.72C996.81 147.26 996.47 147.79 995.93 147.9C995.86 147.91 995.79 147.92 995.72 147.92V147.93ZM677.41 144.75C677.34 144.75 677.26 144.75 677.19 144.72C676.66 144.59 676.32 144.1 676.45 143.56L676.48 143.45C676.62 142.91 677.16 142.59 677.7 142.73C678.23 142.87 678.56 143.41 678.42 143.95C678.3 144.41 677.88 144.75 677.42 144.75H677.41ZM993.71 140.1C993.28 140.1 992.89 139.82 992.75 139.39L992.71 139.26C992.56 138.73 992.88 138.18 993.41 138.03C993.94 137.89 994.49 138.2 994.64 138.73L994.66 138.8C994.82 139.33 994.53 139.89 994 140.05C993.9 140.08 993.8 140.09 993.71 140.09V140.1ZM679.55 137.01C679.45 137.01 679.35 137 679.26 136.97C678.73 136.81 678.44 136.25 678.6 135.72L679.56 136.01L678.63 135.64C678.78 135.11 679.34 134.8 679.87 134.96C680.4 135.11 680.71 135.67 680.55 136.2L680.52 136.31C680.39 136.74 679.99 137.02 679.56 137.02L679.55 137.01ZM991.32 132.41C990.9 132.41 990.51 132.15 990.37 131.73C990.19 131.21 990.46 130.59 990.98 130.42C991.5 130.24 992.05 130.47 992.23 130.99L992.26 131.09C992.44 131.61 992.16 132.18 991.63 132.36C991.52 132.4 991.42 132.41 991.31 132.41H991.32ZM682.08 129.34C681.97 129.34 681.85 129.32 681.74 129.28C681.22 129.09 680.95 128.52 681.14 128L681.17 127.91C681.36 127.39 681.93 127.12 682.45 127.3C682.97 127.48 683.24 128.06 683.06 128.58L683.02 128.68C682.87 129.09 682.49 129.34 682.08 129.34ZM988.55 124.84C988.16 124.84 987.78 124.61 987.63 124.22C987.63 124.22 987.59 124.11 987.58 124.1C987.38 123.58 987.64 123.01 988.16 122.81C988.67 122.61 989.25 122.87 989.45 123.39L988.52 123.75L989.48 123.46C989.69 123.97 989.45 124.56 988.94 124.77C988.82 124.82 988.69 124.85 988.56 124.85L988.55 124.84ZM684.98 121.74C684.86 121.74 684.74 121.72 684.63 121.67C684.12 121.46 683.86 120.92 684.07 120.41L684.11 120.31C684.32 119.8 684.91 119.56 685.42 119.78C685.93 119.99 686.17 120.58 685.95 121.09C685.79 121.49 685.39 121.75 684.98 121.75V121.74ZM985.4 117.42C985.02 117.42 984.66 117.2 984.49 116.84C984.49 116.84 984.45 116.75 984.45 116.74C984.22 116.24 984.45 115.64 984.95 115.42C985.45 115.19 986.05 115.42 986.27 115.92L985.36 116.33L986.31 116C986.54 116.5 986.31 117.1 985.82 117.33C985.69 117.39 985.54 117.42 985.4 117.42ZM688.27 114.35C688.14 114.35 688 114.32 687.87 114.26C687.37 114.03 687.14 113.47 687.37 112.97L687.42 112.86C687.66 112.36 688.26 112.16 688.76 112.4C689.26 112.64 689.46 113.24 689.22 113.74C689.05 114.11 688.66 114.35 688.27 114.35ZM981.89 110.16C981.52 110.16 981.17 109.95 980.99 109.6C980.75 109.11 980.92 108.47 981.41 108.22C981.89 107.97 982.47 108.11 982.73 108.6C982.73 108.6 982.79 108.71 982.79 108.72C983.03 109.22 982.83 109.82 982.33 110.06C982.19 110.13 982.04 110.16 981.89 110.16ZM691.92 107.12C691.77 107.12 691.62 107.08 691.47 107.01C690.99 106.75 690.78 106.19 691.04 105.7L691.09 105.6C691.36 105.12 691.96 104.94 692.45 105.21C692.93 105.48 693.11 106.08 692.84 106.57C692.65 106.91 692.28 107.12 691.91 107.12H691.92ZM978.02 103.08C977.68 103.08 977.34 102.9 977.16 102.59L977.11 102.5C976.83 102.02 977 101.41 977.48 101.13C977.96 100.85 978.57 101.02 978.85 101.5L977.98 102L978.89 101.58C979.17 102.06 979.01 102.67 978.53 102.95C978.37 103.04 978.2 103.09 978.03 103.09L978.02 103.08ZM695.93 100.1C695.76 100.1 695.59 100.06 695.44 99.97C694.97 99.68 694.79 99.1099 695.08 98.6399L695.13 98.55C695.42 98.08 696.03 97.93 696.5 98.22C696.97 98.51 697.12 99.1201 696.83 99.5901C696.64 99.9101 696.28 100.1 695.92 100.1H695.93ZM973.81 96.2C973.49 96.2 973.17 96.04 972.98 95.75C972.98 95.75 972.92 95.6499 972.91 95.6499C972.62 95.1799 972.75 94.57 973.22 94.27C973.69 93.98 974.3 94.1101 974.6 94.5801L973.75 95.1101L974.64 94.6399C974.95 95.0999 974.82 95.72 974.36 96.03C974.19 96.14 974 96.2 973.81 96.2ZM700.29 93.28C700.11 93.28 699.92 93.2301 699.76 93.1201C699.3 92.8101 699.15 92.24 699.46 91.78L699.52 91.6899C699.83 91.2299 700.45 91.1099 700.91 91.4199C701.37 91.7299 701.49 92.3501 701.18 92.8101C700.98 93.1101 700.64 93.28 700.29 93.28ZM969.26 89.53C968.95 89.53 968.64 89.3801 968.45 89.1101C968.12 88.6601 968.2 87.9999 968.64 87.6799C969.09 87.3499 969.68 87.4201 970.01 87.8601L970.07 87.95C970.39 88.3999 970.29 89.0201 969.84 89.3501C969.66 89.4801 969.46 89.54 969.26 89.54V89.53ZM704.97 86.7C704.77 86.7 704.57 86.64 704.4 86.51C703.96 86.18 703.84 85.5899 704.17 85.1499L704.24 85.0601C704.57 84.6201 705.2 84.5301 705.64 84.8701C706.08 85.2001 706.17 85.83 705.83 86.27C705.63 86.54 705.3 86.7 704.98 86.7H704.97ZM964.38 83.0901C964.09 83.0901 963.8 82.96 963.6 82.72L963.53 82.6299C963.19 82.1999 963.26 81.57 963.69 81.23C964.12 80.89 964.75 80.9599 965.1 81.3899L965.15 81.46C965.5 81.89 965.43 82.5201 965.01 82.8701C964.82 83.0201 964.6 83.0901 964.38 83.0901ZM709.97 80.3999C709.75 80.3999 709.52 80.3199 709.33 80.1699C708.9 79.8199 708.84 79.19 709.2 78.76L709.22 78.73C709.57 78.31 710.22 78.2201 710.64 78.5701C711.06 78.9201 711.15 79.52 710.8 79.95L710.73 80.03C710.53 80.27 710.25 80.3899 709.96 80.3899L709.97 80.3999ZM959.17 76.8899C958.91 76.8899 958.65 76.7801 958.46 76.5701C958.09 76.1601 958.09 75.4901 958.5 75.1201C958.91 74.7501 959.51 74.7399 959.88 75.1599C959.88 75.1599 959.92 75.2 959.92 75.21C960.28 75.62 960.26 76.2699 959.85 76.6399C959.65 76.8099 959.41 76.8999 959.17 76.8999V76.8899ZM715.28 74.3101C715.04 74.3101 714.8 74.22 714.6 74.05C714.19 73.68 714.17 73.0399 714.54 72.6399L715.28 73.3201L714.6 72.5801C714.97 72.1701 715.6 72.14 716.01 72.51C716.42 72.88 716.45 73.5099 716.08 73.9199L716.01 74C715.81 74.21 715.54 74.3201 715.27 74.3201L715.28 74.3101ZM953.71 70.97C953.44 70.97 953.18 70.8599 952.98 70.6499C952.6 70.2499 952.59 69.59 952.98 69.21C953.38 68.83 953.97 68.7999 954.35 69.2C954.35 69.2 954.43 69.28 954.43 69.29C954.81 69.69 954.79 70.33 954.39 70.7C954.2 70.88 953.95 70.97 953.71 70.97ZM720.9 68.4399C720.65 68.4399 720.39 68.3499 720.21 68.1599C719.82 67.7699 719.79 67.17 720.18 66.78L720.26 66.7C720.65 66.31 721.29 66.32 721.67 66.71C722.06 67.1 722.05 67.7401 721.66 68.1201C721.46 68.3201 721.18 68.4199 720.91 68.4199L720.9 68.4399ZM947.94 65.3201C947.69 65.3201 947.45 65.23 947.26 65.05C946.86 64.67 946.8 64.0101 947.18 63.6101C947.56 63.2101 948.15 63.15 948.55 63.52C948.55 63.52 948.63 63.5901 948.63 63.6001C949.03 63.9801 949.05 64.61 948.67 65.01C948.47 65.22 948.21 65.3201 947.94 65.3201ZM726.77 62.96C726.49 62.96 726.22 62.8501 726.02 62.6201C725.65 62.2101 725.69 61.57 726.11 61.21L726.77 61.96L726.17 61.1599C726.58 60.7899 727.21 60.81 727.58 61.22C727.95 61.63 727.93 62.2599 727.52 62.6299C727.52 62.6299 727.44 62.71 727.43 62.71C727.24 62.88 727 62.96 726.77 62.96ZM941.9 59.95C941.67 59.95 941.44 59.87 941.26 59.71C940.84 59.35 940.75 58.69 941.1 58.27C941.46 57.85 942.05 57.7601 942.47 58.1201L942.55 58.1799C942.97 58.5399 943.02 59.1701 942.67 59.5901C942.47 59.8201 942.19 59.9399 941.91 59.9399L941.9 59.95ZM732.94 57.6699C732.65 57.6699 732.36 57.5501 732.17 57.3201C731.82 56.8901 731.85 56.2899 732.28 55.9399L732.36 55.8799C732.79 55.5299 733.42 55.6 733.77 56.03C734.12 56.46 734.05 57.0899 733.62 57.4399C733.43 57.5999 733.18 57.6799 732.94 57.6799V57.6699ZM935.6 54.8799C935.39 54.8799 935.17 54.8099 934.99 54.6699C934.56 54.3299 934.44 53.68 934.77 53.24C935.1 52.81 935.69 52.69 936.13 53.02L936.22 53.0901C936.66 53.4301 936.73 54.06 936.39 54.49C936.19 54.74 935.9 54.8799 935.6 54.8799ZM739.31 52.79C739 52.79 738.7 52.6499 738.5 52.3799C738.17 51.9299 738.27 51.31 738.72 50.98L739.31 51.79L738.79 50.9299C739.23 50.5999 739.86 50.6899 740.19 51.1299C740.52 51.5699 740.43 52.2 739.99 52.53C739.99 52.53 739.9 52.5901 739.9 52.6001C739.72 52.7301 739.52 52.79 739.31 52.79ZM929.06 50.1299C928.87 50.1299 928.67 50.07 928.5 49.96L928.41 49.8999C927.96 49.5799 927.85 48.96 928.16 48.51C928.48 48.06 929.1 47.94 929.55 48.26L928.98 49.0801L929.62 48.3101C930.08 48.6201 930.2 49.24 929.89 49.7C929.7 49.99 929.38 50.1399 929.06 50.1399V50.1299ZM745.94 48.1799C745.61 48.1799 745.29 48.02 745.1 47.72C744.8 47.26 744.93 46.6401 745.39 46.3401L745.93 47.1799L745.45 46.3C745.91 45.99 746.53 46.1101 746.84 46.5701C747.15 47.0301 747.03 47.65 746.57 47.96C746.57 47.96 746.48 48.02 746.47 48.03C746.3 48.14 746.11 48.1899 745.93 48.1899L745.94 48.1799ZM922.29 45.71C922.11 45.71 921.93 45.6601 921.76 45.5601C921.29 45.2701 921.1 44.6299 921.39 44.1599C921.68 43.6899 922.26 43.5201 922.72 43.8101L922.8 43.8601C923.27 44.1501 923.41 44.77 923.12 45.24C922.93 45.55 922.6 45.71 922.27 45.71H922.29ZM752.84 43.8601C752.49 43.8601 752.15 43.6999 751.97 43.3899C751.69 42.9199 751.8 42.33 752.27 42.05C752.27 42.05 752.36 42 752.37 41.99C752.85 41.71 753.46 41.8701 753.74 42.3501C754.02 42.8301 753.86 43.44 753.38 43.72C753.21 43.82 753.03 43.8601 752.84 43.8601ZM915.31 41.6201C915.15 41.6201 914.98 41.58 914.83 41.5L914.74 41.45C914.26 41.18 914.08 40.5801 914.35 40.0901C914.62 39.6101 915.23 39.43 915.71 39.7L915.8 39.75C916.28 40.02 916.46 40.6201 916.19 41.1101C916.01 41.4401 915.67 41.6299 915.31 41.6299V41.6201ZM759.89 39.9299C759.52 39.9299 759.16 39.7499 758.99 39.4099C758.73 38.9199 758.88 38.3501 759.36 38.0901L759.46 38.04C759.95 37.79 760.55 37.98 760.81 38.47C761.06 38.96 760.87 39.5601 760.38 39.8201C760.23 39.9001 760.06 39.9399 759.89 39.9399V39.9299ZM908.13 37.8799C907.98 37.8799 907.83 37.85 907.68 37.77C907.18 37.53 906.94 36.9099 907.18 36.4199C907.42 35.9199 907.98 35.6999 908.48 35.9399L908.58 35.99C909.07 36.24 909.27 36.8401 909.03 37.3301C908.85 37.6801 908.5 37.8799 908.13 37.8799ZM767.13 36.3501C766.75 36.3501 766.37 36.15 766.2 35.79C765.97 35.29 766.14 34.72 766.64 34.48C766.64 34.48 766.73 34.4399 766.74 34.4399C767.24 34.2099 767.84 34.4299 768.07 34.9299C768.3 35.4299 768.08 36.03 767.58 36.26C767.44 36.32 767.29 36.3601 767.14 36.3601L767.13 36.3501ZM900.78 34.5C900.65 34.5 900.52 34.4699 900.39 34.4199L900.29 34.3799C899.78 34.1599 899.55 33.5701 899.77 33.0601C899.99 32.5501 900.58 32.32 901.09 32.54L900.69 33.46L901.17 32.5801C901.68 32.7901 901.92 33.3799 901.7 33.8899C901.54 34.2699 901.17 34.5 900.78 34.5ZM774.47 33.1699C774.07 33.1699 773.7 32.93 773.54 32.54C773.34 32.03 773.59 31.45 774.1 31.24L774.47 32.1699L774.18 31.21C774.69 31 775.27 31.24 775.49 31.75C775.71 32.26 775.46 32.8501 774.95 33.0601L774.85 33.1001C774.73 33.1501 774.6 33.1699 774.48 33.1699H774.47ZM893.27 31.49C893.16 31.49 893.04 31.4699 892.93 31.4299C892.93 31.4299 892.83 31.3899 892.82 31.3899C892.3 31.1999 892.04 30.6201 892.24 30.1001C892.43 29.5801 893.01 29.32 893.53 29.51L893.18 30.45L893.61 29.54C894.13 29.73 894.4 30.3001 894.21 30.8201C894.06 31.2301 893.68 31.48 893.27 31.48V31.49ZM782.02 30.3201C781.6 30.3201 781.22 30.0599 781.07 29.6399C780.89 29.1199 781.17 28.5501 781.69 28.3701L782.02 29.3201L781.78 28.3501C782.3 28.1601 782.87 28.43 783.06 28.95C783.25 29.47 782.98 30.04 782.46 30.23C782.46 30.23 782.36 30.27 782.35 30.27C782.24 30.31 782.13 30.3201 782.02 30.3201ZM885.63 28.8601C885.53 28.8601 885.43 28.8401 885.33 28.8101C884.8 28.6401 884.47 28.07 884.63 27.54C884.8 27.02 885.31 26.7101 885.83 26.8701L885.93 26.8999C886.46 27.0699 886.75 27.6299 886.58 28.1599C886.44 28.5899 886.05 28.8601 885.63 28.8601ZM789.69 27.8501C789.26 27.8501 788.86 27.5699 788.73 27.1299C788.58 26.5999 788.88 26.0399 789.41 25.8899L789.69 26.8501L789.5 25.8601C790.03 25.7001 790.59 26 790.75 26.53C790.91 27.06 790.61 27.62 790.08 27.78L789.98 27.8101C789.89 27.8401 789.79 27.8501 789.7 27.8501H789.69ZM877.87 26.6201C877.78 26.6201 877.69 26.6101 877.61 26.5801C877.08 26.4401 876.72 25.8801 876.86 25.3501C877 24.8201 877.49 24.4899 878.03 24.6299L878.14 24.6599C878.67 24.8099 878.99 25.3599 878.84 25.8899C878.72 26.3299 878.32 26.6299 877.88 26.6299L877.87 26.6201ZM797.58 25.74C797.12 25.74 796.68 25.44 796.57 24.98C796.44 24.44 796.72 23.92 797.26 23.79L797.36 23.77C797.9 23.64 798.44 23.97 798.57 24.51C798.7 25.05 798.37 25.59 797.83 25.72C797.75 25.74 797.67 25.75 797.59 25.75L797.58 25.74ZM870.01 24.76C869.94 24.76 869.88 24.76 869.81 24.74L869.71 24.72C869.17 24.61 868.82 24.07 868.94 23.53C869.05 22.99 869.59 22.64 870.13 22.76L869.92 23.74L870.22 22.78C870.76 22.89 871.11 23.42 871 23.96C870.9 24.43 870.49 24.76 870.02 24.76H870.01ZM805.48 24.05C805 24.05 804.54 23.72 804.45 23.24C804.35 22.7 804.65 22.1901 805.19 22.0801L805.3 22.0601C805.84 21.9601 806.36 22.3301 806.46 22.8701C806.56 23.4101 806.2 23.93 805.65 24.03C805.59 24.04 805.53 24.05 805.47 24.05H805.48ZM862.07 23.29C862.07 23.29 861.97 23.29 861.92 23.28L861.81 23.26C861.27 23.17 860.89 22.6601 860.98 22.1101C861.07 21.5601 861.57 21.19 862.13 21.28L861.97 22.27L862.22 21.3C862.77 21.38 863.14 21.8899 863.06 22.4399C862.99 22.9399 862.56 23.29 862.07 23.29ZM813.36 22.76C812.87 22.76 812.44 22.3999 812.37 21.8899C812.3 21.3399 812.68 20.84 813.23 20.77L813.36 21.76L813.31 20.76C813.85 20.68 814.36 21.0601 814.44 21.6001C814.52 22.1501 814.14 22.65 813.6 22.73L813.49 22.75C813.44 22.75 813.4 22.75 813.36 22.75V22.76ZM854.07 22.21C854.07 22.21 853.99 22.21 853.95 22.21C853.4 22.15 852.96 21.6601 853.02 21.1101C853.08 20.5601 853.54 20.16 854.07 20.21H854.18C854.73 20.29 855.12 20.7801 855.06 21.3301C855 21.8401 854.57 22.21 854.07 22.21ZM821.39 21.8501C820.88 21.8501 820.44 21.4599 820.39 20.9399C820.34 20.3899 820.75 19.9001 821.3 19.8601L821.39 20.8601V19.8601C821.95 19.8101 822.44 20.22 822.49 20.77C822.54 21.32 822.13 21.8101 821.58 21.8601H821.48C821.45 21.8601 821.42 21.8601 821.39 21.8601V21.8501ZM846.02 21.53C846.02 21.53 845.98 21.53 845.96 21.53C845.91 21.53 845.85 21.52 845.8 21.51C845.75 21.51 845.7 21.51 845.65 21.51C845.1 21.48 844.63 21 844.66 20.45C844.69 19.9 845.12 19.46 845.67 19.51H845.77C845.77 19.51 845.84 19.52 845.88 19.53C845.91 19.53 845.95 19.53 845.98 19.53H846.08C846.63 19.57 847.05 20.0401 847.02 20.5901C846.99 21.1201 846.55 21.53 846.02 21.53ZM829.55 21.3401C829.01 21.3401 828.52 20.9199 828.5 20.3799C828.48 19.8299 828.86 19.3701 829.41 19.3501H829.52C830.07 19.3201 830.53 19.7701 830.55 20.3201C830.57 20.8701 830.13 21.3301 829.58 21.3501C829.57 21.3501 829.56 21.3501 829.55 21.3501V21.3401ZM837.63 21.23H837.52C836.97 21.23 836.53 20.77 836.53 20.22C836.53 19.67 836.98 19.23 837.53 19.23H837.55V20.23L837.63 19.23C838.18 19.23 838.63 19.68 838.63 20.23C838.63 20.78 838.18 21.23 837.63 21.23Z" fill="url(#paint14_linear_0_1)"/>
<path d="M1392.5 615.5H1023.5V1107.5H1392.5V615.5Z" fill="url(#paint15_linear_0_1)"/>
<mask id="mask0_0_1" style="mask-type:luminance" maskUnits="userSpaceOnUse" x="1023" y="615" width="370" height="493">
<path d="M1392.5 615.5H1023.5V1107.5H1392.5V615.5Z" fill="white"/>
</mask>
<g mask="url(#mask0_0_1)">
<path d="M1363.36 817.63L1398.8 794.91C1411.05 787.06 1427.4 791.44 1434.08 804.36L1453.41 841.76C1457.84 850.33 1466.86 855.54 1476.5 855.09L1518.55 853.13C1533.08 852.45 1545.05 864.42 1544.38 878.96L1542.42 921.01C1541.97 930.65 1547.18 939.67 1555.75 944.1L1593.15 963.43C1606.08 970.11 1610.46 986.46 1602.6 998.71L1579.88 1034.15C1574.67 1042.28 1574.67 1052.69 1579.88 1060.82L1602.6 1096.26C1610.45 1108.51 1606.07 1124.86 1593.15 1131.54L1555.75 1150.87C1547.18 1155.3 1541.97 1164.32 1542.42 1173.96L1544.38 1216.01C1545.06 1230.54 1533.09 1242.51 1518.55 1241.84L1476.5 1239.88C1466.86 1239.43 1457.84 1244.64 1453.41 1253.21L1434.08 1290.61C1427.4 1303.54 1411.05 1307.92 1398.8 1300.06L1363.36 1277.34C1355.23 1272.13 1344.82 1272.13 1336.69 1277.34L1301.25 1300.06C1289 1307.91 1272.65 1303.53 1265.97 1290.61L1246.64 1253.21C1242.21 1244.64 1233.19 1239.43 1223.55 1239.88L1181.5 1241.84C1166.97 1242.52 1155 1230.55 1155.67 1216.01L1157.63 1173.96C1158.08 1164.32 1152.87 1155.3 1144.3 1150.87L1106.9 1131.54C1093.97 1124.86 1089.59 1108.51 1097.45 1096.26L1120.17 1060.82C1125.38 1052.69 1125.38 1042.28 1120.17 1034.15L1097.45 998.71C1089.6 986.46 1093.98 970.11 1106.9 963.43L1144.3 944.1C1152.87 939.67 1158.08 930.65 1157.63 921.01L1155.67 878.96C1154.99 864.43 1166.96 852.46 1181.5 853.13L1223.55 855.09C1233.19 855.54 1242.21 850.33 1246.64 841.76L1265.97 804.36C1272.65 791.43 1289 787.05 1301.25 794.91L1336.69 817.63C1344.82 822.84 1355.23 822.84 1363.36 817.63Z" fill="url(#paint16_linear_0_1)"/>
<path d="M1350.03 1176.19C1421.1 1176.19 1478.72 1118.57 1478.72 1047.5C1478.72 976.426 1421.1 918.81 1350.03 918.81C1278.96 918.81 1221.34 976.426 1221.34 1047.5C1221.34 1118.57 1278.96 1176.19 1350.03 1176.19Z" fill="#080808"/>
</g>
<path d="M1067.5 779C1076.61 779 1084 771.613 1084 762.5C1084 753.387 1076.61 746 1067.5 746C1058.39 746 1051 753.387 1051 762.5C1051 771.613 1058.39 779 1067.5 779Z" fill="url(#paint17_linear_0_1)"/>
<path d="M1287 739C1293.08 739 1298 734.075 1298 728C1298 721.925 1293.08 717 1287 717C1280.92 717 1276 721.925 1276 728C1276 734.075 1280.92 739 1287 739Z" fill="url(#paint18_linear_0_1)"/>
<path d="M1187 674C1193.08 674 1198 669.075 1198 663C1198 656.925 1193.08 652 1187 652C1180.92 652 1176 656.925 1176 663C1176 669.075 1180.92 674 1187 674Z" fill="#0F19EF"/>
<path d="M1076.57 898.79H1061.57C1060.74 898.79 1060.07 899.462 1060.07 900.29C1060.07 901.118 1060.74 901.79 1061.57 901.79H1076.57C1077.4 901.79 1078.07 901.118 1078.07 900.29C1078.07 899.462 1077.4 898.79 1076.57 898.79Z" fill="white"/>
<path d="M1070.57 907.79V892.79C1070.57 891.962 1069.9 891.29 1069.07 891.29C1068.24 891.29 1067.57 891.962 1067.57 892.79V907.79C1067.57 908.618 1068.24 909.29 1069.07 909.29C1069.9 909.29 1070.57 908.618 1070.57 907.79Z" fill="white"/>
<path d="M1343.57 639.79H1328.57C1327.74 639.79 1327.07 640.462 1327.07 641.29C1327.07 642.118 1327.74 642.79 1328.57 642.79H1343.57C1344.4 642.79 1345.07 642.118 1345.07 641.29C1345.07 640.462 1344.4 639.79 1343.57 639.79Z" fill="white"/>
<path d="M1337.57 648.79V633.79C1337.57 632.962 1336.9 632.29 1336.07 632.29C1335.24 632.29 1334.57 632.962 1334.57 633.79V648.79C1334.57 649.618 1335.24 650.29 1336.07 650.29C1336.9 650.29 1337.57 649.618 1337.57 648.79Z" fill="white"/>
<path d="M1100.57 661.79H1085.57C1084.74 661.79 1084.07 662.462 1084.07 663.29C1084.07 664.118 1084.74 664.79 1085.57 664.79H1100.57C1101.4 664.79 1102.07 664.118 1102.07 663.29C1102.07 662.462 1101.4 661.79 1100.57 661.79Z" fill="white"/>
<path d="M1094.57 670.79V655.79C1094.57 654.962 1093.9 654.29 1093.07 654.29C1092.24 654.29 1091.57 654.962 1091.57 655.79V670.79C1091.57 671.618 1092.24 672.29 1093.07 672.29C1093.9 672.29 1094.57 671.618 1094.57 670.79Z" fill="white"/>
<path d="M1188.57 797.79H1173.57C1172.74 797.79 1172.07 798.462 1172.07 799.29C1172.07 800.118 1172.74 800.79 1173.57 800.79H1188.57C1189.4 800.79 1190.07 800.118 1190.07 799.29C1190.07 798.462 1189.4 797.79 1188.57 797.79Z" fill="white"/>
<path d="M1182.57 806.79V791.79C1182.57 790.962 1181.9 790.29 1181.07 790.29C1180.24 790.29 1179.57 790.962 1179.57 791.79V806.79C1179.57 807.618 1180.24 808.29 1181.07 808.29C1181.9 808.29 1182.57 807.618 1182.57 806.79Z" fill="white"/>
<path d="M1024 862H284V1109H1024V862Z" fill="#080808"/>
<mask id="mask1_0_1" style="mask-type:luminance" maskUnits="userSpaceOnUse" x="0" y="862" width="1046" height="247">
<path d="M1045.23 862H0.769531V1109H1045.23V862Z" fill="white"/>
</mask>
<g mask="url(#mask1_0_1)">
<path d="M848.919 856.8C848.919 853.44 846.189 850.71 842.829 850.71C839.469 850.71 836.739 853.44 836.739 856.8C836.739 934.06 772.839 996.91 694.309 996.91H442.569C379.189 996.91 327.619 1048.2 327.619 1111.23C327.619 1114.59 330.349 1117.32 333.709 1117.32C337.069 1117.32 339.799 1114.59 339.799 1111.23C339.799 1054.91 385.899 1009.09 442.569 1009.09C442.569 1009.09 695.539 1009.08 695.659 1009.07C780.299 1008.35 848.929 940.32 848.929 856.79L848.919 856.8Z" fill="#02FAE4"/>
<path d="M881.019 856.8C881.019 853.44 878.289 850.71 874.929 850.71C871.569 850.71 868.839 853.44 868.839 856.8C868.839 952.53 789.679 1030.41 692.369 1030.41C692.089 1030.41 441.269 1030.47 441.269 1030.47C396.319 1030.47 359.759 1066.76 359.759 1111.37C359.759 1114.73 362.489 1117.46 365.849 1117.46C369.209 1117.46 371.939 1114.73 371.939 1111.37C371.939 1073.48 403.039 1042.65 441.269 1042.65C441.269 1042.65 692.869 1042.62 693.159 1042.58C796.819 1042.16 881.019 958.98 881.019 856.79V856.8Z" fill="#02FAE4"/>
<path d="M909.16 850.71C905.8 850.71 903.069 853.44 903.069 856.8C903.069 971.32 808.629 1064.54 692.349 1065.04C691.999 1064.98 436.339 1064.72 436.339 1064.72C412.059 1064.72 392.31 1085.55 392.31 1111.15C392.31 1114.51 395.04 1117.24 398.4 1117.24C401.76 1117.24 404.49 1114.51 404.49 1111.15C404.49 1092.26 418.779 1076.9 436.329 1076.9C436.329 1076.9 691.01 1077.23 691.41 1077.23C814.83 1077.23 915.25 978.34 915.25 856.8C915.25 853.44 912.52 850.71 909.16 850.71Z" fill="#02FAE4"/>
</g>
<path d="M287.22 917H612.5C622.16 917 630 924.84 630 934.5C630 944.16 622.16 952 612.5 952H287.22C285.44 952 284 950.56 284 948.78V920.22C284 918.44 285.44 917 287.22 917Z" fill="url(#paint19_linear_0_1)"/>
<path d="M683.539 963.28C699.809 963.28 712.999 950.09 712.999 933.82C712.999 917.55 699.809 904.36 683.539 904.36C667.269 904.36 654.079 917.55 654.079 933.82C654.079 950.09 667.269 963.28 683.539 963.28Z" fill="url(#paint20_linear_0_1)"/>
<path d="M683.539 950.74C692.884 950.74 700.459 943.164 700.459 933.82C700.459 924.475 692.884 916.9 683.539 916.9C674.195 916.9 666.619 924.475 666.619 933.82C666.619 943.164 674.195 950.74 683.539 950.74Z" fill="#080808"/>
<path d="M671.649 932.53C676.062 932.53 679.639 928.953 679.639 924.54C679.639 920.127 676.062 916.55 671.649 916.55C667.236 916.55 663.659 920.127 663.659 924.54C663.659 928.953 667.236 932.53 671.649 932.53Z" fill="white"/>
<path d="M909.849 1075.95C920.586 1075.95 929.289 1067.25 929.289 1056.51C929.289 1045.77 920.586 1037.07 909.849 1037.07C899.113 1037.07 890.409 1045.77 890.409 1056.51C890.409 1067.25 899.113 1075.95 909.849 1075.95Z" fill="url(#paint21_linear_0_1)"/>
<path d="M909.85 1066.56C915.4 1066.56 919.9 1062.06 919.9 1056.51C919.9 1050.96 915.4 1046.46 909.85 1046.46C904.299 1046.46 899.8 1050.96 899.8 1056.51C899.8 1062.06 904.299 1066.56 909.85 1066.56Z" fill="#080808"/>
<path d="M964.559 1075.95C975.296 1075.95 983.999 1067.25 983.999 1056.51C983.999 1045.77 975.296 1037.07 964.559 1037.07C953.823 1037.07 945.119 1045.77 945.119 1056.51C945.119 1067.25 953.823 1075.95 964.559 1075.95Z" fill="url(#paint22_linear_0_1)"/>
<path d="M964.56 1066.56C970.11 1066.56 974.61 1062.06 974.61 1056.51C974.61 1050.96 970.11 1046.46 964.56 1046.46C959.009 1046.46 954.51 1050.96 954.51 1056.51C954.51 1062.06 959.009 1066.56 964.56 1066.56Z" fill="#080808"/>
<path d="M1393 148H1023V617H1393V148Z" fill="#0F19EF"/>
<path d="M1152.79 350.95C1160.43 350.95 1166.63 357.08 1166.63 364.63V490.31C1166.63 499.05 1163.9 507.15 1159.23 513.83C1151.67 524.68 1139.02 531.8 1124.67 531.8C1101.86 531.8 1082.88 513.8 1082.31 491.38V491.32C1082.3 491.1 1082.3 490.87 1082.3 490.66V490.52C1082.3 490.29 1082.31 490.05 1082.32 489.82C1082.79 482.65 1089.23 476.95 1096.61 476.97C1104.95 477 1111.7 470.25 1111.7 462V450.85C1115.78 449.53 1120.15 448.83 1124.67 448.83C1129.69 448.83 1134.49 449.7 1138.95 451.28V364.62C1138.95 357.06 1145.15 350.94 1152.79 350.94V350.95Z" fill="url(#paint23_linear_0_1)"/>
<path d="M1334 490.66C1334 490.88 1334 491.11 1333.99 491.33V491.39C1333.41 513.81 1314.43 531.81 1291.63 531.81C1277.28 531.81 1264.63 524.69 1257.07 513.84C1252.4 507.16 1249.67 499.06 1249.67 490.32V364.64C1249.67 357.08 1255.87 350.96 1263.51 350.96C1271.15 350.96 1277.35 357.09 1277.35 364.64V451.3C1281.81 449.72 1286.61 448.85 1291.63 448.85C1296.15 448.85 1300.52 449.55 1304.6 450.87V462.1C1304.6 470.43 1311.51 476.88 1319.94 477C1326.98 477.1 1333.11 482.38 1333.91 489.17C1333.93 489.31 1333.94 489.46 1333.96 489.6V489.64C1333.97 489.75 1333.98 489.86 1333.98 489.97C1333.99 490.2 1334 490.44 1334 490.67V490.66Z" fill="url(#paint24_linear_0_1)"/>
<path d="M1334 490.66C1333.99 498.23 1327.81 504.34 1320.16 504.34C1296.55 504.34 1277.34 485.35 1277.34 462V365C1277.34 361.22 1275.79 357.8 1273.29 355.32C1270.79 352.84 1267.32 351.32 1263.5 351.32C1255.85 351.32 1249.66 357.44 1249.66 365V571.99H1221.98V386.21H1194.3V571.99H1166.62V365C1166.62 357.44 1160.43 351.32 1152.78 351.32C1148.96 351.32 1145.49 352.85 1142.99 355.32C1140.49 357.8 1138.94 361.22 1138.94 365V462C1138.94 464.04 1138.79 466.05 1138.5 468.01C1135.54 488.52 1117.67 504.35 1096.12 504.35C1088.71 504.35 1082.68 498.6 1082.29 491.38V491.32C1082.28 491.1 1082.28 490.87 1082.28 490.66V490.52C1082.28 490.29 1082.29 490.05 1082.3 489.82C1082.31 489.6 1082.33 489.37 1082.36 489.15C1083.12 482.31 1088.98 476.97 1096.12 476.97C1104.47 476.97 1111.26 470.26 1111.26 462V310.48C1111.26 258.3 1154.63 215.99 1208.14 215.99C1261.65 215.99 1305.02 258.29 1305.02 310.48V462C1305.02 470.25 1311.81 476.97 1320.16 476.97C1327.29 476.97 1333.15 482.29 1333.91 489.14C1333.93 489.28 1333.94 489.43 1333.96 489.57V489.61C1333.97 489.72 1333.98 489.83 1333.98 489.94C1333.99 490.17 1334 490.41 1334 490.64V490.66Z" fill="url(#paint25_linear_0_1)"/>
<path d="M1221.99 300.87H1194.31V572H1221.99V300.87Z" fill="url(#paint26_linear_0_1)"/>
<path d="M1208.86 350.72C1234.48 350.72 1255.24 330.188 1255.24 304.86C1255.24 279.532 1234.48 259 1208.86 259C1183.25 259 1162.48 279.532 1162.48 304.86C1162.48 330.188 1183.25 350.72 1208.86 350.72Z" fill="url(#paint27_linear_0_1)"/>
<path d="M1208.86 330.31C1223.08 330.31 1234.6 318.916 1234.6 304.86C1234.6 290.804 1223.08 279.41 1208.86 279.41C1194.64 279.41 1183.12 290.804 1183.12 304.86C1183.12 318.916 1194.64 330.31 1208.86 330.31Z" fill="#080808"/>
<path d="M1208.86 315.53C1214.82 315.53 1219.65 310.753 1219.65 304.86C1219.65 298.967 1214.82 294.19 1208.86 294.19C1202.9 294.19 1198.07 298.967 1198.07 304.86C1198.07 310.753 1202.9 315.53 1208.86 315.53Z" fill="white"/>
<path d="M1393 1H1023V148H1393V1Z" fill="#02FAE4"/>
<path d="M1323.56 46.02H1307.14V43.8301C1307.14 26.9101 1293.42 13.1899 1276.5 13.1899C1259.58 13.1899 1245.86 26.9101 1245.86 43.8301V46.02H1229.44C1215.94 46.02 1205 56.96 1205 70.46C1205 83.96 1215.94 94.8999 1229.44 94.8999H1245.86V97.0901C1245.86 114.01 1259.58 127.73 1276.5 127.73C1293.42 127.73 1307.14 114.01 1307.14 97.0901V94.8999H1323.56C1337.06 94.8999 1348 83.96 1348 70.46C1348 56.96 1337.06 46.02 1323.56 46.02Z" fill="url(#paint28_linear_0_1)"/>
<path d="M1276.25 95C1289.48 95 1300.21 84.2728 1300.21 71.04C1300.21 57.8073 1289.48 47.0801 1276.25 47.0801C1263.02 47.0801 1252.29 57.8073 1252.29 71.04C1252.29 84.2728 1263.02 95 1276.25 95Z" fill="url(#paint29_linear_0_1)"/>
<path d="M1276.25 84.8C1283.85 84.8 1290.01 78.6395 1290.01 71.04C1290.01 63.4406 1283.85 57.28 1276.25 57.28C1268.65 57.28 1262.49 63.4406 1262.49 71.04C1262.49 78.6395 1268.65 84.8 1276.25 84.8Z" fill="#080808"/>
<path d="M1266.58 69.99C1270.17 69.99 1273.08 67.0798 1273.08 63.49C1273.08 59.9001 1270.17 56.99 1266.58 56.99C1262.99 56.99 1260.08 59.9001 1260.08 63.49C1260.08 67.0798 1262.99 69.99 1266.58 69.99Z" fill="white"/>
<path d="M1092 0H1079V148H1092V0Z" fill="url(#paint30_linear_0_1)"/>
<path d="M1105 0H1092V148H1105V0Z" fill="url(#paint31_linear_0_1)"/>
<path d="M1118 0H1105V148H1118V0Z" fill="url(#paint32_linear_0_1)"/>
<path d="M1131 0H1118V148H1131V0Z" fill="url(#paint33_linear_0_1)"/>
<path d="M1144 0H1131V148H1144V0Z" fill="url(#paint34_linear_0_1)"/>
<path d="M653.5 0.5H284.5V492.5H653.5V0.5Z" fill="url(#paint35_linear_0_1)"/>
<path d="M470.25 305.22C458.54 294.5 443.66 288.04 427.96 285.71C422.3 284.87 416.78 283.63 411.41 282.02C411.27 282.01 411.13 282.01 410.99 282.01V281.89C362.37 267.13 326.99 221.95 326.99 168.5C326.99 153.64 329.73 139.41 334.73 126.3C337.05 120.22 340.21 114.52 343.75 109.06C345.56 106.27 347.17 103.35 348.57 100.31C352.6 91.5801 354.89 81.8799 354.99 71.6499C355.34 32.7899 322.87 1 284.01 1H283.99V459H410.99C459.64 458.72 498.99 419.21 498.99 370.5C498.99 344.65 487.91 321.4 470.24 305.22H470.25Z" fill="url(#paint36_linear_0_1)"/>
<path d="M529.45 158.5C529.45 114.04 498.68 78 460.73 78C422.78 78 392.01 114.04 392.01 158.5C392.01 202.96 421.66 237.65 458.65 238.94V239H654.01V202.41H569.83C562.78 202.41 529.46 202.41 529.46 158.5H529.45Z" fill="url(#paint37_linear_0_1)"/>
<path d="M461.85 193C482.346 193 498.96 176.385 498.96 155.89C498.96 135.395 482.346 118.78 461.85 118.78C441.355 118.78 424.74 135.395 424.74 155.89C424.74 176.385 441.355 193 461.85 193Z" fill="#080808"/>
<path d="M461.851 177.19C473.614 177.19 483.151 167.654 483.151 155.89C483.151 144.126 473.614 134.59 461.851 134.59C450.087 134.59 440.551 144.126 440.551 155.89C440.551 167.654 450.087 177.19 461.851 177.19Z" fill="#02FAE4"/>
<path d="M414.98 424.87C443.688 424.87 466.96 401.598 466.96 372.89C466.96 344.182 443.688 320.91 414.98 320.91C386.272 320.91 363 344.182 363 372.89C363 401.598 386.272 424.87 414.98 424.87Z" fill="white"/>
<path d="M414.981 402.73C431.461 402.73 444.821 389.37 444.821 372.89C444.821 356.41 431.461 343.05 414.981 343.05C398.5 343.05 385.141 356.41 385.141 372.89C385.141 389.37 398.5 402.73 414.981 402.73Z" fill="#080808"/>
<path d="M586.77 328.52C594.76 325.93 603.45 329.53 607.27 337.01C608.91 340.22 611.51 342.82 614.72 344.46C622.2 348.28 625.8 356.97 623.21 364.96C622.1 368.38 622.1 372.07 623.21 375.49C625.8 383.48 622.2 392.17 614.72 395.99C611.51 397.63 608.91 400.23 607.27 403.44C603.45 410.92 594.76 414.52 586.77 411.93C583.35 410.82 579.66 410.82 576.24 411.93C568.25 414.52 559.56 410.92 555.74 403.44C554.1 400.23 551.5 397.63 548.29 395.99C540.81 392.17 537.21 383.48 539.8 375.49C540.91 372.07 540.91 368.38 539.8 364.96C537.21 356.97 540.81 348.28 548.29 344.46C551.5 342.82 554.1 340.22 555.74 337.01C559.56 329.53 568.25 325.93 576.24 328.52C579.66 329.63 583.35 329.63 586.77 328.52Z" fill="url(#paint38_linear_0_1)"/>
<path d="M581.5 396.3C595.903 396.3 607.58 384.624 607.58 370.22C607.58 355.816 595.903 344.14 581.5 344.14C567.096 344.14 555.42 355.816 555.42 370.22C555.42 384.624 567.096 396.3 581.5 396.3Z" fill="#0F19EF"/>
<path d="M581.5 384.14C589.188 384.14 595.42 377.908 595.42 370.22C595.42 362.532 589.188 356.3 581.5 356.3C573.812 356.3 567.58 362.532 567.58 370.22C567.58 377.908 573.812 384.14 581.5 384.14Z" fill="url(#paint39_linear_0_1)"/>
<path d="M598.901 132.41C611.659 132.41 622.001 122.068 622.001 109.31C622.001 96.5523 611.659 86.21 598.901 86.21C586.143 86.21 575.801 96.5523 575.801 109.31C575.801 122.068 586.143 132.41 598.901 132.41Z" fill="url(#paint40_linear_0_1)"/>
<path d="M598.9 121.26C605.5 121.26 610.85 115.91 610.85 109.31C610.85 102.71 605.5 97.3601 598.9 97.3601C592.3 97.3601 586.95 102.71 586.95 109.31C586.95 115.91 592.3 121.26 598.9 121.26Z" fill="#080808"/>
<defs>
<linearGradient id="paint0_linear_0_1" x1="838.46" y1="370.46" x2="838.46" y2="862" gradientUnits="userSpaceOnUse">
<stop stop-color="#02FAE4"/>
<stop offset="1" stop-color="#089BE9"/>
</linearGradient>
<linearGradient id="paint1_linear_0_1" x1="776" y1="588" x2="776" y2="677" gradientUnits="userSpaceOnUse">
<stop stop-color="#02FAE4"/>
<stop offset="1" stop-color="#0F19EF"/>
</linearGradient>
<linearGradient id="paint2_linear_0_1" x1="891" y1="639" x2="891" y2="728" gradientUnits="userSpaceOnUse">
<stop stop-color="#E930DE"/>
<stop offset="1" stop-color="#12007A"/>
</linearGradient>
<linearGradient id="paint3_linear_0_1" x1="836" y1="752" x2="836" y2="828" gradientUnits="userSpaceOnUse">
<stop stop-color="#0F19EF"/>
<stop offset="1" stop-color="#12007A"/>
</linearGradient>
<linearGradient id="paint4_linear_0_1" x1="838.02" y1="416.03" x2="838.02" y2="592" gradientUnits="userSpaceOnUse">
<stop stop-color="#E930DE"/>
<stop offset="1" stop-color="#12007A"/>
</linearGradient>
<linearGradient id="paint5_linear_0_1" x1="838.02" y1="440.78" x2="838.02" y2="567.26" gradientUnits="userSpaceOnUse">
<stop stop-color="white"/>
<stop offset="1" stop-color="#E930DE"/>
</linearGradient>
<linearGradient id="paint6_linear_0_1" x1="838.02" y1="447.07" x2="838.02" y2="560.97" gradientUnits="userSpaceOnUse">
<stop stop-color="#02FAE4"/>
<stop offset="1" stop-color="#01958A"/>
</linearGradient>
<linearGradient id="paint7_linear_0_1" x1="790.331" y1="383.03" x2="790.331" y2="429.24" gradientUnits="userSpaceOnUse">
<stop stop-color="white"/>
<stop offset="1" stop-color="#E930DE"/>
</linearGradient>
<linearGradient id="paint8_linear_0_1" x1="469.6" y1="566.49" x2="469.6" y2="783.82" gradientUnits="userSpaceOnUse">
<stop stop-color="#E930DE"/>
<stop offset="1" stop-color="#12007A"/>
</linearGradient>
<linearGradient id="paint9_linear_0_1" x1="469.6" y1="577.48" x2="469.6" y2="772.83" gradientUnits="userSpaceOnUse">
<stop stop-color="white"/>
<stop offset="1" stop-color="#E930DE"/>
</linearGradient>
<linearGradient id="paint10_linear_0_1" x1="469.6" y1="612.31" x2="469.6" y2="738" gradientUnits="userSpaceOnUse">
<stop stop-color="#02FAE4"/>
<stop offset="1" stop-color="#01958A"/>
</linearGradient>
<linearGradient id="paint11_linear_0_1" x1="837.66" y1="46.4299" x2="837.66" y2="316.19" gradientUnits="userSpaceOnUse">
<stop stop-color="#02FAE4"/>
<stop offset="1" stop-color="#01958A"/>
</linearGradient>
<linearGradient id="paint12_linear_0_1" x1="836.71" y1="66.2301" x2="836.71" y2="296.39" gradientUnits="userSpaceOnUse">
<stop stop-color="#E930DE"/>
<stop offset="1" stop-color="#12007A"/>
</linearGradient>
<linearGradient id="paint13_linear_0_1" x1="836.21" y1="118.61" x2="836.21" y2="248" gradientUnits="userSpaceOnUse">
<stop stop-color="#D9FFF9"/>
<stop offset="1" stop-color="#02FAE4"/>
</linearGradient>
<linearGradient id="paint14_linear_0_1" x1="671.96" y1="173.3" x2="1000.56" y2="193.17" gradientUnits="userSpaceOnUse">
<stop stop-color="#D9FFF9"/>
<stop offset="1" stop-color="#02FAE4"/>
</linearGradient>
<linearGradient id="paint15_linear_0_1" x1="1423.25" y1="1076.75" x2="992.75" y2="646.25" gradientUnits="userSpaceOnUse">
<stop offset="0.37" stop-color="#02FAE4"/>
<stop offset="1" stop-color="#01958A"/>
</linearGradient>
<linearGradient id="paint16_linear_0_1" x1="1350.03" y1="791" x2="1350.03" y2="1304" gradientUnits="userSpaceOnUse">
<stop stop-color="#E930DE"/>
<stop offset="0.6" stop-color="#12007A"/>
</linearGradient>
<linearGradient id="paint17_linear_0_1" x1="1067.5" y1="746" x2="1067.5" y2="779" gradientUnits="userSpaceOnUse">
<stop stop-color="#E930DE"/>
<stop offset="1" stop-color="#12007A"/>
</linearGradient>
<linearGradient id="paint18_linear_0_1" x1="1287" y1="717" x2="1287" y2="739" gradientUnits="userSpaceOnUse">
<stop stop-color="#E930DE"/>
<stop offset="1" stop-color="#12007A"/>
</linearGradient>
<linearGradient id="paint19_linear_0_1" x1="630" y1="934.5" x2="284" y2="934.5" gradientUnits="userSpaceOnUse">
<stop stop-color="#E930DE"/>
<stop offset="1" stop-color="#12007A"/>
</linearGradient>
<linearGradient id="paint20_linear_0_1" x1="683.539" y1="904.36" x2="683.539" y2="963.28" gradientUnits="userSpaceOnUse">
<stop stop-color="#02FAE4"/>
<stop offset="1" stop-color="#01958A"/>
</linearGradient>
<linearGradient id="paint21_linear_0_1" x1="909.849" y1="1037.07" x2="909.849" y2="1075.96" gradientUnits="userSpaceOnUse">
<stop stop-color="white"/>
<stop offset="1" stop-color="#E930DE"/>
</linearGradient>
<linearGradient id="paint22_linear_0_1" x1="964.559" y1="1037.07" x2="964.559" y2="1075.96" gradientUnits="userSpaceOnUse">
<stop stop-color="white"/>
<stop offset="1" stop-color="#E930DE"/>
</linearGradient>
<linearGradient id="paint23_linear_0_1" x1="1124.46" y1="350.95" x2="1124.46" y2="531.8" gradientUnits="userSpaceOnUse">
<stop stop-color="#E930DE"/>
<stop offset="1" stop-color="#12007A"/>
</linearGradient>
<linearGradient id="paint24_linear_0_1" x1="1291.83" y1="350.95" x2="1291.83" y2="531.8" gradientUnits="userSpaceOnUse">
<stop stop-color="#E930DE"/>
<stop offset="1" stop-color="#12007A"/>
</linearGradient>
<linearGradient id="paint25_linear_0_1" x1="1208.15" y1="216" x2="1208.15" y2="572" gradientUnits="userSpaceOnUse">
<stop offset="0.38" stop-color="#02FAE4"/>
<stop offset="0.75" stop-color="#01958A"/>
<stop offset="1" stop-color="#0F19EF"/>
</linearGradient>
<linearGradient id="paint26_linear_0_1" x1="1208.15" y1="300.87" x2="1208.15" y2="572" gradientUnits="userSpaceOnUse">
<stop stop-color="#080808"/>
<stop offset="1" stop-color="#0F19EF"/>
</linearGradient>
<linearGradient id="paint27_linear_0_1" x1="1208.86" y1="259" x2="1208.86" y2="350.71" gradientUnits="userSpaceOnUse">
<stop offset="0.26" stop-color="white"/>
<stop offset="1" stop-color="#E930DE"/>
</linearGradient>
<linearGradient id="paint28_linear_0_1" x1="1276.5" y1="13.1899" x2="1276.5" y2="127.73" gradientUnits="userSpaceOnUse">
<stop stop-color="#E930DE"/>
<stop offset="1" stop-color="#12007A"/>
</linearGradient>
<linearGradient id="paint29_linear_0_1" x1="1276.25" y1="47.0801" x2="1276.25" y2="95" gradientUnits="userSpaceOnUse">
<stop stop-color="#02FAE4"/>
<stop offset="1" stop-color="#01958A"/>
</linearGradient>
<linearGradient id="paint30_linear_0_1" x1="1085.5" y1="0" x2="1085.5" y2="148" gradientUnits="userSpaceOnUse">
<stop stop-color="#E930DE"/>
<stop offset="1" stop-color="#12007A"/>
</linearGradient>
<linearGradient id="paint31_linear_0_1" x1="1098.5" y1="0" x2="1098.5" y2="148" gradientUnits="userSpaceOnUse">
<stop stop-color="#D9FFF9"/>
<stop offset="1" stop-color="#02FAE4"/>
</linearGradient>
<linearGradient id="paint32_linear_0_1" x1="1111.5" y1="0" x2="1111.5" y2="148" gradientUnits="userSpaceOnUse">
<stop stop-color="#E930DE"/>
<stop offset="1" stop-color="#12007A"/>
</linearGradient>
<linearGradient id="paint33_linear_0_1" x1="1124.5" y1="0" x2="1124.5" y2="148" gradientUnits="userSpaceOnUse">
<stop stop-color="#D9FFF9"/>
<stop offset="1" stop-color="#02FAE4"/>
</linearGradient>
<linearGradient id="paint34_linear_0_1" x1="1137.5" y1="0" x2="1137.5" y2="148" gradientUnits="userSpaceOnUse">
<stop stop-color="#E930DE"/>
<stop offset="1" stop-color="#12007A"/>
</linearGradient>
<linearGradient id="paint35_linear_0_1" x1="469" y1="0.5" x2="469" y2="492.5" gradientUnits="userSpaceOnUse">
<stop stop-color="#02FAE4"/>
<stop offset="1" stop-color="#01958A"/>
</linearGradient>
<linearGradient id="paint36_linear_0_1" x1="391.5" y1="1" x2="391.5" y2="459" gradientUnits="userSpaceOnUse">
<stop stop-color="#E930DE"/>
<stop offset="1" stop-color="#12007A"/>
</linearGradient>
<linearGradient id="paint37_linear_0_1" x1="523" y1="78" x2="523" y2="239" gradientUnits="userSpaceOnUse">
<stop stop-color="#E930DE"/>
<stop offset="1" stop-color="#12007A"/>
</linearGradient>
<linearGradient id="paint38_linear_0_1" x1="581.5" y1="327.68" x2="581.5" y2="412.76" gradientUnits="userSpaceOnUse">
<stop stop-color="white"/>
<stop offset="1" stop-color="#01958A"/>
</linearGradient>
<linearGradient id="paint39_linear_0_1" x1="581.5" y1="356.31" x2="581.5" y2="384.14" gradientUnits="userSpaceOnUse">
<stop stop-color="#D9FFF9"/>
<stop offset="1" stop-color="#02FAE4"/>
</linearGradient>
<linearGradient id="paint40_linear_0_1" x1="598.901" y1="86.2" x2="598.901" y2="132.41" gradientUnits="userSpaceOnUse">
<stop stop-color="white"/>
<stop offset="1" stop-color="#E930DE"/>
</linearGradient>
</defs>
</svg>
