<svg width="393" height="417" viewBox="0 0 393 417" fill="none" xmlns="http://www.w3.org/2000/svg">
<g clip-path="url(#clip0_201_1070)">
<rect x="9" y="-37" width="116" height="265" rx="20" fill="#02FAE4"/>
<path d="M85.947 109.355C85.947 95.382 76.3012 84.0554 64.4046 84.0554C52.5081 84.0554 42.8623 95.382 42.8623 109.355C42.8623 123.327 52.157 134.23 63.7526 134.635V134.654H124.994V123.155H98.6053C96.3952 123.155 85.9501 123.155 85.9501 109.355H85.947Z" fill="url(#paint0_linear_201_1070)"/>
<path d="M64.7553 120.197C71.1802 120.197 76.3885 114.976 76.3885 108.534C76.3885 102.093 71.1802 96.8717 64.7553 96.8717C58.3304 96.8717 53.1221 102.093 53.1221 108.534C53.1221 114.976 58.3304 120.197 64.7553 120.197Z" fill="#080808"/>
<path d="M64.7552 115.229C68.4429 115.229 71.4324 112.231 71.4324 108.534C71.4324 104.837 68.4429 101.84 64.7552 101.84C61.0676 101.84 58.0781 104.837 58.0781 108.534C58.0781 112.231 61.0676 115.229 64.7552 115.229Z" fill="#02FAE4"/>
<path d="M67.3888 155.465C63.7179 152.096 59.0533 150.066 54.1317 149.334C52.3574 149.07 50.627 148.68 48.9436 148.174C48.8997 148.171 48.8558 148.171 48.8119 148.171V148.133C33.5706 143.495 22.4796 129.296 22.4796 112.498C22.4796 107.827 23.3386 103.355 24.906 99.235C25.6332 97.3242 26.6238 95.5329 27.7336 93.8169C28.301 92.9401 28.8056 92.0224 29.2445 91.067C30.5078 88.3233 31.2257 85.2748 31.2571 82.0597C31.3668 69.8469 21.1881 59.8561 9.00628 59.8561H9V203.795H48.8119C64.0627 203.707 76.3982 191.29 76.3982 175.981C76.3982 167.857 72.9248 160.55 67.3856 155.465H67.3888Z" fill="url(#paint1_linear_201_1070)"/>
<path d="M50.0623 193.069C59.0616 193.069 66.3569 185.755 66.3569 176.733C66.3569 167.71 59.0616 160.396 50.0623 160.396C41.063 160.396 33.7676 167.71 33.7676 176.733C33.7676 185.755 41.063 193.069 50.0623 193.069Z" fill="white"/>
<path d="M50.0632 186.111C55.2294 186.111 59.4174 181.912 59.4174 176.733C59.4174 171.553 55.2294 167.355 50.0632 167.355C44.897 167.355 40.709 171.553 40.709 176.733C40.709 181.912 44.897 186.111 50.0632 186.111Z" fill="#080808"/>
<path d="M103.916 157.788C106.42 156.974 109.145 158.106 110.342 160.456C110.856 161.465 111.671 162.282 112.677 162.798C115.022 163.998 116.151 166.729 115.339 169.24C114.991 170.315 114.991 171.475 115.339 172.55C116.151 175.061 115.022 177.792 112.677 178.992C111.671 179.508 110.856 180.325 110.342 181.334C109.145 183.685 106.42 184.816 103.916 184.002C102.844 183.653 101.687 183.653 100.615 184.002C98.11 184.816 95.3859 183.685 94.1884 181.334C93.6743 180.325 92.8592 179.508 91.853 178.992C89.5081 177.792 88.3796 175.061 89.1915 172.55C89.5395 171.475 89.5395 170.315 89.1915 169.24C88.3796 166.729 89.5081 163.998 91.853 162.798C92.8592 162.282 93.6743 161.465 94.1884 160.456C95.3859 158.106 98.11 156.974 100.615 157.788C101.687 158.137 102.844 158.137 103.916 157.788Z" fill="url(#paint2_linear_201_1070)"/>
<path d="M102.263 179.09C106.779 179.09 110.439 175.42 110.439 170.893C110.439 166.367 106.779 162.697 102.263 162.697C97.7482 162.697 94.0879 166.367 94.0879 170.893C94.0879 175.42 97.7482 179.09 102.263 179.09Z" fill="#0F19EF"/>
<path d="M102.263 175.268C104.673 175.268 106.627 173.31 106.627 170.893C106.627 168.477 104.673 166.519 102.263 166.519C99.8531 166.519 97.8994 168.477 97.8994 170.893C97.8994 173.31 99.8531 175.268 102.263 175.268Z" fill="url(#paint3_linear_201_1070)"/>
<path d="M102.241 67.5196C106.241 67.5196 109.483 64.2693 109.483 60.2598C109.483 56.2504 106.241 53 102.241 53C98.2421 53 95 56.2504 95 60.2598C95 64.2693 98.2421 67.5196 102.241 67.5196Z" fill="url(#paint4_linear_201_1070)"/>
<path d="M102.241 64.0154C104.31 64.0154 105.987 62.334 105.987 60.2598C105.987 58.1856 104.31 56.5042 102.241 56.5042C100.172 56.5042 98.4951 58.1856 98.4951 60.2598C98.4951 62.334 100.172 64.0154 102.241 64.0154Z" fill="#080808"/>
<rect x="9" y="242" width="117" height="151" rx="20" fill="#0F19EF"/>
<path d="M71.6385 286.623C71.6385 284.57 69.9717 282.906 67.9155 282.906C65.8593 282.906 64.1924 284.57 64.1924 286.623V350.051C64.1924 352.104 65.8593 353.768 67.9155 353.768C69.9717 353.768 71.6385 352.104 71.6385 350.051V286.623Z" fill="url(#paint5_linear_201_1070)"/>
<path d="M69.2678 294.315L80.5219 288.136C81.936 287.36 83.7126 287.931 84.405 289.385L87.3377 295.534C87.7198 296.336 88.4579 296.907 89.3332 297.08L95.4958 298.283C96.9459 298.567 97.9256 299.92 97.7395 301.384L96.7891 308.87C96.6879 309.659 96.9296 310.455 97.4521 311.058L102.181 316.497C103.095 317.55 103.095 319.115 102.181 320.168L97.4521 325.607C96.9296 326.21 96.6879 327.006 96.7891 327.795L97.7395 335.281C97.9256 336.742 96.9426 338.098 95.4958 338.382L89.3332 339.585C88.4612 339.754 87.7198 340.328 87.3377 341.13L84.405 347.28C83.7126 348.734 81.936 349.305 80.5219 348.529L69.2678 342.35C68.4252 341.887 67.4062 341.887 66.5669 342.35L55.3128 348.529C53.8987 349.305 52.122 348.734 51.4297 347.28L48.4969 341.13C48.1148 340.328 47.3767 339.758 46.5015 339.585L40.3388 338.382C38.8888 338.098 37.909 336.745 38.0952 335.281L39.0455 327.795C39.1468 327.006 38.9051 326.21 38.3826 325.607L33.6536 320.168C32.7392 319.115 32.7392 317.55 33.6536 316.497L38.3826 311.058C38.9051 310.455 39.1468 309.659 39.0455 308.87L38.0952 301.384C37.909 299.923 38.8921 298.567 40.3388 298.283L46.5015 297.08C47.3735 296.91 48.1148 296.336 48.4969 295.534L51.4297 289.385C52.122 287.931 53.8987 287.36 55.3128 288.136L66.5669 294.315C67.4095 294.778 68.4284 294.778 69.2678 294.315Z" fill="#080808"/>
<path d="M81.8782 350.185C81.1891 350.185 80.5065 350.015 79.8958 349.68L68.6416 343.501C68.191 343.253 67.6488 343.253 67.1982 343.501L55.944 349.68C54.9544 350.221 53.7755 350.335 52.701 349.989C51.6298 349.644 50.735 348.865 50.2516 347.847L47.3189 341.698C47.1164 341.271 46.718 340.964 46.2542 340.873L40.0916 339.67C37.9753 339.256 36.5318 337.26 36.8028 335.124L37.7532 327.638C37.8055 327.218 37.6781 326.79 37.3972 326.471L32.6683 321.029C31.3358 319.496 31.3358 317.181 32.6683 315.649L37.3972 310.21C37.6748 309.891 37.8055 309.464 37.7532 309.043L36.8028 301.557C36.5318 299.421 37.9753 297.425 40.0916 297.011L46.2542 295.808C46.718 295.717 47.1164 295.41 47.3189 294.983L50.2516 288.834C50.735 287.816 51.6298 287.037 52.701 286.692C53.7755 286.346 54.9544 286.46 55.944 287.001L67.1982 293.18C67.6488 293.428 68.191 293.428 68.6416 293.18L79.8958 287.001C80.8821 286.46 82.0643 286.346 83.1388 286.692C84.2132 287.037 85.1048 287.816 85.5882 288.834L88.5209 294.983C88.7234 295.41 89.1218 295.717 89.5856 295.808L95.7482 297.011C97.8645 297.425 99.308 299.421 99.037 301.557L98.0866 309.043C98.0343 309.464 98.1617 309.891 98.4426 310.21L103.172 315.649C104.504 317.181 104.504 319.496 103.172 321.029L98.4426 326.471C98.165 326.79 98.0343 327.218 98.0866 327.638L99.037 335.124C99.308 337.26 97.8645 339.256 95.7482 339.67L89.5856 340.873C89.1218 340.964 88.7234 341.271 88.5209 341.698L85.5882 347.847C85.1048 348.865 84.21 349.644 83.1388 349.989C82.7305 350.12 82.3027 350.185 81.8814 350.185H81.8782ZM67.9166 340.706C68.5959 340.706 69.2785 340.876 69.8958 341.215L81.1499 347.394C81.5157 347.593 81.9337 347.635 82.3321 347.505C82.7273 347.378 83.0473 347.101 83.2237 346.726L86.1564 340.576C86.7149 339.409 87.8057 338.561 89.0794 338.313L95.242 337.11C96.0128 336.96 96.5386 336.233 96.4406 335.454L95.4902 327.967C95.3433 326.81 95.6993 325.643 96.4635 324.759L101.192 319.317C101.679 318.76 101.679 317.915 101.192 317.357L96.4635 311.919C95.6993 311.038 95.3433 309.868 95.4902 308.71L96.4406 301.224C96.5386 300.445 96.0128 299.718 95.242 299.568L89.0794 298.364C87.8057 298.117 86.7149 297.269 86.1564 296.102L83.2237 289.952C83.0441 289.577 82.7273 289.3 82.3321 289.173C81.9369 289.046 81.5157 289.085 81.1499 289.287L69.8958 295.466C68.6547 296.147 67.1753 296.147 65.9343 295.466L54.6801 289.287C54.3143 289.085 53.8963 289.046 53.4979 289.173C53.1027 289.3 52.7827 289.577 52.6063 289.952L49.6736 296.102C49.1151 297.269 48.0243 298.117 46.7507 298.364L40.588 299.568C39.8172 299.718 39.2914 300.445 39.3894 301.224L40.3398 308.71C40.4867 309.868 40.1308 311.035 39.3666 311.916L34.6376 317.357C34.151 317.915 34.151 318.76 34.6376 319.317L39.3666 324.759C40.1308 325.639 40.4867 326.81 40.3398 327.964L39.3894 335.45C39.2914 336.23 39.8172 336.957 40.588 337.107L46.7507 338.31C48.0243 338.558 49.1151 339.406 49.6736 340.573L52.6063 346.722C52.7859 347.097 53.1027 347.374 53.4979 347.502C53.8963 347.629 54.3143 347.59 54.6801 347.387L65.9343 341.209C66.5548 340.869 67.2341 340.697 67.9134 340.697L67.9166 340.706Z" fill="url(#paint6_linear_201_1070)"/>
<path d="M68.8894 302.222L77.005 298.078C78.024 297.556 79.3042 297.941 79.8039 298.915L81.9201 303.04C82.1945 303.578 82.7301 303.963 83.3571 304.077L87.8019 304.886C88.847 305.075 89.5557 305.984 89.4185 306.966L88.7327 311.987C88.6608 312.519 88.834 313.05 89.2128 313.454L92.6223 317.103C93.282 317.811 93.282 318.86 92.6223 319.565L89.2128 323.213C88.834 323.618 88.6608 324.152 88.7327 324.681L89.4185 329.702C89.5524 330.683 88.8437 331.593 87.8019 331.782L83.3571 332.591C82.7268 332.705 82.1945 333.09 81.9201 333.628L79.8039 337.752C79.3042 338.727 78.024 339.112 77.005 338.59L68.8894 334.446C68.2819 334.136 67.5471 334.136 66.9397 334.446L58.824 338.59C57.8051 339.112 56.5248 338.727 56.0252 337.752L53.9089 333.628C53.6346 333.09 53.099 332.705 52.472 332.591L48.0271 331.782C46.982 331.593 46.2733 330.683 46.4105 329.702L47.0963 324.681C47.1682 324.149 46.9951 323.618 46.6163 323.213L43.2067 319.565C42.547 318.857 42.547 317.807 43.2067 317.103L46.6163 313.454C46.9951 313.05 47.1682 312.515 47.0963 311.987L46.4105 306.966C46.2766 305.984 46.9853 305.075 48.0271 304.886L52.472 304.077C53.1023 303.963 53.6346 303.578 53.9089 303.04L56.0252 298.915C56.5248 297.941 57.8051 297.556 58.824 298.078L66.9397 302.222C67.5471 302.531 68.2819 302.531 68.8894 302.222Z" fill="url(#paint7_linear_201_1070)"/>
<path d="M16.6094 322.036V322.688H24.4474V322.036H16.6094Z" fill="white"/>
<path d="M112.299 322.036V322.688H120.137V322.036H112.299Z" fill="white"/>
<path d="M68.2098 269.541H67.5566V277.366H68.2098V269.541Z" fill="white"/>
<path d="M40.7336 274.467L40.168 274.793L44.087 281.57L44.6527 281.244L40.7336 274.467Z" fill="white"/>
<path d="M23.1772 291.105L22.8506 291.67L29.6385 295.582L29.9651 295.018L23.1772 291.105Z" fill="white"/>
<path d="M40.1658 364.062L40.7314 364.388L44.6505 357.611L44.0848 357.285L40.1658 364.062Z" fill="white"/>
<path d="M22.9847 345.745L23.3311 346.298L29.9766 342.148L29.6303 341.596L22.9847 345.745Z" fill="white"/>
<path d="M97.9656 364.387L98.5312 364.061L94.6122 357.284L94.0466 357.61L97.9656 364.387Z" fill="white"/>
<path d="M115.523 347.75L115.85 347.186L109.062 343.273L108.735 343.838L115.523 347.75Z" fill="white"/>
<path d="M98.5295 274.792L97.9639 274.466L94.0448 281.243L94.6105 281.569L98.5295 274.792Z" fill="white"/>
<path d="M115.709 293.114L115.362 292.561L108.717 296.711L109.063 297.264L115.709 293.114Z" fill="white"/>
<path d="M68.2098 359.533H67.5566V367.358H68.2098V359.533Z" fill="white"/>
<path d="M67.9157 328.998C73.8137 328.998 78.595 324.224 78.595 318.336C78.595 312.447 73.8137 307.674 67.9157 307.674C62.0176 307.674 57.2363 312.447 57.2363 318.336C57.2363 324.224 62.0176 328.998 67.9157 328.998Z" fill="#080808"/>
<path d="M60.4823 317.416C63.2689 317.416 65.528 315.161 65.528 312.378C65.528 309.596 63.2689 307.341 60.4823 307.341C57.6956 307.341 55.4365 309.596 55.4365 312.378C55.4365 315.161 57.6956 317.416 60.4823 317.416Z" fill="white"/>
<rect x="138" y="-126" width="117" height="264" rx="20" fill="black"/>
<path d="M237.184 69.3217L230.593 62.7172V53.3746C230.593 47.6314 225.945 42.9777 220.216 42.9777H210.891L204.3 36.3732C200.245 32.3109 193.676 32.3109 189.622 36.3732L183.03 42.9777H173.705C167.973 42.9777 163.329 47.6346 163.329 53.3746V62.7172L156.737 69.3217C152.683 73.384 152.683 79.966 156.737 84.0283L163.329 90.6327V99.9754C163.329 105.719 167.977 110.372 173.705 110.372H183.03L189.622 116.977C193.676 121.039 200.245 121.039 204.3 116.977L210.891 110.372H220.216C225.948 110.372 230.593 105.715 230.593 99.9754V90.6327L237.184 84.0283C241.239 79.966 241.239 73.384 237.184 69.3217Z" fill="url(#paint8_linear_201_1070)"/>
<path d="M230.977 70.4016L225.35 64.7645V56.7941C225.35 51.893 221.386 47.9239 216.497 47.9239H208.543L202.916 42.2868C199.459 38.8223 193.852 38.8223 190.394 42.2868L184.768 47.9239H176.813C171.921 47.9239 167.96 51.8962 167.96 56.7941V64.7645L162.334 70.4016C158.876 73.8661 158.876 79.4839 162.334 82.9485L167.96 88.5856V96.5559C167.96 101.457 171.924 105.426 176.813 105.426H184.768L190.394 111.063C193.852 114.528 199.459 114.528 202.916 111.063L208.543 105.426H216.497C221.389 105.426 225.35 101.454 225.35 96.5559V88.5856L230.977 82.9485C234.434 79.4839 234.434 73.8661 230.977 70.4016Z" fill="url(#paint9_linear_201_1070)"/>
<path d="M196.495 98.1082C207.957 98.1082 217.249 88.7985 217.249 77.3145C217.249 65.8305 207.957 56.5209 196.495 56.5209C185.034 56.5209 175.742 65.8305 175.742 77.3145C175.742 88.7985 185.034 98.1082 196.495 98.1082Z" fill="url(#paint10_linear_201_1070)"/>
<path d="M196.335 89.7522C203.102 89.7522 208.588 84.2556 208.588 77.4753C208.588 70.6949 203.102 65.1983 196.335 65.1983C189.568 65.1983 184.082 70.6949 184.082 77.4753C184.082 84.2556 189.568 89.7522 196.335 89.7522Z" fill="#080808"/>
<path d="M197.319 130.022C197.143 130.022 197.002 129.88 196.998 129.704C196.998 129.527 197.136 129.379 197.316 129.379C197.483 129.379 197.656 129.517 197.656 129.694C197.656 129.871 197.534 130.019 197.354 130.019H197.322C197.322 130.019 197.322 130.019 197.319 130.019V130.022ZM194.759 129.993C194.759 129.993 194.753 129.993 194.75 129.993H194.715C194.538 129.986 194.4 129.835 194.407 129.659C194.413 129.482 194.567 129.347 194.74 129.35C194.917 129.356 195.071 129.507 195.064 129.684C195.058 129.858 194.929 129.993 194.759 129.993ZM199.908 129.925C199.741 129.925 199.6 129.797 199.587 129.626C199.574 129.45 199.706 129.295 199.882 129.283H199.917C200.091 129.27 200.244 129.408 200.257 129.585C200.267 129.761 200.132 129.912 199.956 129.925L199.937 129.604L199.927 129.925C199.927 129.925 199.911 129.925 199.904 129.925H199.908ZM192.171 129.839C192.171 129.839 192.152 129.839 192.142 129.839L192.171 129.517L192.116 129.835C191.94 129.822 191.808 129.668 191.821 129.491C191.834 129.315 191.985 129.183 192.164 129.196H192.2C192.376 129.212 192.508 129.366 192.492 129.543C192.476 129.71 192.338 129.835 192.171 129.835V129.839ZM202.487 129.7C202.323 129.7 202.185 129.578 202.169 129.411C202.15 129.234 202.278 129.077 202.455 129.058C202.631 129.038 202.804 129.16 202.823 129.337C202.843 129.514 202.73 129.671 202.557 129.691H202.522C202.522 129.691 202.499 129.697 202.49 129.697L202.487 129.7ZM189.592 129.559C189.592 129.559 189.563 129.559 189.55 129.559L189.518 129.556C189.342 129.533 189.22 129.369 189.242 129.196C189.265 129.019 189.425 128.897 189.602 128.919C189.778 128.942 189.916 129.106 189.894 129.283C189.871 129.443 189.746 129.562 189.592 129.562V129.559ZM205.053 129.35C204.899 129.35 204.764 129.238 204.735 129.08C204.706 128.907 204.825 128.739 204.998 128.71L205.03 128.704C205.21 128.675 205.37 128.794 205.399 128.971C205.428 129.148 205.309 129.311 205.133 129.34L205.082 129.022L205.104 129.344C205.085 129.344 205.069 129.347 205.05 129.347L205.053 129.35ZM187.032 129.154C187.013 129.154 186.997 129.154 186.978 129.148L186.943 129.141C186.769 129.106 186.654 128.939 186.689 128.765C186.724 128.592 186.891 128.476 187.064 128.511C187.238 128.543 187.366 128.714 187.334 128.887C187.305 129.041 187.183 129.154 187.032 129.154ZM207.6 128.871C207.452 128.871 207.32 128.768 207.285 128.62C207.247 128.447 207.356 128.277 207.529 128.238C207.529 128.238 207.561 128.232 207.564 128.232C207.737 128.193 207.908 128.306 207.946 128.479C207.981 128.653 207.872 128.823 207.699 128.861L207.632 128.547L207.67 128.868C207.648 128.874 207.622 128.874 207.6 128.874V128.871ZM184.498 128.624C184.473 128.624 184.447 128.624 184.421 128.614L184.498 128.302L184.396 128.608C184.222 128.569 184.113 128.395 184.152 128.225C184.19 128.052 184.364 127.942 184.534 127.981L184.569 127.991C184.742 128.032 184.848 128.206 184.806 128.379C184.771 128.527 184.639 128.624 184.495 128.624H184.498ZM210.121 128.267C209.976 128.267 209.848 128.171 209.81 128.026C209.765 127.856 209.867 127.679 210.041 127.634C210.211 127.586 210.4 127.685 210.448 127.856C210.496 128.026 210.406 128.199 210.236 128.248L210.201 128.257C210.175 128.264 210.146 128.267 210.121 128.267ZM181.993 127.968C181.964 127.968 181.932 127.965 181.903 127.955L181.993 127.647L181.878 127.949C181.708 127.901 181.605 127.724 181.653 127.554C181.701 127.383 181.878 127.283 182.048 127.328L182.083 127.338C182.253 127.39 182.349 127.566 182.301 127.737C182.259 127.878 182.131 127.968 181.993 127.968ZM212.61 127.537C212.472 127.537 212.344 127.447 212.302 127.309C212.251 127.139 212.347 126.959 212.517 126.908C212.684 126.856 212.879 126.946 212.931 127.113C212.985 127.28 212.908 127.454 212.741 127.512C212.741 127.512 212.706 127.521 212.703 127.525C212.671 127.534 212.642 127.537 212.61 127.537ZM179.523 127.19C179.488 127.19 179.453 127.184 179.417 127.174L179.523 126.869L179.389 127.165C179.222 127.107 179.132 126.927 179.186 126.756C179.244 126.589 179.424 126.499 179.594 126.554L179.626 126.564C179.793 126.621 179.883 126.805 179.825 126.972C179.78 127.104 179.655 127.19 179.52 127.19H179.523ZM215.054 126.686C214.926 126.686 214.804 126.609 214.756 126.48C214.692 126.313 214.775 126.13 214.939 126.065L214.971 126.053C215.137 125.992 215.32 126.075 215.384 126.242C215.445 126.409 215.362 126.593 215.198 126.657L215.086 126.355L215.173 126.666C215.134 126.683 215.096 126.689 215.057 126.689L215.054 126.686ZM177.089 126.287C177.053 126.287 177.015 126.281 176.976 126.265L176.941 126.252C176.778 126.184 176.701 125.995 176.768 125.831C176.835 125.667 177.025 125.59 177.188 125.657C177.352 125.722 177.448 125.914 177.384 126.078C177.332 126.207 177.217 126.287 177.092 126.287H177.089ZM217.453 125.715C217.328 125.715 217.213 125.644 217.158 125.522C217.088 125.358 217.161 125.169 217.325 125.098C217.489 125.027 217.691 125.098 217.761 125.259C217.832 125.423 217.771 125.606 217.611 125.677L217.582 125.689C217.54 125.709 217.495 125.715 217.453 125.715ZM174.699 125.265C174.657 125.265 174.616 125.256 174.574 125.236L174.542 125.223C174.381 125.15 174.311 124.96 174.385 124.796C174.458 124.635 174.651 124.565 174.811 124.639C174.972 124.712 175.058 124.908 174.985 125.069C174.93 125.188 174.818 125.262 174.699 125.262V125.265ZM219.801 124.626C219.683 124.626 219.567 124.558 219.513 124.446C219.436 124.285 219.503 124.092 219.66 124.015C219.817 123.938 220.023 123.996 220.103 124.156C220.18 124.314 220.132 124.5 219.971 124.577L219.939 124.593C219.894 124.616 219.846 124.626 219.801 124.626ZM172.367 124.124C172.322 124.124 172.274 124.115 172.229 124.092L172.194 124.073C172.037 123.989 171.979 123.793 172.062 123.639C172.146 123.481 172.338 123.424 172.495 123.507C172.653 123.588 172.726 123.787 172.646 123.944C172.588 124.057 172.479 124.124 172.364 124.124H172.367ZM222.095 123.42C221.983 123.42 221.873 123.363 221.816 123.257C221.729 123.102 221.78 122.906 221.938 122.819C221.938 122.819 221.966 122.803 221.97 122.8C222.124 122.713 222.319 122.771 222.406 122.926C222.493 123.08 222.435 123.276 222.281 123.363L222.127 123.08L222.258 123.375C222.207 123.404 222.153 123.417 222.101 123.417L222.095 123.42ZM170.09 122.868C170.038 122.868 169.987 122.855 169.939 122.826C169.939 122.826 169.91 122.81 169.907 122.807C169.753 122.717 169.705 122.517 169.795 122.366C169.884 122.215 170.083 122.164 170.234 122.254C170.385 122.344 170.449 122.55 170.362 122.701C170.301 122.803 170.199 122.864 170.09 122.864V122.868ZM224.324 122.103C224.218 122.103 224.112 122.048 224.051 121.952C223.958 121.801 224.003 121.601 224.154 121.508C224.305 121.415 224.517 121.454 224.61 121.605C224.703 121.756 224.67 121.945 224.52 122.038L224.494 122.055C224.443 122.087 224.382 122.103 224.324 122.103ZM167.88 121.502C167.825 121.502 167.767 121.486 167.716 121.454L167.687 121.434C167.54 121.338 167.498 121.139 167.594 120.991C167.69 120.843 167.889 120.801 168.037 120.898C168.184 120.994 168.242 121.203 168.143 121.351C168.078 121.447 167.979 121.502 167.876 121.502H167.88ZM226.489 120.679C226.387 120.679 226.287 120.631 226.223 120.538C226.124 120.39 226.162 120.191 226.31 120.091C226.454 119.991 226.666 120.02 226.768 120.165C226.868 120.309 226.845 120.499 226.701 120.602L226.672 120.621C226.618 120.66 226.553 120.676 226.492 120.676L226.489 120.679ZM165.753 120.033C165.689 120.033 165.621 120.014 165.564 119.972L165.541 119.956C165.397 119.853 165.365 119.651 165.467 119.506C165.57 119.361 165.772 119.329 165.917 119.432L165.945 119.451C166.09 119.554 166.122 119.757 166.016 119.901C165.952 119.988 165.856 120.033 165.756 120.033H165.753ZM228.581 119.149C228.484 119.149 228.391 119.107 228.327 119.024C228.218 118.883 228.244 118.683 228.382 118.574C228.382 118.574 228.411 118.555 228.411 118.552C228.552 118.445 228.754 118.471 228.86 118.613C228.965 118.754 228.94 118.956 228.799 119.062L228.606 118.805L228.779 119.079C228.722 119.124 228.651 119.146 228.584 119.146L228.581 119.149ZM163.69 118.458C163.62 118.458 163.549 118.436 163.488 118.388L163.469 118.372C163.328 118.262 163.306 118.06 163.411 117.922C163.52 117.78 163.723 117.758 163.86 117.864L163.889 117.889C164.027 118.002 164.047 118.204 163.937 118.343C163.873 118.42 163.78 118.462 163.687 118.462L163.69 118.458ZM230.595 117.517C230.505 117.517 230.412 117.478 230.351 117.404C230.236 117.269 230.255 117.067 230.39 116.951C230.524 116.835 230.739 116.842 230.855 116.977C230.97 117.112 230.964 117.305 230.829 117.42L230.803 117.439C230.743 117.491 230.669 117.517 230.598 117.517H230.595ZM161.692 116.781C161.622 116.781 161.554 116.755 161.496 116.704L161.471 116.681C161.339 116.562 161.33 116.36 161.448 116.228C161.567 116.096 161.769 116.086 161.901 116.205C162.032 116.324 162.055 116.536 161.936 116.668C161.869 116.742 161.782 116.781 161.692 116.781ZM232.526 115.788C232.443 115.788 232.356 115.755 232.295 115.688C232.173 115.559 232.176 115.357 232.305 115.235L232.33 115.212C232.459 115.09 232.664 115.097 232.783 115.225C232.904 115.354 232.898 115.559 232.77 115.678L232.552 115.444L232.75 115.698C232.69 115.759 232.609 115.788 232.529 115.788H232.526ZM159.809 115.016C159.729 115.016 159.646 114.984 159.585 114.923L159.809 114.695L159.562 114.901C159.437 114.775 159.434 114.573 159.559 114.447C159.684 114.322 159.886 114.319 160.011 114.444L160.034 114.467C160.159 114.592 160.162 114.794 160.037 114.92C159.973 114.984 159.889 115.016 159.809 115.016ZM234.37 113.965C234.29 113.965 234.213 113.936 234.152 113.879C234.024 113.756 234.017 113.554 234.139 113.425C234.139 113.425 234.165 113.4 234.165 113.396C234.29 113.271 234.492 113.268 234.621 113.393C234.746 113.519 234.749 113.721 234.624 113.846L234.396 113.621L234.608 113.866C234.544 113.933 234.46 113.969 234.374 113.969L234.37 113.965ZM158 113.155C157.914 113.155 157.827 113.12 157.763 113.053L158 112.834L157.744 113.03C157.622 112.901 157.628 112.696 157.756 112.577C157.885 112.455 158.09 112.461 158.209 112.59C158.209 112.59 158.231 112.615 158.234 112.615C158.353 112.747 158.347 112.95 158.215 113.069C158.154 113.127 158.074 113.152 157.997 113.152L158 113.155ZM236.125 112.053C236.048 112.053 235.974 112.027 235.913 111.973C235.782 111.854 235.769 111.651 235.884 111.52C236 111.388 236.215 111.362 236.346 111.478C236.478 111.594 236.503 111.783 236.388 111.918L236.365 111.944C236.301 112.015 236.215 112.053 236.125 112.053ZM156.268 111.201C156.185 111.201 156.101 111.166 156.04 111.095L156.018 111.07C155.906 110.931 155.925 110.729 156.06 110.616C156.197 110.504 156.4 110.523 156.512 110.658C156.624 110.793 156.618 111.009 156.48 111.121C156.416 111.176 156.342 111.201 156.268 111.201ZM237.783 110.048C237.716 110.048 237.649 110.025 237.591 109.983C237.453 109.874 237.421 109.678 237.53 109.54C237.639 109.398 237.851 109.363 237.989 109.472C238.13 109.582 238.165 109.771 238.056 109.909L238.046 109.922C237.982 110.006 237.883 110.051 237.783 110.051V110.048ZM154.651 109.173C154.562 109.173 154.475 109.135 154.414 109.055C154.414 109.055 154.395 109.029 154.392 109.026C154.286 108.884 154.315 108.682 154.456 108.576C154.597 108.47 154.799 108.499 154.905 108.64C155.011 108.781 154.991 108.997 154.85 109.103C154.789 109.148 154.719 109.173 154.648 109.173H154.651ZM239.339 107.978C239.275 107.978 239.214 107.959 239.156 107.92C239.012 107.82 238.973 107.618 239.076 107.473C239.076 107.473 239.095 107.444 239.098 107.444C239.201 107.3 239.403 107.268 239.544 107.37C239.689 107.473 239.721 107.676 239.618 107.82L239.358 107.634L239.602 107.843C239.541 107.933 239.438 107.981 239.339 107.981V107.978ZM153.153 107.075C153.051 107.075 152.948 107.027 152.887 106.933L153.153 106.753L152.871 106.911C152.769 106.766 152.807 106.564 152.951 106.464C153.096 106.365 153.298 106.4 153.397 106.545L153.416 106.573C153.516 106.721 153.477 106.921 153.33 107.02C153.275 107.059 153.211 107.075 153.15 107.075H153.153ZM240.792 105.825C240.731 105.825 240.67 105.809 240.616 105.773C240.468 105.677 240.426 105.478 240.523 105.33C240.619 105.182 240.824 105.127 240.975 105.224C241.122 105.32 241.174 105.503 241.081 105.651C241.081 105.651 241.061 105.68 241.061 105.683C241 105.776 240.898 105.828 240.792 105.828V105.825ZM151.726 104.889C151.627 104.889 151.53 104.841 151.473 104.748C151.473 104.748 151.453 104.719 151.453 104.716C151.36 104.565 151.412 104.366 151.562 104.276C151.713 104.182 151.912 104.234 152.002 104.385C152.092 104.536 152.053 104.745 151.902 104.838C151.848 104.873 151.784 104.889 151.726 104.889ZM242.136 103.601C242.081 103.601 242.027 103.588 241.979 103.559C241.825 103.472 241.77 103.276 241.857 103.122L241.873 103.093C241.96 102.939 242.158 102.887 242.312 102.974C242.466 103.064 242.518 103.26 242.431 103.414L242.415 103.44C242.357 103.543 242.248 103.604 242.136 103.604V103.601ZM150.424 102.646C150.318 102.646 150.215 102.591 150.161 102.489L150.145 102.46C150.061 102.302 150.119 102.109 150.273 102.023C150.427 101.939 150.623 101.997 150.709 102.151C150.793 102.305 150.745 102.514 150.587 102.601C150.536 102.63 150.478 102.643 150.424 102.643V102.646ZM243.368 101.312C243.316 101.312 243.265 101.3 243.22 101.277C243.063 101.193 243.002 101.001 243.085 100.843C243.162 100.682 243.361 100.609 243.522 100.686C243.682 100.763 243.753 100.946 243.672 101.107L243.653 101.142C243.595 101.251 243.483 101.316 243.368 101.316V101.312ZM149.237 100.342C149.125 100.342 149.019 100.284 148.968 100.175L148.951 100.143C148.874 99.9818 148.945 99.789 149.102 99.7151C149.263 99.6379 149.455 99.7054 149.529 99.8661C149.606 100.027 149.545 100.229 149.384 100.306C149.336 100.329 149.285 100.342 149.234 100.342H149.237ZM244.484 98.9662C244.439 98.9662 244.397 98.9566 244.352 98.9373C244.192 98.8666 244.118 98.677 244.189 98.5131L244.202 98.4809C244.275 98.3202 244.465 98.2463 244.625 98.3202C244.785 98.3942 244.859 98.5838 244.785 98.7445L244.773 98.7734C244.718 98.8924 244.603 98.963 244.478 98.963L244.484 98.9662ZM148.166 97.9828C148.047 97.9828 147.938 97.9185 147.887 97.8028C147.887 97.8028 147.874 97.7707 147.871 97.7675C147.803 97.6036 147.88 97.4139 148.044 97.3464C148.207 97.2789 148.393 97.3561 148.464 97.52C148.531 97.6839 148.464 97.8832 148.3 97.9539C148.255 97.9732 148.211 97.9828 148.166 97.9828ZM245.482 96.5655C245.44 96.5655 245.398 96.5591 245.36 96.5398C245.196 96.4723 245.119 96.2827 245.186 96.1188C245.247 95.9517 245.437 95.8584 245.603 95.9195C245.77 95.9806 245.857 96.1573 245.796 96.3244L245.78 96.3631C245.729 96.4884 245.61 96.5623 245.485 96.5623L245.482 96.5655ZM147.226 95.5885C147.094 95.5885 146.972 95.5081 146.924 95.3764L147.226 95.2671L146.915 95.3506C146.85 95.1835 146.934 95.0003 147.101 94.936C147.264 94.8718 147.45 94.9554 147.514 95.1225C147.514 95.1225 147.527 95.1546 147.527 95.1579C147.588 95.325 147.502 95.5082 147.335 95.5692C147.3 95.5821 147.261 95.5885 147.226 95.5885ZM246.354 94.123C246.322 94.123 246.29 94.1166 246.258 94.1069C246.088 94.0523 245.995 93.8723 246.046 93.7052C246.046 93.7052 246.059 93.6698 246.059 93.6666C246.117 93.4995 246.299 93.4095 246.466 93.4641C246.633 93.522 246.723 93.702 246.668 93.8723L246.364 93.7694L246.659 93.8948C246.617 94.033 246.489 94.1198 246.354 94.1198V94.123ZM146.392 93.1363C146.254 93.1363 146.129 93.0464 146.084 92.9082L146.392 92.8149L146.077 92.8824C146.023 92.7121 146.116 92.5321 146.283 92.4775C146.453 92.4228 146.632 92.5161 146.687 92.6832C146.687 92.6832 146.697 92.7153 146.697 92.7185C146.748 92.8888 146.655 93.0688 146.485 93.1202C146.453 93.1299 146.421 93.1331 146.392 93.1331V93.1363ZM247.105 91.6387C247.076 91.6387 247.047 91.6355 247.018 91.6258C246.848 91.5776 246.749 91.4009 246.793 91.2305C246.842 91.0602 247.021 90.9445 247.191 90.9895C247.361 91.0377 247.467 91.1984 247.419 91.3687L247.409 91.4008C247.371 91.5422 247.239 91.6355 247.101 91.6355L247.105 91.6387ZM145.667 90.6263C145.529 90.6263 145.404 90.5427 145.369 90.3981L145.362 90.366C145.317 90.1924 145.42 90.0189 145.593 89.9739C145.763 89.9289 145.94 90.0317 145.984 90.2053C146.029 90.3788 145.93 90.5684 145.757 90.6134C145.728 90.6199 145.699 90.6263 145.67 90.6263H145.667ZM247.73 89.119C247.704 89.119 247.679 89.119 247.653 89.1094C247.48 89.0676 247.374 88.8941 247.416 88.7205C247.457 88.5502 247.634 88.428 247.801 88.4666C247.971 88.5052 248.083 88.6594 248.048 88.8297C248.048 88.8329 248.038 88.8683 248.038 88.8715C248.003 89.0194 247.871 89.1158 247.727 89.1158L247.73 89.119ZM145.083 88.097C144.939 88.097 144.81 88.0038 144.778 87.856C144.778 87.856 144.772 87.8238 144.772 87.8206C144.737 87.6471 144.852 87.4767 145.025 87.4446C145.199 87.4093 145.369 87.525 145.401 87.6985C145.436 87.8721 145.327 88.0552 145.154 88.0906C145.131 88.097 145.106 88.097 145.083 88.097ZM248.23 86.5737C248.23 86.5737 248.198 86.5737 248.182 86.5705C248.006 86.5447 247.887 86.3808 247.913 86.204C247.913 86.204 247.919 86.1655 247.919 86.1623C247.951 85.9887 248.115 85.8698 248.291 85.9019C248.465 85.9341 248.583 86.1012 248.551 86.2747L248.237 86.2169L248.548 86.2972C248.526 86.4579 248.388 86.5705 248.23 86.5705V86.5737ZM144.634 85.558C144.477 85.558 144.342 85.4424 144.316 85.2849L144.634 85.2367L144.313 85.256C144.284 85.0792 144.403 84.9153 144.579 84.8864C144.756 84.8575 144.92 84.9763 144.948 85.1531L144.955 85.1885C144.98 85.3652 144.859 85.5291 144.685 85.5548C144.669 85.5548 144.653 85.558 144.637 85.558H144.634ZM248.603 84.0058C248.603 84.0058 248.577 84.0058 248.564 84.0058C248.388 83.9833 248.263 83.8258 248.282 83.649C248.304 83.4723 248.461 83.3309 248.641 83.3534C248.817 83.3727 248.946 83.5172 248.923 83.694L248.92 83.7262C248.901 83.8901 248.763 84.0089 248.603 84.0089V84.0058ZM144.304 82.9837C144.14 82.9837 144.002 82.8616 143.986 82.6945L144.304 82.6624H143.983C143.964 82.4888 144.092 82.3282 144.268 82.3121C144.442 82.296 144.602 82.4213 144.621 82.5981L144.624 82.6303C144.644 82.807 144.515 82.9645 144.339 82.9837C144.329 82.9837 144.316 82.9837 144.307 82.9837H144.304ZM248.85 81.4219C248.85 81.4219 248.83 81.4219 248.821 81.4219C248.644 81.4058 248.513 81.2515 248.529 81.0747C248.545 80.9012 248.702 80.7598 248.872 80.7662C249.045 80.7791 249.18 80.9141 249.17 81.0908C249.17 81.0908 249.17 81.1293 249.17 81.1326C249.154 81.2997 249.016 81.4251 248.85 81.4251V81.4219ZM144.098 80.3806C143.932 80.3806 143.79 80.2648 143.781 80.0945V80.0592C143.774 79.8824 143.909 79.7314 144.089 79.7249C144.259 79.7153 144.416 79.8535 144.422 80.0334C144.429 80.2102 144.294 80.3741 144.121 80.3838C144.114 80.3838 144.108 80.3838 144.102 80.3838L144.098 80.3806ZM248.971 78.8283C248.795 78.8283 248.651 78.6836 248.651 78.5069C248.651 78.5069 248.651 78.4683 248.651 78.465C248.657 78.2915 248.798 78.1533 248.971 78.1533C248.975 78.1533 248.978 78.1533 248.981 78.1533C249.157 78.1597 249.299 78.3076 249.292 78.4843L248.971 78.4747L249.292 78.5069C249.292 78.6836 249.148 78.8283 248.971 78.8283ZM144.028 77.7998C143.851 77.7998 143.707 77.6552 143.707 77.4785H144.028L143.707 77.4527C143.707 77.276 143.845 77.1281 144.025 77.1281C144.198 77.1378 144.349 77.2663 144.349 77.4463V77.4817C144.349 77.6584 144.204 77.8031 144.028 77.8031V77.7998ZM248.965 76.2314C248.792 76.2314 248.651 76.0933 248.644 75.9197C248.638 75.7429 248.779 75.579 248.955 75.5726C249.129 75.5597 249.279 75.6915 249.286 75.8683V75.9004C249.292 76.0772 249.151 76.225 248.975 76.2314C248.975 76.2314 248.968 76.2314 248.965 76.2314ZM144.082 75.1869C144.082 75.1869 144.073 75.1869 144.069 75.1869C143.893 75.1805 143.755 75.0455 143.762 74.8688V74.8367C143.771 74.6599 143.922 74.5249 144.098 74.5281C144.275 74.5345 144.413 74.6856 144.406 74.8623C144.4 75.0359 144.256 75.1869 144.086 75.1869H144.082ZM248.833 73.6379C248.663 73.6379 248.522 73.5061 248.513 73.3358C248.503 73.159 248.635 72.9919 248.808 72.9791C248.987 72.963 249.135 73.0786 249.151 73.2554C249.151 73.2554 249.151 73.294 249.151 73.2972C249.161 73.474 249.026 73.6251 248.85 73.6379C248.843 73.6379 248.837 73.6379 248.83 73.6379H248.833ZM144.262 72.5966C144.262 72.5966 144.243 72.5966 144.233 72.5966C144.057 72.5806 143.928 72.4391 143.944 72.2656C143.944 72.2656 143.948 72.2302 143.948 72.227C143.967 72.0502 144.124 71.9249 144.3 71.941C144.477 71.9603 144.605 72.1177 144.586 72.2945C144.57 72.4616 144.426 72.5998 144.262 72.5998V72.5966ZM248.57 71.054C248.413 71.054 248.279 70.9382 248.253 70.7808C248.253 70.7775 248.247 70.7422 248.247 70.739C248.227 70.5622 248.352 70.4015 248.529 70.3822C248.705 70.3597 248.866 70.4883 248.885 70.6651L248.567 70.7036L248.888 70.6875C248.914 70.8643 248.795 71.0283 248.619 71.054C248.603 71.054 248.587 71.0572 248.57 71.0572V71.054ZM144.57 70.0351C144.57 70.0351 144.538 70.0351 144.522 70.0319C144.345 70.0062 144.227 69.8423 144.252 69.6656L144.57 69.7137L144.256 69.6398C144.278 69.4631 144.442 69.341 144.615 69.3635C144.791 69.386 144.913 69.5466 144.891 69.7234L144.884 69.7588C144.862 69.9195 144.724 70.0319 144.567 70.0319L144.57 70.0351ZM248.179 68.4893C248.025 68.4893 247.89 68.38 247.865 68.2258C247.833 68.0522 247.948 67.869 248.121 67.8369C248.295 67.8048 248.458 67.9044 248.49 68.0812L248.497 68.1132C248.529 68.2868 248.413 68.454 248.237 68.4861C248.218 68.4893 248.198 68.4925 248.179 68.4925V68.4893ZM145 67.4608C144.98 67.4608 144.961 67.4609 144.945 67.4545C144.772 67.4223 144.653 67.268 144.689 67.0945L144.695 67.0623C144.73 66.8888 144.897 66.7731 145.07 66.8085C145.243 66.8438 145.359 67.0109 145.324 67.1845C145.295 67.3387 145.154 67.4608 145 67.4608ZM247.659 65.9471C247.512 65.9471 247.377 65.8442 247.345 65.69C247.31 65.5196 247.413 65.3333 247.586 65.2947C247.756 65.2561 247.923 65.3462 247.964 65.5165C247.964 65.5197 247.974 65.555 247.974 65.5582C248.009 65.7318 247.9 65.9021 247.727 65.9375C247.704 65.9407 247.682 65.9439 247.659 65.9439V65.9471ZM145.558 64.9251C145.535 64.9251 145.51 64.9251 145.487 64.9155C145.317 64.8737 145.208 64.7162 145.25 64.5427L145.26 64.5073C145.304 64.3338 145.478 64.2309 145.651 64.2759C145.821 64.3209 145.927 64.4945 145.882 64.668C145.843 64.8158 145.709 64.9251 145.561 64.9251H145.558ZM247.015 63.4307C246.877 63.4307 246.752 63.3407 246.707 63.2025L246.694 63.1607C246.646 62.9904 246.749 62.8136 246.919 62.7654C247.089 62.7204 247.265 62.82 247.313 62.9904L247.32 63.0129C247.371 63.1832 247.278 63.3632 247.108 63.4146C247.076 63.4243 247.044 63.4275 247.015 63.4275V63.4307ZM146.244 62.4376C146.212 62.4376 146.18 62.4344 146.151 62.4247C145.981 62.3733 145.888 62.1933 145.94 62.023L146.247 62.1162L145.949 61.9973C145.997 61.8269 146.177 61.7273 146.347 61.7787C146.517 61.827 146.616 62.0069 146.565 62.1773L146.555 62.2127C146.514 62.3508 146.385 62.4408 146.247 62.4408L146.244 62.4376ZM246.248 60.9592C246.113 60.9592 245.988 60.8757 245.943 60.7407C245.886 60.5736 245.972 60.3743 246.139 60.3196C246.306 60.2618 246.482 60.3357 246.54 60.5029L246.55 60.535C246.607 60.7021 246.518 60.8853 246.348 60.9432C246.312 60.9561 246.28 60.9592 246.245 60.9592H246.248ZM147.056 59.9726C147.02 59.9726 146.982 59.9662 146.947 59.9533C146.78 59.8922 146.693 59.709 146.754 59.5419L146.764 59.513C146.825 59.3458 147.008 59.2591 147.174 59.317C147.341 59.3748 147.428 59.5612 147.37 59.7283L147.357 59.7604C147.309 59.8922 147.187 59.9726 147.056 59.9726ZM245.36 58.5264C245.235 58.5264 245.113 58.4524 245.065 58.3271C245.065 58.3271 245.052 58.2918 245.048 58.2885C244.984 58.1214 245.068 57.9382 245.235 57.874C245.398 57.8097 245.584 57.8932 245.648 58.0603L245.35 58.176L245.658 58.0828C245.725 58.2467 245.648 58.4364 245.485 58.5039C245.446 58.5199 245.405 58.5296 245.363 58.5296L245.36 58.5264ZM147.986 57.53C147.947 57.53 147.909 57.5236 147.874 57.5075C147.71 57.44 147.627 57.2665 147.694 57.1026L147.707 57.0705C147.774 56.9066 147.964 56.8294 148.127 56.9001C148.291 56.9676 148.368 57.1573 148.297 57.3212C148.246 57.4497 148.117 57.5333 147.986 57.5333V57.53ZM244.349 56.1416C244.227 56.1416 244.112 56.071 244.057 55.9553C244.057 55.9553 244.045 55.9263 244.045 55.9231C243.971 55.7624 244.045 55.5696 244.205 55.4989C244.365 55.4249 244.558 55.4989 244.628 55.6596L244.336 55.7914L244.641 55.6853C244.715 55.846 244.641 56.0388 244.484 56.1128C244.442 56.132 244.394 56.1416 244.349 56.1416ZM149.041 55.155C149 55.155 148.955 55.1454 148.913 55.1261C148.753 55.0522 148.679 54.8722 148.753 54.7115L148.769 54.6762C148.846 54.5155 149.038 54.4511 149.198 54.5283C149.359 54.6054 149.423 54.7983 149.346 54.959C149.291 55.0779 149.166 55.155 149.041 55.155ZM243.223 53.8084C243.105 53.8084 242.992 53.7409 242.935 53.6285C242.858 53.471 242.912 53.2653 243.069 53.1849C243.223 53.1046 243.409 53.1496 243.493 53.3071C243.493 53.3071 243.512 53.3424 243.512 53.3456C243.589 53.5063 243.525 53.6992 243.364 53.7763C243.32 53.7988 243.271 53.8084 243.223 53.8084ZM150.212 52.8314C150.164 52.8314 150.116 52.8185 150.068 52.796C149.914 52.7125 149.846 52.5325 149.93 52.375L149.946 52.3429C150.032 52.1887 150.225 52.1308 150.382 52.2175C150.536 52.3043 150.594 52.4972 150.507 52.6547C150.446 52.7639 150.328 52.8314 150.209 52.8314H150.212ZM241.982 51.533C241.873 51.533 241.764 51.4752 241.706 51.3755L241.69 51.3466C241.6 51.1923 241.655 50.9962 241.809 50.9063C241.963 50.8163 242.158 50.8709 242.248 51.0252L241.969 51.1859L242.261 51.0509C242.351 51.2052 242.3 51.4012 242.146 51.4912C242.094 51.5201 242.04 51.5362 241.985 51.5362L241.982 51.533ZM151.498 50.5753C151.444 50.5753 151.389 50.5624 151.341 50.5335C151.19 50.4403 151.133 50.2571 151.226 50.106L151.242 50.0771C151.335 49.9261 151.53 49.8779 151.681 49.9711C151.832 50.0643 151.88 50.2603 151.787 50.4114C151.726 50.5142 151.611 50.5753 151.495 50.5753H151.498ZM240.632 49.3219C240.529 49.3219 240.426 49.2704 240.365 49.1772C240.365 49.1772 240.346 49.1451 240.343 49.1451C240.25 48.994 240.292 48.798 240.442 48.7016C240.593 48.6084 240.789 48.6502 240.885 48.8013L240.612 48.9716L240.898 48.8205C240.997 48.9683 240.956 49.1676 240.808 49.2672C240.753 49.3026 240.693 49.3219 240.632 49.3219ZM152.897 48.3834C152.839 48.3834 152.778 48.3674 152.727 48.332C152.579 48.2324 152.531 48.0492 152.631 47.9014L152.65 47.8724C152.749 47.7246 152.948 47.686 153.096 47.7856C153.243 47.8853 153.282 48.0846 153.182 48.2324C153.118 48.3288 153.009 48.3834 152.897 48.3834ZM239.172 47.1782C239.073 47.1782 238.973 47.1301 238.912 47.0433C238.806 46.8987 238.832 46.6865 238.973 46.5836C239.118 46.4776 239.307 46.5001 239.413 46.6416L239.432 46.6704C239.535 46.815 239.503 47.0144 239.358 47.1204C239.3 47.1622 239.236 47.1815 239.172 47.1815V47.1782ZM154.398 46.2687C154.334 46.2687 154.27 46.2494 154.215 46.2076C154.074 46.1016 154.036 45.9119 154.141 45.7705L154.164 45.7417C154.27 45.6002 154.472 45.5713 154.613 45.6806C154.754 45.7867 154.783 45.9891 154.674 46.1305C154.61 46.2173 154.504 46.2687 154.401 46.2687H154.398ZM237.607 45.1085C237.514 45.1085 237.421 45.0667 237.357 44.9896L237.334 44.9606C237.225 44.8224 237.248 44.62 237.385 44.5107C237.523 44.4015 237.726 44.4239 237.838 44.5621L237.854 44.5846C237.966 44.7228 237.944 44.9254 237.809 45.0378C237.748 45.086 237.677 45.1085 237.607 45.1085ZM156.002 44.2439C155.931 44.2439 155.857 44.2182 155.797 44.17C155.659 44.0576 155.639 43.8551 155.755 43.7169L155.761 43.7073C155.874 43.5723 156.082 43.5434 156.217 43.6559C156.351 43.7684 156.38 43.9611 156.268 44.0993L156.246 44.1251C156.181 44.2022 156.092 44.2407 155.999 44.2407L156.002 44.2439ZM235.936 43.1159C235.852 43.1159 235.769 43.0806 235.708 43.0131C235.589 42.8813 235.589 42.666 235.721 42.5471C235.852 42.4282 236.045 42.4249 236.163 42.5599C236.163 42.5599 236.176 42.5728 236.176 42.576C236.292 42.7077 236.285 42.9166 236.154 43.0355C236.09 43.0902 236.013 43.1191 235.936 43.1191V43.1159ZM157.705 42.2868C157.628 42.2868 157.551 42.2578 157.487 42.2032C157.355 42.0843 157.349 41.8786 157.468 41.75L157.705 41.9686L157.487 41.7308C157.606 41.599 157.808 41.5893 157.939 41.7083C158.071 41.8272 158.08 42.0296 157.962 42.1614L157.939 42.1871C157.875 42.2546 157.788 42.29 157.702 42.29L157.705 42.2868ZM234.184 41.2133C234.098 41.2133 234.014 41.1779 233.95 41.1104C233.828 40.9819 233.825 40.7698 233.95 40.6477C234.078 40.5255 234.268 40.5159 234.39 40.6445C234.39 40.6445 234.415 40.6702 234.415 40.6734C234.537 40.802 234.531 41.0076 234.402 41.1265C234.341 41.1844 234.261 41.2133 234.184 41.2133ZM159.508 40.4002C159.428 40.4002 159.344 40.3713 159.286 40.3102C159.161 40.1849 159.152 39.9921 159.277 39.8667L159.302 39.841C159.428 39.7156 159.633 39.7189 159.755 39.8442C159.88 39.9695 159.877 40.1753 159.752 40.2974C159.687 40.3617 159.598 40.3938 159.511 40.3938L159.508 40.4002ZM232.333 39.3975C232.253 39.3975 232.176 39.3686 232.115 39.3107C231.987 39.1886 231.968 38.9765 232.09 38.848C232.212 38.7194 232.401 38.7001 232.529 38.819C232.529 38.819 232.555 38.8415 232.555 38.8447C232.683 38.9669 232.69 39.1693 232.568 39.2979C232.504 39.3654 232.42 39.3975 232.333 39.3975ZM161.391 38.639C161.301 38.639 161.214 38.6037 161.15 38.5298C161.031 38.398 161.044 38.1923 161.179 38.0766L161.391 38.3176L161.198 38.0605C161.33 37.9416 161.532 37.948 161.65 38.0798C161.769 38.2116 161.763 38.414 161.631 38.5329C161.631 38.5329 161.606 38.5587 161.602 38.5587C161.541 38.6133 161.464 38.639 161.391 38.639ZM230.396 37.6716C230.322 37.6716 230.249 37.6459 230.191 37.5945C230.056 37.4788 230.027 37.2667 230.139 37.1317C230.255 36.9967 230.444 36.9679 230.579 37.0836L230.605 37.1028C230.739 37.2185 230.755 37.421 230.643 37.556C230.579 37.6299 230.489 37.6684 230.399 37.6684L230.396 37.6716ZM163.37 36.9389C163.277 36.9389 163.184 36.9004 163.123 36.8264C163.01 36.6882 163.02 36.4954 163.158 36.3829L163.184 36.3636C163.322 36.2511 163.524 36.2736 163.636 36.4118C163.748 36.55 163.726 36.7525 163.588 36.865C163.527 36.9164 163.447 36.9421 163.37 36.9421V36.9389ZM228.375 36.0422C228.308 36.0422 228.237 36.0197 228.18 35.9747C228.042 35.8654 228.003 35.6566 228.109 35.5152C228.215 35.377 228.404 35.3384 228.545 35.4445L228.574 35.467C228.715 35.5762 228.738 35.7787 228.629 35.9169C228.565 35.9972 228.472 36.0422 228.375 36.0422ZM165.413 35.3705C165.314 35.3705 165.217 35.3255 165.153 35.2387C165.047 35.0941 165.079 34.8949 165.224 34.7888L165.413 35.0492L165.246 34.7727C165.387 34.6667 165.589 34.6956 165.695 34.837C165.801 34.9784 165.772 35.1809 165.631 35.287C165.631 35.287 165.602 35.3063 165.602 35.3095C165.544 35.3513 165.48 35.3705 165.413 35.3705ZM226.278 34.5156C226.217 34.5156 226.152 34.4964 226.098 34.461L226.069 34.4417C225.925 34.3389 225.889 34.1396 225.989 33.995C226.091 33.8504 226.29 33.8118 226.435 33.9147L226.252 34.1782L226.457 33.9307C226.605 34.0304 226.643 34.2296 226.544 34.3774C226.483 34.4706 226.38 34.5188 226.278 34.5188V34.5156ZM167.54 33.8889C167.434 33.8889 167.331 33.8375 167.27 33.7411C167.174 33.5933 167.216 33.394 167.363 33.2976L167.536 33.5675L167.382 33.2848C167.53 33.1851 167.729 33.2237 167.828 33.3715C167.928 33.5194 167.889 33.7186 167.742 33.8182C167.742 33.8182 167.713 33.8375 167.71 33.8407C167.655 33.8761 167.594 33.8921 167.536 33.8921L167.54 33.8889ZM224.106 33.0951C224.048 33.0951 223.99 33.0791 223.936 33.0469C223.785 32.9537 223.724 32.748 223.817 32.597C223.91 32.4459 224.096 32.3913 224.244 32.4845L224.27 32.5006C224.42 32.5938 224.465 32.793 224.372 32.9441C224.311 33.0437 224.205 33.0951 224.1 33.0951H224.106ZM169.753 32.5006C169.641 32.5006 169.532 32.4491 169.474 32.3495C169.384 32.1984 169.419 32.0089 169.57 31.9189C169.57 31.9189 169.599 31.9028 169.602 31.8996C169.756 31.8096 169.952 31.861 170.042 32.0153C170.131 32.1696 170.08 32.3656 169.926 32.4556C169.872 32.4877 169.814 32.5006 169.753 32.5006ZM221.867 31.7807C221.816 31.7807 221.761 31.7678 221.713 31.7421L221.684 31.726C221.53 31.6392 221.473 31.4464 221.559 31.289C221.646 31.1347 221.841 31.0768 221.995 31.1636L222.024 31.1797C222.178 31.2664 222.236 31.4593 222.149 31.6168C222.092 31.7228 221.983 31.7838 221.867 31.7838V31.7807ZM172.014 31.2375C171.896 31.2375 171.78 31.1796 171.726 31.0704C171.642 30.9129 171.69 30.7298 171.844 30.6462L171.876 30.6301C172.033 30.5498 172.226 30.6108 172.309 30.7683C172.39 30.9258 172.329 31.1186 172.171 31.2022C172.123 31.2279 172.069 31.2407 172.014 31.2407V31.2375ZM219.564 30.5786C219.516 30.5786 219.468 30.569 219.42 30.5433C219.259 30.4662 219.182 30.2669 219.259 30.1094C219.336 29.9487 219.516 29.878 219.676 29.9552L219.708 29.9713C219.865 30.0516 219.93 30.2445 219.853 30.4019C219.795 30.5144 219.683 30.5786 219.564 30.5786ZM174.337 30.087C174.215 30.087 174.093 30.0227 174.038 29.907C173.964 29.7463 174.019 29.5631 174.179 29.486C174.179 29.486 174.208 29.4731 174.211 29.4731C174.372 29.3992 174.564 29.4699 174.638 29.6306C174.712 29.7913 174.641 29.9841 174.481 30.058C174.436 30.0773 174.388 30.0902 174.34 30.0902L174.337 30.087ZM217.206 29.4924C217.165 29.4924 217.123 29.4827 217.081 29.4667L217.049 29.4538C216.886 29.3831 216.812 29.1935 216.882 29.0296C216.953 28.8657 217.142 28.7918 217.306 28.8625L217.177 29.1581L217.331 28.8754C217.495 28.9429 217.572 29.1324 217.501 29.2963C217.45 29.4184 217.331 29.4924 217.206 29.4924ZM176.691 29.0649C176.563 29.0649 176.444 28.9878 176.393 28.8625C176.329 28.6986 176.409 28.5122 176.572 28.4447L176.691 28.7435L176.598 28.435C176.762 28.3675 176.948 28.4447 177.018 28.6086C177.089 28.7725 177.008 28.9621 176.845 29.0296L176.813 29.0425C176.774 29.0586 176.733 29.0649 176.694 29.0649H176.691ZM214.797 28.525C214.762 28.525 214.724 28.5186 214.688 28.5057C214.688 28.5057 214.656 28.4929 214.653 28.4929C214.486 28.4318 214.403 28.2455 214.467 28.0783C214.528 27.9112 214.714 27.8276 214.881 27.8887L214.769 28.1908L214.907 27.8983C215.073 27.9594 215.16 28.1426 215.099 28.3097C215.051 28.4415 214.929 28.5218 214.797 28.5218V28.525ZM179.113 28.149C178.978 28.149 178.856 28.0654 178.808 27.9304C178.75 27.7633 178.84 27.5802 179.007 27.5223L179.113 27.8276L179.036 27.5159C179.203 27.4548 179.385 27.5416 179.446 27.7087C179.507 27.8758 179.421 28.059 179.254 28.1201C179.254 28.1201 179.222 28.1329 179.219 28.1329C179.183 28.1458 179.148 28.149 179.113 28.149ZM212.347 27.6798C212.315 27.6798 212.283 27.6734 212.251 27.6637C212.081 27.6091 211.975 27.4259 212.026 27.2556C212.081 27.0884 212.244 26.9888 212.411 27.0403L212.443 27.0498C212.613 27.1045 212.706 27.2845 212.652 27.4548C212.607 27.593 212.482 27.6798 212.347 27.6798ZM181.573 27.3552C181.435 27.3552 181.307 27.2652 181.265 27.1238C181.217 26.9534 181.313 26.7734 181.483 26.7252L181.573 27.0338L181.512 26.7157C181.682 26.6642 181.862 26.7606 181.913 26.931C181.964 27.1013 181.868 27.2813 181.698 27.3327L181.666 27.3423C181.637 27.352 181.605 27.3552 181.576 27.3552H181.573ZM209.858 26.9599C209.829 26.9599 209.8 26.9567 209.774 26.9471C209.604 26.9021 209.489 26.7221 209.534 26.5518C209.579 26.3814 209.736 26.2753 209.909 26.3203L209.944 26.3299C210.114 26.3781 210.217 26.5549 210.169 26.7252C210.13 26.8666 210.002 26.9631 209.861 26.9631L209.858 26.9599ZM184.104 26.6771C183.956 26.6771 183.815 26.5806 183.78 26.4328C183.738 26.2593 183.828 26.0922 184.001 26.0504L184.033 26.0439C184.206 26.0022 184.38 26.1082 184.421 26.2818C184.463 26.4553 184.357 26.6288 184.184 26.6706C184.158 26.6771 184.133 26.6803 184.107 26.6803L184.104 26.6771ZM207.337 26.3621C207.314 26.3621 207.295 26.3621 207.272 26.3557L207.24 26.3492C207.067 26.3139 206.955 26.1404 206.993 25.9668C207.029 25.7933 207.202 25.6808 207.375 25.7193L207.308 26.0343L207.404 25.7258C207.577 25.7611 207.689 25.9314 207.654 26.105C207.622 26.256 207.491 26.3621 207.34 26.3621H207.337ZM186.638 26.1339C186.484 26.1339 186.336 26.0279 186.307 25.8736C186.275 25.7 186.372 25.5362 186.545 25.5008L186.58 25.4944C186.753 25.4622 186.92 25.5812 186.952 25.7547C186.984 25.9283 186.869 26.0954 186.692 26.1275C186.673 26.1307 186.654 26.1339 186.635 26.1339H186.638ZM204.79 25.8897C204.79 25.8897 204.758 25.8897 204.742 25.8865L204.706 25.88C204.533 25.8511 204.411 25.6872 204.44 25.5105C204.469 25.3337 204.629 25.2148 204.809 25.2437L204.758 25.5619L204.838 25.2501C205.014 25.2758 205.133 25.4397 205.107 25.6165C205.085 25.7772 204.947 25.8897 204.79 25.8897ZM189.165 25.7193C189.008 25.7193 188.87 25.6036 188.848 25.4397C188.825 25.2629 188.947 25.1023 189.124 25.0798L189.165 25.398L189.149 25.0766C189.323 25.0509 189.486 25.173 189.512 25.3466C189.537 25.5233 189.416 25.684 189.242 25.7097L189.207 25.7161C189.191 25.7161 189.178 25.7161 189.165 25.7161V25.7193ZM202.224 25.5426C202.224 25.5426 202.198 25.5426 202.185 25.5426C202.009 25.5233 201.868 25.3658 201.887 25.1891C201.906 25.0123 202.054 24.8837 202.224 24.8998H202.259C202.435 24.9255 202.56 25.083 202.541 25.2598C202.522 25.4237 202.384 25.5426 202.224 25.5426ZM191.741 25.4269C191.578 25.4269 191.436 25.3015 191.42 25.1344C191.404 24.9576 191.536 24.8002 191.712 24.7874L191.741 25.1087V24.7874C191.921 24.7713 192.078 24.903 192.094 25.0798C192.11 25.2565 191.978 25.4141 191.802 25.4301H191.77C191.76 25.4301 191.751 25.4301 191.741 25.4301V25.4269ZM199.641 25.324C199.641 25.324 199.629 25.324 199.622 25.324C199.606 25.324 199.587 25.3208 199.571 25.3176C199.555 25.3176 199.539 25.3176 199.523 25.3176C199.346 25.308 199.196 25.1537 199.205 24.9769C199.215 24.8002 199.353 24.6588 199.529 24.6748H199.561C199.561 24.6748 199.584 24.6781 199.597 24.6813C199.606 24.6813 199.619 24.6813 199.629 24.6813H199.661C199.837 24.6941 199.972 24.8452 199.962 25.022C199.953 25.1923 199.811 25.324 199.641 25.324ZM194.359 25.263C194.185 25.263 194.028 25.1279 194.022 24.9544C194.015 24.7776 194.137 24.6299 194.314 24.6234H194.349C194.525 24.6138 194.673 24.7584 194.679 24.9352C194.686 25.1119 194.545 25.2598 194.368 25.2662C194.365 25.2662 194.362 25.2662 194.359 25.2662V25.263ZM196.95 25.2276H196.915C196.739 25.2276 196.597 25.0798 196.597 24.903C196.597 24.7262 196.742 24.5848 196.918 24.5848H196.925V24.9062L196.95 24.5848C197.127 24.5848 197.271 24.7295 197.271 24.9062C197.271 25.083 197.127 25.2276 196.95 25.2276Z" fill="url(#paint11_linear_201_1070)"/>
<rect x="138" y="151" width="117" height="242" rx="20" fill="url(#paint12_linear_201_1070)"/>
<path d="M198.244 276.808C177.19 276.589 155.698 267.143 145.609 257.038C150.873 272.415 175.436 295.968 198.244 296.139V276.808Z" fill="url(#paint13_linear_201_1070)"/>
<path d="M196.051 299.214C217.105 298.995 238.597 289.549 248.686 279.444C243.422 294.821 218.859 318.374 196.051 318.545C196.051 309.49 196.051 299.214 196.051 299.214Z" fill="url(#paint14_linear_201_1070)"/>
<path d="M202.192 234.632H194.297V345.784H202.192V234.632Z" fill="#080808"/>
<path d="M198.244 362.478C207.449 362.478 214.912 355.004 214.912 345.784C214.912 336.563 207.449 329.089 198.244 329.089C189.039 329.089 181.576 336.563 181.576 345.784C181.576 355.004 189.039 362.478 198.244 362.478Z" fill="url(#paint15_linear_201_1070)"/>
<path d="M201.135 185.501L206.469 182.079C208.311 180.897 210.772 181.556 211.776 183.502L214.684 189.139C215.351 190.431 216.706 191.217 218.158 191.147L224.483 190.853C226.672 190.751 228.47 192.553 228.369 194.745L228.075 201.08C228.01 202.534 228.79 203.892 230.08 204.56L235.707 207.473C237.651 208.479 238.313 210.943 237.129 212.788L233.712 218.131C232.927 219.356 232.927 220.925 233.712 222.151L237.129 227.493C238.308 229.338 237.651 231.803 235.707 232.809L230.08 235.722C228.79 236.389 228.005 237.747 228.075 239.201L228.369 245.536C228.47 247.729 226.672 249.53 224.483 249.429L218.158 249.134C216.706 249.069 215.351 249.851 214.684 251.142L211.776 256.779C210.772 258.725 208.311 259.389 206.469 258.202L201.135 254.78C199.911 253.994 198.345 253.994 197.121 254.78L191.788 258.202C189.946 259.384 187.485 258.725 186.48 256.779L183.572 251.142C182.906 249.851 181.55 249.064 180.098 249.134L173.773 249.429C171.585 249.53 169.786 247.729 169.887 245.536L170.181 239.201C170.247 237.747 169.466 236.389 168.177 235.722L162.549 232.809C160.606 231.803 159.944 229.338 161.128 227.493L164.545 222.151C165.33 220.925 165.33 219.356 164.545 218.131L161.128 212.788C159.948 210.943 160.606 208.479 162.549 207.473L168.177 204.56C169.466 203.892 170.251 202.534 170.181 201.08L169.887 194.745C169.786 192.553 171.585 190.751 173.773 190.853L180.098 191.147C181.55 191.213 182.906 190.431 183.572 189.139L186.48 183.502C187.485 181.556 189.946 180.893 191.788 182.079L197.121 185.501C198.345 186.288 199.911 186.288 201.135 185.501Z" fill="url(#paint16_linear_201_1070)"/>
<path d="M199.13 247.926C214.45 247.926 226.869 235.487 226.869 220.143C226.869 204.799 214.45 192.359 199.13 192.359C183.811 192.359 171.392 204.799 171.392 220.143C171.392 235.487 183.811 247.926 199.13 247.926Z" fill="url(#paint17_linear_201_1070)"/>
<path d="M199.13 245.163C212.926 245.163 224.11 233.961 224.11 220.143C224.11 206.325 212.926 195.123 199.13 195.123C185.334 195.123 174.15 206.325 174.15 220.143C174.15 233.961 185.334 245.163 199.13 245.163Z" fill="url(#paint18_linear_201_1070)"/>
<path d="M199.131 234.509C207.053 234.509 213.474 228.077 213.474 220.143C213.474 212.209 207.053 205.777 199.131 205.777C191.21 205.777 184.788 212.209 184.788 220.143C184.788 228.077 191.21 234.509 199.131 234.509Z" fill="#080808"/>
<path d="M189.055 219.049C192.798 219.049 195.832 216.01 195.832 212.261C195.832 208.513 192.798 205.474 189.055 205.474C185.312 205.474 182.278 208.513 182.278 212.261C182.278 216.01 185.312 219.049 189.055 219.049Z" fill="white"/>
<rect x="268" y="-37" width="116" height="265" rx="20" fill="#0F19EF"/>
<path d="M304.675 101.875C307.619 101.875 310.008 104.242 310.008 107.159V155.704C310.008 159.08 308.956 162.209 307.156 164.789C304.244 168.98 299.37 171.73 293.841 171.73C285.053 171.73 277.74 164.778 277.52 156.118V156.094C277.517 156.009 277.517 155.921 277.517 155.84V155.785C277.517 155.697 277.52 155.604 277.524 155.515C277.705 152.746 280.187 150.544 283.03 150.552C286.243 150.563 288.844 147.956 288.844 144.769V140.462C290.416 139.953 292.1 139.682 293.841 139.682C295.775 139.682 297.625 140.018 299.343 140.628V107.155C299.343 104.235 301.732 101.871 304.675 101.871V101.875Z" fill="url(#paint19_linear_201_1070)"/>
<path d="M374.491 155.84C374.491 155.925 374.491 156.013 374.487 156.098V156.122C374.264 164.782 366.951 171.734 358.166 171.734C352.638 171.734 347.764 168.984 344.851 164.793C343.052 162.213 342 159.084 342 155.708V107.163C342 104.242 344.389 101.879 347.332 101.879C350.276 101.879 352.665 104.246 352.665 107.163V140.636C354.383 140.026 356.232 139.69 358.166 139.69C359.908 139.69 361.592 139.96 363.164 140.47V144.808C363.164 148.025 365.826 150.517 369.074 150.563C371.786 150.602 374.148 152.641 374.456 155.264C374.464 155.318 374.468 155.376 374.476 155.43V155.446C374.479 155.488 374.483 155.531 374.483 155.573C374.487 155.662 374.491 155.755 374.491 155.843V155.84Z" fill="url(#paint20_linear_201_1070)"/>
<path d="M374.491 155.84C374.488 158.764 372.106 161.124 369.159 161.124C360.063 161.124 352.661 153.789 352.661 144.769V107.302C352.661 105.842 352.064 104.521 351.101 103.563C350.138 102.605 348.801 102.018 347.329 102.018C344.382 102.018 341.997 104.382 341.997 107.302V187.254H331.332V115.494H320.667V187.254H310.003V107.302C310.003 104.382 307.618 102.018 304.67 102.018C303.199 102.018 301.862 102.609 300.898 103.563C299.935 104.521 299.338 105.842 299.338 107.302V144.769C299.338 145.557 299.28 146.334 299.168 147.091C298.028 155.013 291.143 161.128 282.84 161.128C279.985 161.128 277.662 158.906 277.512 156.118V156.094C277.508 156.009 277.508 155.921 277.508 155.84V155.785C277.508 155.697 277.512 155.604 277.516 155.515C277.519 155.43 277.527 155.341 277.539 155.256C277.831 152.614 280.089 150.552 282.84 150.552C286.057 150.552 288.673 147.96 288.673 144.769V86.2426C288.673 66.0874 305.383 49.7446 326 49.7446C346.616 49.7446 363.326 66.0835 363.326 86.2426V144.769C363.326 147.956 365.942 150.552 369.159 150.552C371.906 150.552 374.164 152.607 374.457 155.252C374.464 155.307 374.468 155.364 374.476 155.418V155.434C374.48 155.476 374.484 155.519 374.484 155.561C374.488 155.65 374.491 155.743 374.491 155.832V155.84Z" fill="url(#paint21_linear_201_1070)"/>
<path d="M331.336 82.5307H320.671V187.258H331.336V82.5307Z" fill="url(#paint22_linear_201_1070)"/>
<path d="M326.276 101.786C336.145 101.786 344.145 93.8551 344.145 84.0719C344.145 74.2887 336.145 66.3578 326.276 66.3578C316.407 66.3578 308.406 74.2887 308.406 84.0719C308.406 93.8551 316.407 101.786 326.276 101.786Z" fill="url(#paint23_linear_201_1070)"/>
<path d="M326.277 93.9022C331.754 93.9022 336.194 89.501 336.194 84.0719C336.194 78.6427 331.754 74.2414 326.277 74.2414C320.799 74.2414 316.359 78.6427 316.359 84.0719C316.359 89.501 320.799 93.9022 326.277 93.9022Z" fill="#080808"/>
<path d="M326.277 88.1933C328.573 88.1933 330.434 86.3481 330.434 84.0719C330.434 81.7957 328.573 79.9504 326.277 79.9504C323.981 79.9504 322.12 81.7957 322.12 84.0719C322.12 86.3481 323.981 88.1933 326.277 88.1933Z" fill="white"/>
<g clip-path="url(#clip1_201_1070)">
<rect x="268" y="242" width="116" height="151" rx="20" fill="url(#paint24_radial_201_1070)"/>
<path d="M388.09 310.496L398.368 303.915C401.921 301.641 406.663 302.909 408.6 306.652L414.206 317.486C415.491 319.968 418.107 321.477 420.902 321.347L433.098 320.779C437.312 320.582 440.783 324.05 440.589 328.261L440.02 340.442C439.89 343.234 441.401 345.847 443.886 347.13L454.733 352.73C458.483 354.665 459.753 359.401 457.473 362.949L450.884 373.215C449.373 375.57 449.373 378.586 450.884 380.941L457.473 391.206C459.75 394.755 458.48 399.491 454.733 401.426L443.886 407.025C441.401 408.309 439.89 410.921 440.02 413.714L440.589 425.894C440.786 430.103 437.314 433.571 433.098 433.377L420.902 432.809C418.107 432.678 415.491 434.188 414.206 436.67L408.6 447.504C406.663 451.249 401.921 452.518 398.368 450.241L388.09 443.66C385.732 442.151 382.713 442.151 380.355 443.66L370.077 450.241C366.525 452.515 361.783 451.246 359.845 447.504L354.239 436.67C352.955 434.188 350.339 432.678 347.543 432.809L335.348 433.377C331.134 433.574 327.662 430.106 327.857 425.894L328.425 413.714C328.556 410.921 327.045 408.309 324.559 407.025L313.713 401.426C309.963 399.491 308.693 394.755 310.972 391.206L317.561 380.941C319.072 378.586 319.072 375.57 317.561 373.215L310.972 362.949C308.695 359.401 309.966 354.665 313.713 352.73L324.559 347.13C327.045 345.847 328.556 343.234 328.425 340.442L327.857 328.261C327.66 324.052 331.131 320.585 335.348 320.779L347.543 321.347C350.339 321.477 352.955 319.968 354.239 317.486L359.845 306.652C361.783 302.907 366.525 301.638 370.077 303.915L380.355 310.496C382.713 312.005 385.732 312.005 388.09 310.496Z" fill="url(#paint25_linear_201_1070)"/>
<path d="M384.224 414.36C404.837 414.36 421.546 397.67 421.546 377.082C421.546 356.494 404.837 339.805 384.224 339.805C363.612 339.805 346.902 356.494 346.902 377.082C346.902 397.67 363.612 414.36 384.224 414.36Z" fill="#080808"/>
<path d="M284.638 298.878C287.526 298.878 289.867 296.54 289.867 293.656C289.867 290.772 287.526 288.434 284.638 288.434C281.751 288.434 279.41 290.772 279.41 293.656C279.41 296.54 281.751 298.878 284.638 298.878Z" fill="url(#paint26_linear_201_1070)"/>
<path d="M354.19 286.219C356.115 286.219 357.675 284.66 357.675 282.737C357.675 280.815 356.115 279.256 354.19 279.256C352.265 279.256 350.704 280.815 350.704 282.737C350.704 284.66 352.265 286.219 354.19 286.219Z" fill="url(#paint27_linear_201_1070)"/>
<path d="M322.504 265.647C324.429 265.647 325.99 264.089 325.99 262.166C325.99 260.243 324.429 258.684 322.504 258.684C320.579 258.684 319.019 260.243 319.019 262.166C319.019 264.089 320.579 265.647 322.504 265.647Z" fill="#0F19EF"/>
<path d="M287.513 336.79H282.76C282.498 336.79 282.285 337.003 282.285 337.265C282.285 337.527 282.498 337.74 282.76 337.74H287.513C287.776 337.74 287.989 337.527 287.989 337.265C287.989 337.003 287.776 336.79 287.513 336.79Z" fill="#0F19EF"/>
<path d="M285.612 339.638V334.891C285.612 334.629 285.4 334.416 285.137 334.416C284.875 334.416 284.662 334.629 284.662 334.891V339.638C284.662 339.901 284.875 340.113 285.137 340.113C285.4 340.113 285.612 339.901 285.612 339.638Z" fill="#0F19EF"/>
<path d="M372.116 254.82H367.363C367.1 254.82 366.888 255.033 366.888 255.295C366.888 255.557 367.1 255.77 367.363 255.77H372.116C372.378 255.77 372.591 255.557 372.591 255.295C372.591 255.033 372.378 254.82 372.116 254.82Z" fill="#0F19EF"/>
<path d="M370.215 257.669V252.921C370.215 252.659 370.002 252.447 369.74 252.447C369.477 252.447 369.264 252.659 369.264 252.921V257.669C369.264 257.931 369.477 258.143 369.74 258.143C370.002 258.143 370.215 257.931 370.215 257.669Z" fill="#0F19EF"/>
<path d="M295.117 261.783H290.364C290.101 261.783 289.889 261.995 289.889 262.258C289.889 262.52 290.101 262.732 290.364 262.732H295.117C295.379 262.732 295.592 262.52 295.592 262.258C295.592 261.995 295.379 261.783 295.117 261.783Z" fill="#0F19EF"/>
<path d="M293.217 264.631V259.884C293.217 259.622 293.004 259.409 292.742 259.409C292.479 259.409 292.266 259.622 292.266 259.884V264.631C292.266 264.893 292.479 265.106 292.742 265.106C293.004 265.106 293.217 264.893 293.217 264.631Z" fill="#0F19EF"/>
<path d="M323.001 304.825H318.248C317.985 304.825 317.772 305.038 317.772 305.3C317.772 305.562 317.985 305.774 318.248 305.774H323.001C323.263 305.774 323.476 305.562 323.476 305.3C323.476 305.038 323.263 304.825 323.001 304.825Z" fill="#0F19EF"/>
<path d="M321.1 307.673V302.926C321.1 302.664 320.887 302.451 320.624 302.451C320.362 302.451 320.149 302.664 320.149 302.926V307.673C320.149 307.936 320.362 308.148 320.624 308.148C320.887 308.148 321.1 307.936 321.1 307.673Z" fill="#0F19EF"/>
</g>
</g>
<defs>
<linearGradient id="paint0_linear_201_1070" x1="83.925" y1="84.0554" x2="83.925" y2="134.654" gradientUnits="userSpaceOnUse">
<stop stop-color="#E930DE"/>
<stop offset="1" stop-color="#12007A"/>
</linearGradient>
<linearGradient id="paint1_linear_201_1070" x1="42.7022" y1="59.8561" x2="42.7022" y2="203.795" gradientUnits="userSpaceOnUse">
<stop stop-color="#E930DE"/>
<stop offset="1" stop-color="#12007A"/>
</linearGradient>
<linearGradient id="paint2_linear_201_1070" x1="102.264" y1="157.524" x2="102.264" y2="184.263" gradientUnits="userSpaceOnUse">
<stop stop-color="white"/>
<stop offset="1" stop-color="#01958A"/>
</linearGradient>
<linearGradient id="paint3_linear_201_1070" x1="102.263" y1="166.522" x2="102.263" y2="175.268" gradientUnits="userSpaceOnUse">
<stop stop-color="#D9FFF9"/>
<stop offset="1" stop-color="#02FAE4"/>
</linearGradient>
<linearGradient id="paint4_linear_201_1070" x1="102.241" y1="52.9969" x2="102.241" y2="67.5196" gradientUnits="userSpaceOnUse">
<stop stop-color="white"/>
<stop offset="1" stop-color="#E930DE"/>
</linearGradient>
<linearGradient id="paint5_linear_201_1070" x1="67.9155" y1="282.906" x2="67.9155" y2="353.768" gradientUnits="userSpaceOnUse">
<stop stop-color="#E930DE"/>
<stop offset="1" stop-color="#12007A"/>
</linearGradient>
<linearGradient id="paint6_linear_201_1070" x1="67.9167" y1="286.489" x2="67.9167" y2="350.185" gradientUnits="userSpaceOnUse">
<stop stop-color="white"/>
<stop offset="1" stop-color="#E930DE"/>
</linearGradient>
<linearGradient id="paint7_linear_201_1070" x1="67.9161" y1="297.846" x2="67.9161" y2="338.828" gradientUnits="userSpaceOnUse">
<stop stop-color="#02FAE4"/>
<stop offset="1" stop-color="#01958A"/>
</linearGradient>
<linearGradient id="paint8_linear_201_1070" x1="196.961" y1="33.3265" x2="196.961" y2="120.023" gradientUnits="userSpaceOnUse">
<stop stop-color="#02FAE4"/>
<stop offset="1" stop-color="#01958A"/>
</linearGradient>
<linearGradient id="paint9_linear_201_1070" x1="196.655" y1="39.69" x2="196.655" y2="113.66" gradientUnits="userSpaceOnUse">
<stop stop-color="#E930DE"/>
<stop offset="1" stop-color="#12007A"/>
</linearGradient>
<linearGradient id="paint10_linear_201_1070" x1="196.495" y1="56.5241" x2="196.495" y2="98.1082" gradientUnits="userSpaceOnUse">
<stop stop-color="#D9FFF9"/>
<stop offset="1" stop-color="#02FAE4"/>
</linearGradient>
<linearGradient id="paint11_linear_201_1070" x1="143.81" y1="74.1007" x2="249.213" y2="80.4619" gradientUnits="userSpaceOnUse">
<stop stop-color="#D9FFF9"/>
<stop offset="1" stop-color="#02FAE4"/>
</linearGradient>
<linearGradient id="paint12_linear_201_1070" x1="196.5" y1="151" x2="196.5" y2="393" gradientUnits="userSpaceOnUse">
<stop stop-color="#02FAE4"/>
<stop offset="1" stop-color="#089DE9"/>
</linearGradient>
<linearGradient id="paint13_linear_201_1070" x1="171.927" y1="257.038" x2="171.927" y2="296.139" gradientUnits="userSpaceOnUse">
<stop stop-color="#02FAE4"/>
<stop offset="1" stop-color="#0F19EF"/>
</linearGradient>
<linearGradient id="paint14_linear_201_1070" x1="222.368" y1="279.444" x2="222.368" y2="318.545" gradientUnits="userSpaceOnUse">
<stop stop-color="#E930DE"/>
<stop offset="1" stop-color="#12007A"/>
</linearGradient>
<linearGradient id="paint15_linear_201_1070" x1="198.244" y1="329.089" x2="198.244" y2="362.478" gradientUnits="userSpaceOnUse">
<stop stop-color="#0F19EF"/>
<stop offset="1" stop-color="#12007A"/>
</linearGradient>
<linearGradient id="paint16_linear_201_1070" x1="199.13" y1="181.486" x2="199.13" y2="258.795" gradientUnits="userSpaceOnUse">
<stop stop-color="#E930DE"/>
<stop offset="1" stop-color="#12007A"/>
</linearGradient>
<linearGradient id="paint17_linear_201_1070" x1="199.13" y1="192.359" x2="199.13" y2="247.926" gradientUnits="userSpaceOnUse">
<stop stop-color="white"/>
<stop offset="1" stop-color="#E930DE"/>
</linearGradient>
<linearGradient id="paint18_linear_201_1070" x1="199.13" y1="195.123" x2="199.13" y2="245.163" gradientUnits="userSpaceOnUse">
<stop stop-color="#02FAE4"/>
<stop offset="1" stop-color="#01958A"/>
</linearGradient>
<linearGradient id="paint19_linear_201_1070" x1="293.76" y1="101.875" x2="293.76" y2="171.73" gradientUnits="userSpaceOnUse">
<stop stop-color="#E930DE"/>
<stop offset="1" stop-color="#12007A"/>
</linearGradient>
<linearGradient id="paint20_linear_201_1070" x1="358.244" y1="101.875" x2="358.244" y2="171.73" gradientUnits="userSpaceOnUse">
<stop stop-color="#E930DE"/>
<stop offset="1" stop-color="#12007A"/>
</linearGradient>
<linearGradient id="paint21_linear_201_1070" x1="326.003" y1="49.7485" x2="326.003" y2="187.258" gradientUnits="userSpaceOnUse">
<stop offset="0.38" stop-color="#02FAE4"/>
<stop offset="0.75" stop-color="#01958A"/>
<stop offset="1" stop-color="#0F19EF"/>
</linearGradient>
<linearGradient id="paint22_linear_201_1070" x1="326.003" y1="82.5307" x2="326.003" y2="187.258" gradientUnits="userSpaceOnUse">
<stop stop-color="#080808"/>
<stop offset="1" stop-color="#0F19EF"/>
</linearGradient>
<linearGradient id="paint23_linear_201_1070" x1="326.276" y1="66.3578" x2="326.276" y2="101.782" gradientUnits="userSpaceOnUse">
<stop offset="0.26" stop-color="white"/>
<stop offset="1" stop-color="#E930DE"/>
</linearGradient>
<radialGradient id="paint24_radial_201_1070" cx="0" cy="0" r="1" gradientUnits="userSpaceOnUse" gradientTransform="translate(325.577 242) rotate(89.8394) scale(151.001 141.974)">
<stop offset="0.00520833" stop-color="#02FAE4"/>
<stop offset="1" stop-color="#01958A"/>
</radialGradient>
<linearGradient id="paint25_linear_201_1070" x1="384.224" y1="302.782" x2="384.224" y2="451.382" gradientUnits="userSpaceOnUse">
<stop stop-color="#E930DE"/>
<stop offset="0.6" stop-color="#12007A"/>
</linearGradient>
<linearGradient id="paint26_linear_201_1070" x1="284.638" y1="288.434" x2="284.638" y2="298.878" gradientUnits="userSpaceOnUse">
<stop stop-color="#E930DE"/>
<stop offset="1" stop-color="#12007A"/>
</linearGradient>
<linearGradient id="paint27_linear_201_1070" x1="354.19" y1="279.256" x2="354.19" y2="286.219" gradientUnits="userSpaceOnUse">
<stop stop-color="#E930DE"/>
<stop offset="1" stop-color="#12007A"/>
</linearGradient>
<clipPath id="clip0_201_1070">
<rect width="393" height="417" fill="white"/>
</clipPath>
<clipPath id="clip1_201_1070">
<rect x="268" y="242" width="116" height="151" rx="20" fill="white"/>
</clipPath>
</defs>
</svg>
