<svg width="40" height="28" viewBox="0 0 40 28" fill="none" xmlns="http://www.w3.org/2000/svg">
<g clip-path="url(#clip0_356_1727)">
<rect x="0.5" y="0.5" width="39" height="26.8261" rx="2" fill="white" stroke="#D9D9D9"/>
<g clip-path="url(#clip1_356_1727)">
<path d="M17.8443 15.6497H6V21.9887H17.8443V15.6497Z" fill="#84B740"/>
<path d="M17.8443 7H6V13.3446H17.8443V7Z" fill="#259BD6"/>
<path d="M29.6886 20.7006L29.6358 20.7175C29.4529 20.774 29.3861 20.7966 29.2525 20.7966C28.943 20.7966 28.5773 20.5424 28.5773 19.3446C28.5773 18.7288 28.6406 17.9096 29.2173 17.9096H29.2208C29.3193 17.9209 29.4318 17.9379 29.6428 18.0395L29.6886 18.0621V20.7006ZM29.7835 14.7288L29.6886 14.7571V16.9717L29.6042 16.9322L29.5795 16.9209C29.4846 16.8757 29.2666 16.774 29.0556 16.774C27.9021 16.774 27.6594 18.1751 27.6594 19.3503C27.6594 20.9605 28.2221 21.887 29.2033 21.887C29.6182 21.887 29.9242 21.8192 30.2336 21.6554C30.5185 21.5085 30.6205 21.2994 30.6205 20.8531V14.4972C30.3462 14.5763 30.0613 14.6554 29.7835 14.7288Z" fill="#27292D"/>
<path d="M33.1173 20.7401L33.0681 20.7627L32.8922 20.8362C32.727 20.904 32.5793 20.9435 32.4667 20.9435C32.1959 20.9435 32.0342 20.7288 32.0342 20.3616C32.0342 20.1243 32.101 19.7232 32.5441 19.7232H33.1173V20.7401ZM32.7129 16.7458C32.3577 16.7458 31.992 16.8475 31.5383 17.0735L31.2429 17.2147L31.3414 18.2882L31.6297 18.1356C31.9322 17.9774 32.3085 17.8757 32.5898 17.8757C32.7164 17.8757 33.1032 17.8757 33.1032 18.548V18.8418H32.5652C31.584 18.8418 31.1304 19.3446 31.1304 20.4237C31.1304 21.3446 31.5489 21.8983 32.2522 21.8983C32.4702 21.8983 32.7727 21.8305 33.0329 21.7288L33.047 21.7232L33.061 21.7288L33.149 21.7514C33.4233 21.8305 33.7081 21.9096 33.9859 21.9944V18.4689C33.9859 17.3277 33.5569 16.7458 32.7129 16.7458Z" fill="#27292D"/>
<path d="M26.2844 20.7401L26.2352 20.7627L26.0594 20.8362C25.8941 20.904 25.7499 20.9435 25.6338 20.9435C25.363 20.9435 25.2013 20.7288 25.2013 20.3616C25.2013 20.1243 25.2681 19.7232 25.7077 19.7232H26.2809L26.2844 20.7401ZM25.8835 16.7458C25.5248 16.7458 25.1626 16.8475 24.7089 17.0735L24.4135 17.2147L24.512 18.2882L24.8004 18.1356C25.1028 17.9774 25.4791 17.8757 25.7604 17.8757C25.887 17.8757 26.2739 17.8757 26.2739 18.548V18.8418H25.7358C24.7547 18.8418 24.2975 19.3446 24.2975 20.4237C24.2975 21.3446 24.716 21.8983 25.4228 21.8983C25.6409 21.8983 25.9433 21.8305 26.2035 21.7288L26.2176 21.7232L26.2317 21.7288L26.3161 21.7514C26.5939 21.8305 26.8752 21.9096 27.153 22V18.4746C27.1566 17.3221 26.7275 16.7458 25.8835 16.7458Z" fill="#27292D"/>
<path d="M22.5813 16.7571C22.1346 16.7571 21.7654 16.9944 21.6282 17.0961L21.5931 17.1243L21.5614 17.0848C21.3715 16.8644 21.0937 16.7514 20.7069 16.7514C20.3657 16.7514 20.0457 16.8305 19.6976 16.9944C19.3986 17.1413 19.2826 17.3729 19.2826 17.8079V21.8362H20.218V18.113L20.2638 18.0904C20.4537 17.9887 20.5662 17.9718 20.6752 17.9718C20.946 17.9718 21.0831 18.2034 21.0831 18.6554V21.8418H22.0045V18.5932C22.0045 18.4011 21.9799 18.2881 21.9764 18.2655L21.9447 18.1695L22.008 18.1243C22.1487 18.0226 22.3034 17.9718 22.4652 17.9718C22.6516 17.9718 22.8731 18.0904 22.8731 18.6554V21.8418H23.791V18.5085C23.791 17.3277 23.3971 16.7571 22.5813 16.7571Z" fill="#27292D"/>
<path d="M32.4281 11.1356C32.2909 11.1356 32.0623 11.113 31.883 11.0565L31.8302 11.0396V8.86441C31.8302 8.68362 31.8091 8.57063 31.8056 8.55368L31.7775 8.46328L31.8373 8.42373C31.8513 8.41244 31.8654 8.40679 31.883 8.39549L31.8935 8.38419C31.9146 8.37289 31.9357 8.36159 31.9568 8.35029C31.9674 8.34464 31.9744 8.33899 31.9815 8.33899C32.1889 8.24859 32.3789 8.25989 32.4633 8.24859H32.4668C33.04 8.24859 33.1068 9.0678 33.1068 9.68362C33.1033 10.8814 32.734 11.1356 32.4281 11.1356ZM32.4246 7.00001C32.4175 7.00001 32.407 7.00001 32.4 7.00001C31.8619 7.00001 31.3098 7.23729 31.1128 7.70057C31.0073 7.92656 30.9476 8.20905 30.944 8.54238V10.7853C30.944 10.9774 30.9194 11.0509 30.9159 11.0678L30.8843 11.1638H29.1857V9.60453H29.1822C29.1611 7.96046 28.5562 7.0565 27.6805 7.0565H27.5785H26.826C26.7908 7.45763 26.7627 7.74012 26.7275 8.14125H27.5785C28.0252 8.14125 28.2608 8.75142 28.2608 9.68927V11.2599L28.201 11.209C28.1905 11.2034 28.1166 11.1638 28.0006 11.1638H26.5306C26.5024 11.4633 26.4673 11.8531 26.4286 12.2429H30.9476C31.1023 12.1921 31.2816 12.1469 31.4364 12.1074C31.665 12.2881 32.0905 12.3842 32.3824 12.3842C33.3635 12.3842 34.0001 11.3277 34.0001 9.70057C33.9965 8.0904 33.3811 7.0339 32.4246 7.00001Z" fill="#27292D"/>
<path d="M24.5014 12.904H24.5436C25.5247 12.904 25.9819 12.3842 25.9819 11.1017C25.9819 10.1808 25.5634 9.44634 24.8601 9.44634H23.9563C23.6855 9.44634 23.5237 9.19775 23.5237 8.77967C23.5237 8.49718 23.5906 8.1469 24.0337 8.1469H26.01C26.0522 7.73447 26.0733 7.47458 26.112 7.06215H24.0583C23.1017 7.06215 22.6199 7.70622 22.6199 8.77967C22.6199 9.84182 23.0384 10.3955 23.7418 10.3955H24.6456C24.9164 10.3955 25.0781 10.7401 25.0781 11.1017C25.0781 11.339 25.0113 11.8305 24.5717 11.8305H24.4205L21.5262 11.8192H20.9987C20.5521 11.8192 20.2391 11.4124 20.2391 10.4689V9.81922C20.2391 8.83617 20.4818 8.226 20.9987 8.226H21.8568C21.8955 7.80792 21.9201 7.54238 21.9553 7.1469H20.8862H20.7842C19.9086 7.1469 19.3037 8.0904 19.2826 9.73447V9.79662V10.4689C19.3037 12.113 19.9086 12.8983 20.7842 12.8983H20.8862H21.6388L23.2072 12.904H24.1427H24.5014Z" fill="#27292D"/>
</g>
</g>
<defs>
<clipPath id="clip0_356_1727">
<rect width="40" height="27.8261" fill="white"/>
</clipPath>
<clipPath id="clip1_356_1727">
<rect width="28" height="15" fill="white" transform="translate(6 7)"/>
</clipPath>
</defs>
</svg>
