<svg width="40" height="28" viewBox="0 0 40 28" fill="none" xmlns="http://www.w3.org/2000/svg">
<rect x="0.5" y="0.5" width="39" height="26.8261" rx="2" fill="white" stroke="#D9D9D9"/>
<path fill-rule="evenodd" clip-rule="evenodd" d="M20.3727 20.3433C18.8465 21.6239 16.8666 22.3969 14.7033 22.3969C9.87605 22.3969 5.96283 18.5482 5.96283 13.8006C5.96283 9.053 9.87605 5.20431 14.7033 5.20431C16.8667 5.20431 18.8465 5.97734 20.3728 7.25787C21.899 5.97735 23.8788 5.20433 26.0422 5.20433C30.8694 5.20433 34.7826 9.05302 34.7826 13.8006C34.7826 18.5482 30.8694 22.3969 26.0422 22.3969C23.8788 22.3969 21.899 21.6239 20.3727 20.3433Z" fill="#ED0006"/>
<path fill-rule="evenodd" clip-rule="evenodd" d="M20.3727 20.3433C22.252 18.7666 23.4436 16.4205 23.4436 13.8006C23.4436 11.1807 22.252 8.83456 20.3727 7.25784C21.8989 5.97733 23.8788 5.20431 26.0421 5.20431C30.8693 5.20431 34.7826 9.053 34.7826 13.8006C34.7826 18.5482 30.8693 22.3969 26.0421 22.3969C23.8788 22.3969 21.8989 21.6239 20.3727 20.3433Z" fill="#F9A000"/>
<path fill-rule="evenodd" clip-rule="evenodd" d="M20.3728 20.3434C22.2521 18.7666 23.4437 16.4205 23.4437 13.8007C23.4437 11.1808 22.2521 8.83466 20.3728 7.25795C18.4935 8.83466 17.3019 11.1808 17.3019 13.8007C17.3019 16.4205 18.4935 18.7666 20.3728 20.3434Z" fill="#FF5E00"/>
</svg>
