<svg width="37" height="36" viewBox="0 0 37 36" fill="none" xmlns="http://www.w3.org/2000/svg">
<path fill-rule="evenodd" clip-rule="evenodd" d="M21.6218 3.3456C21.7126 3.17654 21.9103 3.09529 22.0937 3.15164L27.209 4.72287C27.3152 4.7555 27.4031 4.83065 27.4519 4.93046C27.5007 5.03027 27.506 5.14584 27.4666 5.2497C27.2762 5.75065 27.1309 6.50233 27.0344 7.39448C26.9388 8.27965 26.8938 9.27733 26.8932 10.2558C26.8926 11.2343 26.9365 12.187 27.017 12.9819C27.0988 13.7913 27.2149 14.3945 27.341 14.7018C27.3611 14.7509 27.3713 14.8036 27.371 14.8567L27.2674 32.4667C27.2661 32.6876 27.0866 32.8661 26.8656 32.8661H10.4512C10.3443 32.8661 10.2419 32.8235 10.1665 32.7478C10.0911 32.6721 10.049 32.5695 10.0494 32.4626L10.4512 32.4643C10.0494 32.4626 10.0494 32.4627 10.0494 32.4626L10.05 32.3125C10.0504 32.2143 10.051 32.0696 10.0517 31.8839C10.0531 31.5126 10.0551 30.9774 10.0573 30.3219C10.0616 29.0108 10.0668 27.2183 10.0703 25.2928C10.0773 21.4404 10.0773 17.0599 10.0495 14.9347C10.048 14.8263 10.0905 14.722 10.1671 14.6453C10.1671 14.6454 10.1672 14.6452 10.1674 14.6449C10.1717 14.6387 10.218 14.5723 10.2824 14.3848C10.3439 14.2055 10.4071 13.9615 10.4662 13.6595C10.5841 13.0569 10.6803 12.2526 10.7216 11.3335C10.8044 9.49204 10.6652 7.22974 10.0665 5.24227C10.0033 5.03247 10.1198 4.81073 10.3285 4.7438L15.287 3.15313C15.4629 3.09669 15.6547 3.16753 15.7517 3.32482C16.4194 4.40751 17.5994 4.94912 18.773 4.94383C19.9479 4.93854 21.0624 4.38706 21.6218 3.3456ZM10.8546 32.0625H26.4662L26.567 14.9282C26.4086 14.4974 26.2948 13.8267 26.2175 13.0628C26.1338 12.2362 26.0891 11.2558 26.0896 10.2553C26.0902 9.25485 26.1361 8.22777 26.2355 7.30813C26.3134 6.58721 26.4259 5.91589 26.5817 5.37082L22.1589 4.0123C21.397 5.16876 20.0843 5.7415 18.7766 5.7474C17.4589 5.75333 16.0992 5.18543 15.2447 4.0106L10.9443 5.39016C11.4851 7.39289 11.6046 9.58528 11.5244 11.3696C11.4816 12.3202 11.3818 13.1649 11.2548 13.8139C11.1914 14.1376 11.1199 14.4201 11.0424 14.6458C10.9937 14.7876 10.9333 14.9362 10.8547 15.061C10.8808 17.24 10.8807 21.5242 10.8739 25.2942C10.8704 27.2202 10.8652 29.0132 10.8608 30.3245C10.8586 30.9802 10.8567 31.5156 10.8553 31.887C10.855 31.9503 10.8548 32.0089 10.8546 32.0625Z" fill="white"/>
<path fill-rule="evenodd" clip-rule="evenodd" d="M5.57497 10.7837L10.1332 4.87955L10.7693 5.37062L6.39232 11.0399L9.04381 14.797L10.3736 14.5352L10.5289 15.3236L8.9434 15.6358C8.78788 15.6664 8.6289 15.6028 8.53751 15.4733L5.56473 11.2609C5.46305 11.1168 5.4672 10.9232 5.57497 10.7837Z" fill="white"/>
<path fill-rule="evenodd" clip-rule="evenodd" d="M31.1499 11.0399L26.7729 5.37062L27.409 4.87955L31.9673 10.7837C32.075 10.9232 32.0792 11.1168 31.9775 11.2609L29.0047 15.4733C28.9133 15.6028 28.7544 15.6664 28.5988 15.6358L27.0134 15.3236L27.1686 14.5352L28.4984 14.797L31.1499 11.0399Z" fill="white"/>
</svg>
