<svg width="40" height="28" viewBox="0 0 40 28" fill="none" xmlns="http://www.w3.org/2000/svg">
<rect x="0.5" y="0.5" width="39" height="26.8261" rx="2" fill="white" stroke="#D9D9D9"/>
<rect x="0.5" y="0.5" width="39" height="26.8261" rx="2" fill="white" stroke="#D9D9D9"/>
<path fill-rule="evenodd" clip-rule="evenodd" d="M12.2176 18.8501H9.79442L7.97729 11.8172C7.89105 11.4937 7.70792 11.2077 7.43854 11.0729C6.76627 10.7342 6.02548 10.4646 5.21735 10.3286V10.0578H9.12097C9.65973 10.0578 10.0638 10.4646 10.1311 10.937L11.074 16.01L13.496 10.0578H15.8519L12.2176 18.8501ZM17.1988 18.8501H14.9102L16.7947 10.0578H19.0832L17.1988 18.8501ZM22.0441 12.4936C22.1114 12.02 22.5155 11.7493 22.9869 11.7493C23.7277 11.6813 24.5346 11.8173 25.2081 12.1548L25.6121 10.2618C24.9387 9.99104 24.1979 9.85507 23.5256 9.85507C21.3044 9.85507 19.6882 11.0729 19.6882 12.7632C19.6882 14.049 20.833 14.7242 21.6412 15.1309C22.5155 15.5365 22.8522 15.8072 22.7848 16.2128C22.7848 16.8212 22.1114 17.0919 21.4391 17.0919C20.631 17.0919 19.8229 16.8891 19.0833 16.5504L18.6792 18.4446C19.4873 18.7822 20.3616 18.9181 21.1698 18.9181C23.6603 18.9849 25.2081 17.7683 25.2081 15.942C25.2081 13.6423 22.0441 13.5075 22.0441 12.4936V12.4936ZM33.2174 18.8501L31.4002 10.0578H29.4484C29.0444 10.0578 28.6403 10.3286 28.5056 10.7342L25.1407 18.8501H27.4966L27.9668 17.5655H30.8615L31.1309 18.8501H33.2174ZM29.7851 12.4256L30.4574 15.7393H28.5729L29.7851 12.4256Z" fill="#172B85"/>
</svg>
