<svg width="37" height="36" viewBox="0 0 37 36" fill="none" xmlns="http://www.w3.org/2000/svg">
<path fill-rule="evenodd" clip-rule="evenodd" d="M14.6416 3.14249C14.8276 3.10344 15.0156 3.20008 15.092 3.37411C15.7384 4.84556 17.2465 5.65019 18.7709 5.67732C20.2899 5.70436 21.7391 4.96063 22.3106 3.42642C22.3862 3.22337 22.6093 3.11687 22.8147 3.18569L27.3414 4.70189C27.5427 4.76931 27.6568 4.98166 27.6019 5.18672C27.3114 6.2724 27.0614 8.10103 26.9307 9.759C26.8656 10.585 26.831 11.3578 26.8349 11.9636C26.8369 12.2671 26.8485 12.522 26.8693 12.7176C26.8798 12.8153 26.892 12.8929 26.9048 12.9514C26.9178 13.01 26.928 13.0338 26.929 13.036C26.929 13.0362 26.9291 13.0362 26.929 13.0362C26.9762 13.127 26.9869 13.2324 26.959 13.3308C25.9604 16.8563 25.8257 20.6729 26.1289 23.9251C26.4336 27.1929 27.174 29.8275 27.8766 31.0105C27.9621 31.1543 27.9494 31.336 27.8449 31.4666C27.7097 31.6357 27.518 31.767 27.3127 31.8727C27.1031 31.9805 26.8533 32.0749 26.5757 32.1585C26.0205 32.3255 25.3185 32.4599 24.5277 32.565C22.9439 32.7754 20.9582 32.8741 18.9797 32.8655C17.0012 32.8569 15.0155 32.7409 13.4316 32.5175C12.6407 32.406 11.9387 32.2661 11.3837 32.0952C11.1062 32.0097 10.8566 31.9138 10.6473 31.805C10.4423 31.6985 10.2512 31.5668 10.1163 31.3985C10.0283 31.2887 10.0041 31.1409 10.0526 31.0088C10.4584 29.9034 10.9815 27.4069 11.234 24.2114C11.4858 21.0244 11.4656 17.1743 10.803 13.3663C10.793 13.3085 10.7957 13.2491 10.811 13.1925C10.8899 12.9011 10.9107 12.3807 10.8686 11.6925C10.8273 11.0186 10.729 10.2276 10.596 9.42191C10.3284 7.80154 9.92827 6.1695 9.59283 5.34071C9.55153 5.23869 9.5539 5.12419 9.59938 5.02396C9.64486 4.92373 9.72946 4.84654 9.83343 4.81043L14.5627 3.16774C14.5877 3.1568 14.6141 3.14828 14.6416 3.14249ZM14.5208 4.03299L10.4841 5.43509C10.8119 6.39461 11.1536 7.86679 11.3888 9.29099C11.5248 10.1145 11.6272 10.934 11.6706 11.6433C11.7103 12.2907 11.7039 12.8865 11.609 13.3116C12.2718 17.1746 12.2889 21.0619 12.0351 24.2747C11.7973 27.2842 11.3195 29.7301 10.8976 31.0231C10.9317 31.0448 10.9715 31.0679 11.018 31.0921C11.1704 31.1713 11.3712 31.2505 11.6202 31.3272C12.1184 31.4806 12.774 31.6132 13.5438 31.7218C15.0812 31.9387 17.0287 32.0535 18.9832 32.062C20.9378 32.0705 22.885 31.9726 24.4219 31.7684C25.1914 31.6662 25.8466 31.5387 26.3441 31.389C26.5928 31.3141 26.7931 31.2363 26.9449 31.1582C26.9718 31.1443 26.9964 31.1309 27.019 31.1178C26.2877 29.6906 25.6154 27.074 25.3288 23.9997C25.0227 20.7163 25.1503 16.8485 26.15 13.2398C26.1094 13.1052 26.0861 12.951 26.0703 12.8028C26.0455 12.5704 26.0334 12.2862 26.0314 11.9688C26.0273 11.3327 26.0635 10.5356 26.1296 9.69586C26.2484 8.18934 26.4665 6.51028 26.7347 5.34613L22.9118 4.06567C22.1141 5.73961 20.4217 6.5104 18.7566 6.48077C17.0951 6.4512 15.3854 5.62584 14.5208 4.03299Z" fill="white"/>
<path fill-rule="evenodd" clip-rule="evenodd" d="M8.06947 6.73974C8.60578 5.93657 9.18278 5.22287 9.74513 4.85503L10.185 5.5275C9.7699 5.79904 9.26878 6.39072 8.73775 7.18598C8.21584 7.96757 7.69534 8.89855 7.23153 9.79774C6.7684 10.6956 6.36534 11.5549 6.07789 12.1901C5.95319 12.4657 5.8504 12.6988 5.77408 12.8742L10.0315 14.8157L10.8359 13.126L11.5614 13.4714L10.5872 15.518C10.4929 15.716 10.2573 15.8018 10.0577 15.7108L5.08331 13.4423C4.88599 13.3524 4.79569 13.122 4.87929 12.9219L5.25002 13.0768C4.87929 12.9219 4.87925 12.922 4.87929 12.9219L4.88152 12.9166L4.88772 12.9018C4.89316 12.8889 4.90119 12.8699 4.91171 12.8451C4.93273 12.7957 4.9637 12.7232 5.00372 12.6308C5.08377 12.4459 5.20011 12.1808 5.34578 11.8589C5.63695 11.2154 6.0461 10.343 6.51737 9.42937C6.98796 8.51703 7.52403 7.55656 8.06947 6.73974Z" fill="white"/>
<path fill-rule="evenodd" clip-rule="evenodd" d="M28.7388 7.22201C28.16 6.45005 27.5628 5.80702 26.9877 5.41657L27.4391 4.75175C28.1222 5.21554 28.7823 5.94046 29.3817 6.73995C29.9848 7.54427 30.5439 8.44773 31.0199 9.29067C31.4964 10.1345 31.8929 10.9235 32.1702 11.5013C32.3089 11.7904 32.4181 12.0271 32.4927 12.1919C32.53 12.2743 32.5587 12.3388 32.5782 12.3829C32.5879 12.405 32.5954 12.422 32.6004 12.4335L32.6062 12.4468L32.6078 12.4504L32.6083 12.4516C32.6083 12.4517 32.6084 12.4518 32.2394 12.6109L32.6084 12.4518C32.688 12.6364 32.6189 12.8514 32.4468 12.9551L27.9072 15.6894C27.8127 15.7463 27.699 15.7619 27.5927 15.7325C27.4864 15.703 27.3968 15.6312 27.3451 15.5338L26.2173 13.4111L26.9269 13.0341L27.8558 14.7823L31.7275 12.4503C31.6571 12.296 31.5622 12.0915 31.4457 11.849C31.1738 11.2825 30.7856 10.5101 30.3202 9.68579C29.8542 8.86058 29.314 7.98913 28.7388 7.22201Z" fill="white"/>
</svg>
